<svg viewBox="0 0 692 358" xmlns="http://www.w3.org/2000/svg"><path d="M42.43 252.17c26.12 0 41 19.24 41 43.37s-14.92 43.37-41 43.37-41-19.24-41-43.37 14.88-43.37 41-43.37zm0 68.09c14 0 19.36-12.24 19.36-24.72 0-12.48-5.36-24.72-19.36-24.72s-19.36 12.24-19.36 24.72c0 12.48 5.37 24.73 19.36 24.73v-.01zm50.85-43.6h18.89v7h.23a19.08 19.08 0 0116.67-8.74c19 0 27.05 16.21 27.05 33.35 0 15.74-8.39 30.67-25.54 30.67-7.35 0-13.18-2.8-17.26-8.28h-.23v26.82H93.28v-80.82zm19.12 29.62c0 10.61 3 17.49 12 17.49 8.75 0 11.89-9.21 11.89-17.49 0-7.7-2.92-16.21-11.78-16.21-5.23 0-12.11 3.61-12.11 16.21zm53.18-29.62h18.89v7h.23a19.08 19.08 0 0116.67-8.74c19 0 27.05 16.21 27.05 33.35 0 15.74-8.39 30.67-25.54 30.67-7.35 0-13.18-2.8-17.26-8.28h-.23v26.82h-19.81v-80.82zm19.12 29.62c0 10.61 3 17.49 12 17.49 8.75 0 11.89-9.21 11.89-17.49 0-7.7-2.91-16.21-11.78-16.21-5.23 0-12.11 3.61-12.11 16.21zm82.1-31.37c18.77 0 31.95 13.88 31.95 32.06s-13.18 31.95-31.95 31.95S235 325.17 235 307s13-32.09 31.8-32.09zm0 48.85c9.33 0 12.13-9 12.13-16.79 0-7.79-2.8-16.91-12.13-16.91-9.33 0-12 9.21-12 16.91 0 7.7 2.79 16.8 12 16.8v-.01zm38.95-47.1H325v10.61h.23c2.92-7.81 9.68-11.78 18.19-11.78a21.09 21.09 0 014.66.47V294a24.44 24.44 0 00-7.58-1.17c-9.79 0-14.92 6.76-14.92 14.34v30h-19.83v-60.51zm90.14 12.83h-12.24V317c0 4.78 2.8 5.83 7.11 5.83 1.75 0 3.38-.23 5.13-.23v14.57c-3.61.12-7.23.58-10.84.58-16.91 0-21.22-5-21.22-21.34v-26.92h-10v-12.83h10v-18.31h19.82v18.31h12.24v12.83zm70.2 47.68h-19.24v-8.27h-.23c-3.73 6.18-11.43 10-18.42 10-17.37 0-22.39-10-22.39-25.88v-36.36h19.82v35.1c0 8 3.38 10.84 9.79 10.84 4.2 0 10.84-2.8 10.84-13.53v-32.41h19.82l.01 60.51zm13.3-60.51h19.24v8.28h.23c3.73-6.18 11.78-10 19-10 20.17 0 21.8 14.69 21.8 23.44v38.83h-19.81v-35.36c0-5.83-2-10.61-9.91-10.61-7.46 0-10.73 6.41-10.73 12.94v33h-19.82v-60.52zm92.82-7.58h-19.82v-15.16h19.82v15.16zm-19.82 7.58h19.82v60.51h-19.82v-60.51zm70.31 12.83h-12.24V317c0 4.78 2.8 5.83 7.11 5.83 1.75 0 3.38-.23 5.13-.23v14.57c-3.61.12-7.23.58-10.84.58-16.91 0-21.22-5-21.22-21.34v-26.92h-10v-12.83h10v-18.31h19.82v18.31h12.24v12.83zm44.78 53.05c-4.66 13.29-12 14.92-25.3 14.92h-9.33v-16.09h6.88c4.55 0 7.93-2.57 7.93-6.76 0-3.26-3.85-12.59-5-15.86L627 276.66h21l11.43 39.41h.23l11.43-39.41h20.29l-23.9 65.88zm9.67-245.95l14.4-13.6V41.7L648.36.42H504.37L461.19 41.7V14.18L446.79.42h-57.6L374.8 14.18V41.7l-28.79 27.53-28.8-27.53V14.18L302.81.42h-57.59l-14.4 13.76L216.41.42h-57.59l-14.39 13.76v55.05L72.44.42H14.85L.45 14.18v192.67l14.4 13.76h57.59l14.39-13.76V151.8l71.99 68.81h57.59l14.41-13.76V96.75l71.99 68.81v41.29l14.4 13.76h57.59l14.39-13.76v-41.29l72-68.81v82.57l43.18 41.29h143.99l43.19-41.29v-41.28l-14.4-13.78h-71.98v13.78h-57.59V82.99h57.59v13.6h71.98z" fill="currentColor" fill-rule="nonzero"/></svg>