<?xml version="1.0" encoding="UTF-8"?><!DOCTYPE svg PUBLIC "-//W3C//DTD SVG 1.1//EN" "http://www.w3.org/Graphics/SVG/1.1/DTD/svg11.dtd"><svg xmlns="http://www.w3.org/2000/svg" xmlns:xlink="http://www.w3.org/1999/xlink"><defs/><symbol id="icon-ui-zoom-out" viewBox="0 0 24 24"><circle cx="11" cy="11" r="8"/><path d="M21 21l-4.35-4.35M8 11h6"/></symbol><symbol id="icon-ui-zoom-in" viewBox="0 0 24 24"><circle cx="11" cy="11" r="8"/><path d="M21 21l-4.35-4.35M11 8v6M8 11h6"/></symbol><symbol id="icon-ui-zap" viewBox="0 0 24 24"><path d="M13 2L3 14h9l-1 8 10-12h-9l1-8z"/></symbol><symbol id="icon-ui-zap-off" viewBox="0 0 24 24"><path d="M12.41 6.75L13 2l-2.43 2.92M18.57 12.91L21 10h-5.34M8 8l-5 6h9l-1 8 5-6M1 1l22 22"/></symbol><symbol id="icon-ui-youtube" viewBox="0 0 24 24"><path d="M22.54 6.42a2.78 2.78 0 00-1.94-2C18.88 4 12 4 12 4s-6.88 0-8.6.46a2.78 2.78 0 00-1.94 2A29 29 0 001 11.75a29 29 0 00.46 5.33A2.78 2.78 0 003.4 19c1.72.46 8.6.46 8.6.46s6.88 0 8.6-.46a2.78 2.78 0 001.94-2 29 29 0 00.46-5.25 29 29 0 00-.46-5.33z"/><path d="M9.75 15.02l5.75-3.27-5.75-3.27v6.54z"/></symbol><symbol id="icon-ui-x" viewBox="0 0 24 24"><path d="M18 6L6 18M6 6l12 12"/></symbol><symbol id="icon-ui-x-square" viewBox="0 0 24 24"><rect x="3" y="3" width="18" height="18" rx="2" ry="2"/><path d="M9 9l6 6M15 9l-6 6"/></symbol><symbol id="icon-ui-x-octagon" viewBox="0 0 24 24"><path d="M7.86 2h8.28L22 7.86v8.28L16.14 22H7.86L2 16.14V7.86L7.86 2zM15 9l-6 6M9 9l6 6"/></symbol><symbol id="icon-ui-x-circle" viewBox="0 0 24 24"><circle cx="12" cy="12" r="10"/><path d="M15 9l-6 6M9 9l6 6"/></symbol><symbol id="icon-ui-wind" viewBox="0 0 24 24"><path d="M9.59 4.59A2 2 0 1111 8H2m10.59 11.41A2 2 0 1014 16H2m15.73-8.27A2.5 2.5 0 1119.5 12H2"/></symbol><symbol id="icon-ui-wifi" viewBox="0 0 24 24"><path d="M5 12.55a11 11 0 0114.08 0M1.42 9a16 16 0 0121.16 0M8.53 16.11a6 6 0 016.95 0M12 20h.01"/></symbol><symbol id="icon-ui-wifi-off" viewBox="0 0 24 24"><path d="M1 1l22 22M16.72 11.06A10.94 10.94 0 0119 12.55M5 12.55a10.94 10.94 0 015.17-2.39M10.71 5.05A16 16 0 0122.58 9M1.42 9a15.91 15.91 0 014.7-2.88M8.53 16.11a6 6 0 016.95 0M12 20h.01"/></symbol><symbol id="icon-ui-watch" viewBox="0 0 24 24"><circle cx="12" cy="12" r="7"/><path d="M12 9v3l1.5 1.5M16.51 17.35l-.35 3.83a2 2 0 01-2 1.82H9.83a2 2 0 01-2-1.82l-.35-3.83m.01-10.7l.35-3.83A2 2 0 019.83 1h4.35a2 2 0 012 1.82l.35 3.83"/></symbol><symbol id="icon-ui-volume" viewBox="0 0 24 24"><path d="M11 5L6 9H2v6h4l5 4V5z"/></symbol><symbol id="icon-ui-volume-x" viewBox="0 0 24 24"><path d="M11 5L6 9H2v6h4l5 4V5zM23 9l-6 6M17 9l6 6"/></symbol><symbol id="icon-ui-volume-2" viewBox="0 0 24 24"><path d="M11 5L6 9H2v6h4l5 4V5zM19.07 4.93a10 10 0 010 14.14M15.54 8.46a5 5 0 010 7.07"/></symbol><symbol id="icon-ui-volume-1" viewBox="0 0 24 24"><path d="M11 5L6 9H2v6h4l5 4V5zM15.54 8.46a5 5 0 010 7.07"/></symbol><symbol id="icon-ui-voicemail" viewBox="0 0 24 24"><circle cx="5.5" cy="11.5" r="4.5"/><circle cx="18.5" cy="11.5" r="4.5"/><path d="M5.5 16h13"/></symbol><symbol id="icon-ui-video" viewBox="0 0 24 24"><path d="M23 7l-7 5 7 5V7z"/><rect x="1" y="5" width="15" height="14" rx="2" ry="2"/></symbol><symbol id="icon-ui-video-off" viewBox="0 0 24 24"><path d="M16 16v1a2 2 0 01-2 2H3a2 2 0 01-2-2V7a2 2 0 012-2h2m5.66 0H14a2 2 0 012 2v3.34l1 1L23 7v10M1 1l22 22"/></symbol><symbol id="icon-ui-users" viewBox="0 0 24 24"><path d="M17 21v-2a4 4 0 00-4-4H5a4 4 0 00-4 4v2"/><circle cx="9" cy="7" r="4"/><path d="M23 21v-2a4 4 0 00-3-3.87M16 3.13a4 4 0 010 7.75"/></symbol><symbol id="icon-ui-user" viewBox="0 0 24 24"><path d="M20 21v-2a4 4 0 00-4-4H8a4 4 0 00-4 4v2"/><circle cx="12" cy="7" r="4"/></symbol><symbol id="icon-ui-user-x" viewBox="0 0 24 24"><path d="M16 21v-2a4 4 0 00-4-4H5a4 4 0 00-4 4v2"/><circle cx="8.5" cy="7" r="4"/><path d="M18 8l5 5M23 8l-5 5"/></symbol><symbol id="icon-ui-user-plus" viewBox="0 0 24 24"><path d="M16 21v-2a4 4 0 00-4-4H5a4 4 0 00-4 4v2"/><circle cx="8.5" cy="7" r="4"/><path d="M20 8v6M23 11h-6"/></symbol><symbol id="icon-ui-user-minus" viewBox="0 0 24 24"><path d="M16 21v-2a4 4 0 00-4-4H5a4 4 0 00-4 4v2"/><circle cx="8.5" cy="7" r="4"/><path d="M23 11h-6"/></symbol><symbol id="icon-ui-user-check" viewBox="0 0 24 24"><path d="M16 21v-2a4 4 0 00-4-4H5a4 4 0 00-4 4v2"/><circle cx="8.5" cy="7" r="4"/><path d="M17 11l2 2 4-4"/></symbol><symbol id="icon-ui-upload" viewBox="0 0 24 24"><path d="M21 15v4a2 2 0 01-2 2H5a2 2 0 01-2-2v-4M17 8l-5-5-5 5M12 3v12"/></symbol><symbol id="icon-ui-upload-cloud" viewBox="0 0 24 24"><path d="M16 16l-4-4-4 4M12 12v9"/><path d="M20.39 18.39A5 5 0 0018 9h-1.26A8 8 0 103 16.3"/><path d="M16 16l-4-4-4 4"/></symbol><symbol id="icon-ui-unlock" viewBox="0 0 24 24"><rect x="3" y="11" width="18" height="11" rx="2" ry="2"/><path d="M7 11V7a5 5 0 019.9-1"/></symbol><symbol id="icon-ui-underline" viewBox="0 0 24 24"><path d="M6 3v7a6 6 0 006 6 6 6 0 006-6V3M4 21h16"/></symbol><symbol id="icon-ui-umbrella" viewBox="0 0 24 24"><path d="M23 12a11.05 11.05 0 00-22 0zm-5 7a3 3 0 01-6 0v-7"/></symbol><symbol id="icon-ui-type" viewBox="0 0 24 24"><path d="M4 7V4h16v3M9 20h6M12 4v16"/></symbol><symbol id="icon-ui-twitter" viewBox="0 0 24 24"><path d="M23 3a10.9 10.9 0 01-3.14 1.53 4.48 4.48 0 00-7.86 3v1A10.66 10.66 0 013 4s-4 9 5 13a11.64 11.64 0 01-7 2c9 5 20 0 20-11.5a4.5 4.5 0 00-.08-.83A7.72 7.72 0 0023 3z"/></symbol><symbol id="icon-ui-twitch" viewBox="0 0 24 24"><path d="M21 2H3v16h5v4l4-4h5l4-4V2zm-10 9V7m5 4V7"/></symbol><symbol id="icon-ui-tv" viewBox="0 0 24 24"><rect x="2" y="7" width="20" height="15" rx="2" ry="2"/><path d="M17 2l-5 5-5-5"/></symbol><symbol id="icon-ui-truck" viewBox="0 0 24 24"><path d="M1 3h15v13H1zM16 8h4l3 3v5h-7V8z"/><circle cx="5.5" cy="18.5" r="2.5"/><circle cx="18.5" cy="18.5" r="2.5"/></symbol><symbol id="icon-ui-triangle" viewBox="0 0 24 24"><path d="M10.29 3.86L1.82 18a2 2 0 001.71 3h16.94a2 2 0 001.71-3L13.71 3.86a2 2 0 00-3.42 0z"/></symbol><symbol id="icon-ui-trending-up" viewBox="0 0 24 24"><path d="M23 6l-9.5 9.5-5-5L1 18"/><path d="M17 6h6v6"/></symbol><symbol id="icon-ui-trending-down" viewBox="0 0 24 24"><path d="M23 18l-9.5-9.5-5 5L1 6"/><path d="M17 18h6v-6"/></symbol><symbol id="icon-ui-trello" viewBox="0 0 24 24"><rect x="3" y="3" width="18" height="18" rx="2" ry="2"/><path d="M7 7h3v9H7zM14 7h3v5h-3z"/></symbol><symbol id="icon-ui-trash" viewBox="0 0 24 24"><path d="M3 6h18M19 6v14a2 2 0 01-2 2H7a2 2 0 01-2-2V6m3 0V4a2 2 0 012-2h4a2 2 0 012 2v2"/></symbol><symbol id="icon-ui-trash-2" viewBox="0 0 24 24"><path d="M3 6h18M19 6v14a2 2 0 01-2 2H7a2 2 0 01-2-2V6m3 0V4a2 2 0 012-2h4a2 2 0 012 2v2M10 11v6M14 11v6"/></symbol><symbol id="icon-ui-tool" viewBox="0 0 24 24"><path d="M14.7 6.3a1 1 0 000 1.4l1.6 1.6a1 1 0 001.4 0l3.77-3.77a6 6 0 01-7.94 7.94l-6.91 6.91a2.12 2.12 0 01-3-3l6.91-6.91a6 6 0 017.94-7.94l-3.76 3.76z"/></symbol><symbol id="icon-ui-toggle-right" viewBox="0 0 24 24"><rect x="1" y="5" width="22" height="14" rx="7" ry="7"/><circle cx="16" cy="12" r="3"/></symbol><symbol id="icon-ui-toggle-left" viewBox="0 0 24 24"><rect x="1" y="5" width="22" height="14" rx="7" ry="7"/><circle cx="8" cy="12" r="3"/></symbol><symbol id="icon-ui-thumbs-up" viewBox="0 0 24 24"><path d="M14 9V5a3 3 0 00-3-3l-4 9v11h11.28a2 2 0 002-1.7l1.38-9a2 2 0 00-2-2.3zM7 22H4a2 2 0 01-2-2v-7a2 2 0 012-2h3"/></symbol><symbol id="icon-ui-thumbs-down" viewBox="0 0 24 24"><path d="M10 15v4a3 3 0 003 3l4-9V2H5.72a2 2 0 00-2 1.7l-1.38 9a2 2 0 002 2.3zm7-13h2.67A2.31 2.31 0 0122 4v7a2.31 2.31 0 01-2.33 2H17"/></symbol><symbol id="icon-ui-thermometer" viewBox="0 0 24 24"><path d="M14 14.76V3.5a2.5 2.5 0 00-5 0v11.26a4.5 4.5 0 105 0z"/></symbol><symbol id="icon-ui-terminal" viewBox="0 0 24 24"><path d="M4 17l6-6-6-6M12 19h8"/></symbol><symbol id="icon-ui-target" viewBox="0 0 24 24"><circle cx="12" cy="12" r="10"/><circle cx="12" cy="12" r="6"/><circle cx="12" cy="12" r="2"/></symbol><symbol id="icon-ui-tag" viewBox="0 0 24 24"><path d="M20.59 13.41l-7.17 7.17a2 2 0 01-2.83 0L2 12V2h10l8.59 8.59a2 2 0 010 2.82zM7 7h.01"/></symbol><symbol id="icon-ui-tablet" viewBox="0 0 24 24"><rect x="4" y="2" width="16" height="20" rx="2" ry="2"/><path d="M12 18h.01"/></symbol><symbol id="icon-ui-sunset" viewBox="0 0 24 24"><path d="M17 18a5 5 0 00-10 0M12 9V2M4.22 10.22l1.42 1.42M1 18h2M21 18h2M18.36 11.64l1.42-1.42M23 22H1M16 5l-4 4-4-4"/></symbol><symbol id="icon-ui-sunrise" viewBox="0 0 24 24"><path d="M17 18a5 5 0 00-10 0M12 2v7M4.22 10.22l1.42 1.42M1 18h2M21 18h2M18.36 11.64l1.42-1.42M23 22H1M8 6l4-4 4 4"/></symbol><symbol id="icon-ui-sun" viewBox="0 0 24 24"><circle cx="12" cy="12" r="5"/><path d="M12 1v2M12 21v2M4.22 4.22l1.42 1.42M18.36 18.36l1.42 1.42M1 12h2M21 12h2M4.22 19.78l1.42-1.42M18.36 5.64l1.42-1.42"/></symbol><symbol id="icon-ui-stop-circle" viewBox="0 0 24 24"><circle cx="12" cy="12" r="10"/><path d="M9 9h6v6H9z"/></symbol><symbol id="icon-ui-star" viewBox="0 0 24 24"><path d="M12 2l3.09 6.26L22 9.27l-5 4.87 1.18 6.88L12 17.77l-6.18 3.25L7 14.14 2 9.27l6.91-1.01L12 2z"/></symbol><symbol id="icon-ui-square" viewBox="0 0 24 24"><rect x="3" y="3" width="18" height="18" rx="2" ry="2"/></symbol><symbol id="icon-ui-speaker" viewBox="0 0 24 24"><rect x="4" y="2" width="16" height="20" rx="2" ry="2"/><circle cx="12" cy="14" r="4"/><path d="M12 6h.01"/></symbol><symbol id="icon-ui-smile" viewBox="0 0 24 24"><circle cx="12" cy="12" r="10"/><path d="M8 14s1.5 2 4 2 4-2 4-2M9 9h.01M15 9h.01"/></symbol><symbol id="icon-ui-smartphone" viewBox="0 0 24 24"><rect x="5" y="2" width="14" height="20" rx="2" ry="2"/><path d="M12 18h.01"/></symbol><symbol id="icon-ui-sliders" viewBox="0 0 24 24"><path d="M4 21v-7M4 10V3M12 21v-9M12 8V3M20 21v-5M20 12V3M1 14h6M9 8h6M17 16h6"/></symbol><symbol id="icon-ui-slash" viewBox="0 0 24 24"><circle cx="12" cy="12" r="10"/><path d="M4.93 4.93l14.14 14.14"/></symbol><symbol id="icon-ui-slack" viewBox="0 0 24 24"><path d="M14.5 10c-.83 0-1.5-.67-1.5-1.5v-5c0-.83.67-1.5 1.5-1.5s1.5.67 1.5 1.5v5c0 .83-.67 1.5-1.5 1.5zM20.5 10H19V8.5c0-.83.67-1.5 1.5-1.5s1.5.67 1.5 1.5-.67 1.5-1.5 1.5zM9.5 14c.83 0 1.5.67 1.5 1.5v5c0 .83-.67 1.5-1.5 1.5S8 21.33 8 20.5v-5c0-.83.67-1.5 1.5-1.5zM3.5 14H5v1.5c0 .83-.67 1.5-1.5 1.5S2 16.33 2 15.5 2.67 14 3.5 14zM14 14.5c0-.83.67-1.5 1.5-1.5h5c.83 0 1.5.67 1.5 1.5s-.67 1.5-1.5 1.5h-5c-.83 0-1.5-.67-1.5-1.5zM15.5 19H14v1.5c0 .83.67 1.5 1.5 1.5s1.5-.67 1.5-1.5-.67-1.5-1.5-1.5zM10 9.5C10 8.67 9.33 8 8.5 8h-5C2.67 8 2 8.67 2 9.5S2.67 11 3.5 11h5c.83 0 1.5-.67 1.5-1.5zM8.5 5H10V3.5C10 2.67 9.33 2 8.5 2S7 2.67 7 3.5 7.67 5 8.5 5z"/></symbol><symbol id="icon-ui-skip-forward" viewBox="0 0 24 24"><path d="M5 4l10 8-10 8V4zM19 5v14"/></symbol><symbol id="icon-ui-skip-back" viewBox="0 0 24 24"><path d="M19 20L9 12l10-8v16zM5 19V5"/></symbol><symbol id="icon-ui-sidebar" viewBox="0 0 24 24"><rect x="3" y="3" width="18" height="18" rx="2" ry="2"/><path d="M9 3v18"/></symbol><symbol id="icon-ui-shuffle" viewBox="0 0 24 24"><path d="M16 3h5v5M4 20L21 3M21 16v5h-5M15 15l6 6M4 4l5 5"/></symbol><symbol id="icon-ui-shopping-cart" viewBox="0 0 24 24"><circle cx="9" cy="21" r="1"/><circle cx="20" cy="21" r="1"/><path d="M1 1h4l2.68 13.39a2 2 0 002 1.61h9.72a2 2 0 002-1.61L23 6H6"/></symbol><symbol id="icon-ui-shopping-bag" viewBox="0 0 24 24"><path d="M6 2L3 6v14a2 2 0 002 2h14a2 2 0 002-2V6l-3-4zM3 6h18M16 10a4 4 0 01-8 0"/></symbol><symbol id="icon-ui-shield" viewBox="0 0 24 24"><path d="M12 22s8-4 8-10V5l-8-3-8 3v7c0 6 8 10 8 10z"/></symbol><symbol id="icon-ui-shield-off" viewBox="0 0 24 24"><path d="M19.69 14a6.9 6.9 0 00.31-2V5l-8-3-3.16 1.18M4.73 4.73L4 5v7c0 6 8 10 8 10a20.29 20.29 0 005.62-4.38M1 1l22 22"/></symbol><symbol id="icon-ui-share" viewBox="0 0 24 24"><path d="M4 12v8a2 2 0 002 2h12a2 2 0 002-2v-8M16 6l-4-4-4 4M12 2v13"/></symbol><symbol id="icon-ui-share-2" viewBox="0 0 24 24"><circle cx="18" cy="5" r="3"/><circle cx="6" cy="12" r="3"/><circle cx="18" cy="19" r="3"/><path d="M8.59 13.51l6.83 3.98M15.41 6.51l-6.82 3.98"/></symbol><symbol id="icon-ui-settings" viewBox="0 0 24 24"><circle cx="12" cy="12" r="3"/><path d="M19.4 15a1.65 1.65 0 00.33 1.82l.06.06a2 2 0 010 2.83 2 2 0 01-2.83 0l-.06-.06a1.65 1.65 0 00-1.82-.33 1.65 1.65 0 00-1 1.51V21a2 2 0 01-2 2 2 2 0 01-2-2v-.09A1.65 1.65 0 009 19.4a1.65 1.65 0 00-1.82.33l-.06.06a2 2 0 01-2.83 0 2 2 0 010-2.83l.06-.06a1.65 1.65 0 00.33-1.82 1.65 1.65 0 00-1.51-1H3a2 2 0 01-2-2 2 2 0 012-2h.09A1.65 1.65 0 004.6 9a1.65 1.65 0 00-.33-1.82l-.06-.06a2 2 0 010-2.83 2 2 0 012.83 0l.06.06a1.65 1.65 0 001.82.33H9a1.65 1.65 0 001-1.51V3a2 2 0 012-2 2 2 0 012 2v.09a1.65 1.65 0 001 1.51 1.65 1.65 0 001.82-.33l.06-.06a2 2 0 012.83 0 2 2 0 010 2.83l-.06.06a1.65 1.65 0 00-.33 1.82V9a1.65 1.65 0 001.51 1H21a2 2 0 012 2 2 2 0 01-2 2h-.09a1.65 1.65 0 00-1.51 1z"/></symbol><symbol id="icon-ui-server" viewBox="0 0 24 24"><rect x="2" y="2" width="20" height="8" rx="2" ry="2"/><rect x="2" y="14" width="20" height="8" rx="2" ry="2"/><path d="M6 6h.01M6 18h.01"/></symbol><symbol id="icon-ui-send" viewBox="0 0 24 24"><path d="M22 2L11 13M22 2l-7 20-4-9-9-4 20-7z"/></symbol><symbol id="icon-ui-search" viewBox="0 0 24 24"><circle cx="11" cy="11" r="8"/><path d="M21 21l-4.35-4.35"/></symbol><symbol id="icon-ui-scissors" viewBox="0 0 24 24"><circle cx="6" cy="6" r="3"/><circle cx="6" cy="18" r="3"/><path d="M20 4L8.12 15.88M14.47 14.48L20 20M8.12 8.12L12 12"/></symbol><symbol id="icon-ui-save" viewBox="0 0 24 24"><path d="M19 21H5a2 2 0 01-2-2V5a2 2 0 012-2h11l5 5v11a2 2 0 01-2 2z"/><path d="M17 21v-8H7v8M7 3v5h8"/></symbol><symbol id="icon-ui-rss" viewBox="0 0 24 24"><path d="M4 11a9 9 0 019 9M4 4a16 16 0 0116 16"/><circle cx="5" cy="19" r="1"/></symbol><symbol id="icon-ui-rotate-cw" viewBox="0 0 24 24"><path d="M23 4v6h-6"/><path d="M20.49 15a9 9 0 11-2.12-9.36L23 10"/></symbol><symbol id="icon-ui-rotate-ccw" viewBox="0 0 24 24"><path d="M1 4v6h6"/><path d="M3.51 15a9 9 0 102.13-9.36L1 10"/></symbol><symbol id="icon-ui-rewind" viewBox="0 0 24 24"><path d="M11 19l-9-7 9-7v14zM22 19l-9-7 9-7v14z"/></symbol><symbol id="icon-ui-repeat" viewBox="0 0 24 24"><path d="M17 1l4 4-4 4"/><path d="M3 11V9a4 4 0 014-4h14M7 23l-4-4 4-4"/><path d="M21 13v2a4 4 0 01-4 4H3"/></symbol><symbol id="icon-ui-refresh-cw" viewBox="0 0 24 24"><path d="M23 4v6h-6M1 20v-6h6"/><path d="M3.51 9a9 9 0 0114.85-3.36L23 10M1 14l4.64 4.36A9 9 0 0020.49 15"/></symbol><symbol id="icon-ui-refresh-ccw" viewBox="0 0 24 24"><path d="M1 4v6h6M23 20v-6h-6"/><path d="M20.49 9A9 9 0 005.64 5.64L1 10m22 4l-4.64 4.36A9 9 0 013.51 15"/></symbol><symbol id="icon-ui-radio" viewBox="0 0 24 24"><circle cx="12" cy="12" r="2"/><path d="M16.24 7.76a6 6 0 010 8.49m-8.48-.01a6 6 0 010-8.49m11.31-2.82a10 10 0 010 14.14m-14.14 0a10 10 0 010-14.14"/></symbol><symbol id="icon-ui-printer" viewBox="0 0 24 24"><path d="M6 9V2h12v7M6 18H4a2 2 0 01-2-2v-5a2 2 0 012-2h16a2 2 0 012 2v5a2 2 0 01-2 2h-2"/><path d="M6 14h12v8H6z"/></symbol><symbol id="icon-ui-power" viewBox="0 0 24 24"><path d="M18.36 6.64a9 9 0 11-12.73 0M12 2v10"/></symbol><symbol id="icon-ui-pocket" viewBox="0 0 24 24"><path d="M4 3h16a2 2 0 012 2v6a10 10 0 01-10 10A10 10 0 012 11V5a2 2 0 012-2z"/><path d="M8 10l4 4 4-4"/></symbol><symbol id="icon-ui-plus" viewBox="0 0 24 24"><path d="M12 5v14M5 12h14"/></symbol><symbol id="icon-ui-plus-square" viewBox="0 0 24 24"><rect x="3" y="3" width="18" height="18" rx="2" ry="2"/><path d="M12 8v8M8 12h8"/></symbol><symbol id="icon-ui-plus-circle" viewBox="0 0 24 24"><circle cx="12" cy="12" r="10"/><path d="M12 8v8M8 12h8"/></symbol><symbol id="icon-ui-play" viewBox="0 0 24 24"><path d="M5 3l14 9-14 9V3z"/></symbol><symbol id="icon-ui-play-circle" viewBox="0 0 24 24"><circle cx="12" cy="12" r="10"/><path d="M10 8l6 4-6 4V8z"/></symbol><symbol id="icon-ui-pie-chart" viewBox="0 0 24 24"><path d="M21.21 15.89A10 10 0 118 2.83M22 12A10 10 0 0012 2v10z"/></symbol><symbol id="icon-ui-phone" viewBox="0 0 24 24"><path d="M22 16.92v3a2 2 0 01-2.18 2 19.79 19.79 0 01-8.63-3.07 19.5 19.5 0 01-6-6 19.79 19.79 0 01-3.07-8.67A2 2 0 014.11 2h3a2 2 0 012 1.72 12.84 12.84 0 00.7 2.81 2 2 0 01-.45 2.11L8.09 9.91a16 16 0 006 6l1.27-1.27a2 2 0 012.11-.45 12.84 12.84 0 002.81.7A2 2 0 0122 16.92z"/></symbol><symbol id="icon-ui-phone-outgoing" viewBox="0 0 24 24"><path d="M23 7V1h-6M16 8l7-7M22 16.92v3a2 2 0 01-2.18 2 19.79 19.79 0 01-8.63-3.07 19.5 19.5 0 01-6-6 19.79 19.79 0 01-3.07-8.67A2 2 0 014.11 2h3a2 2 0 012 1.72 12.84 12.84 0 00.7 2.81 2 2 0 01-.45 2.11L8.09 9.91a16 16 0 006 6l1.27-1.27a2 2 0 012.11-.45 12.84 12.84 0 002.81.7A2 2 0 0122 16.92z"/></symbol><symbol id="icon-ui-phone-off" viewBox="0 0 24 24"><path d="M10.68 13.31a16 16 0 003.41 2.6l1.27-1.27a2 2 0 012.11-.45 12.84 12.84 0 002.81.7 2 2 0 011.72 2v3a2 2 0 01-2.18 2 19.79 19.79 0 01-8.63-3.07 19.42 19.42 0 01-3.33-2.67m-2.67-3.34a19.79 19.79 0 01-3.07-8.63A2 2 0 014.11 2h3a2 2 0 012 1.72 12.84 12.84 0 00.7 2.81 2 2 0 01-.45 2.11L8.09 9.91M23 1L1 23"/></symbol><symbol id="icon-ui-phone-missed" viewBox="0 0 24 24"><path d="M23 1l-6 6M17 1l6 6M22 16.92v3a2 2 0 01-2.18 2 19.79 19.79 0 01-8.63-3.07 19.5 19.5 0 01-6-6 19.79 19.79 0 01-3.07-8.67A2 2 0 014.11 2h3a2 2 0 012 1.72 12.84 12.84 0 00.7 2.81 2 2 0 01-.45 2.11L8.09 9.91a16 16 0 006 6l1.27-1.27a2 2 0 012.11-.45 12.84 12.84 0 002.81.7A2 2 0 0122 16.92z"/></symbol><symbol id="icon-ui-phone-incoming" viewBox="0 0 24 24"><path d="M16 2v6h6M23 1l-7 7M22 16.92v3a2 2 0 01-2.18 2 19.79 19.79 0 01-8.63-3.07 19.5 19.5 0 01-6-6 19.79 19.79 0 01-3.07-8.67A2 2 0 014.11 2h3a2 2 0 012 1.72 12.84 12.84 0 00.7 2.81 2 2 0 01-.45 2.11L8.09 9.91a16 16 0 006 6l1.27-1.27a2 2 0 012.11-.45 12.84 12.84 0 002.81.7A2 2 0 0122 16.92z"/></symbol><symbol id="icon-ui-phone-forwarded" viewBox="0 0 24 24"><path d="M19 1l4 4-4 4M15 5h8M22 16.92v3a2 2 0 01-2.18 2 19.79 19.79 0 01-8.63-3.07 19.5 19.5 0 01-6-6 19.79 19.79 0 01-3.07-8.67A2 2 0 014.11 2h3a2 2 0 012 1.72 12.84 12.84 0 00.7 2.81 2 2 0 01-.45 2.11L8.09 9.91a16 16 0 006 6l1.27-1.27a2 2 0 012.11-.45 12.84 12.84 0 002.81.7A2 2 0 0122 16.92z"/></symbol><symbol id="icon-ui-phone-call" viewBox="0 0 24 24"><path d="M15.05 5A5 5 0 0119 8.95M15.05 1A9 9 0 0123 8.94m-1 7.98v3a2 2 0 01-2.18 2 19.79 19.79 0 01-8.63-3.07 19.5 19.5 0 01-6-6 19.79 19.79 0 01-3.07-8.67A2 2 0 014.11 2h3a2 2 0 012 1.72 12.84 12.84 0 00.7 2.81 2 2 0 01-.45 2.11L8.09 9.91a16 16 0 006 6l1.27-1.27a2 2 0 012.11-.45 12.84 12.84 0 002.81.7A2 2 0 0122 16.92z"/></symbol><symbol id="icon-ui-percent" viewBox="0 0 24 24"><path d="M19 5L5 19"/><circle cx="6.5" cy="6.5" r="2.5"/><circle cx="17.5" cy="17.5" r="2.5"/></symbol><symbol id="icon-ui-pen-tool" viewBox="0 0 24 24"><path d="M12 19l7-7 3 3-7 7-3-3z"/><path d="M18 13l-1.5-7.5L2 2l3.5 14.5L13 18l5-5zM2 2l7.586 7.586"/><circle cx="11" cy="11" r="2"/></symbol><symbol id="icon-ui-pause" viewBox="0 0 24 24"><path d="M6 4h4v16H6zM14 4h4v16h-4z"/></symbol><symbol id="icon-ui-pause-circle" viewBox="0 0 24 24"><circle cx="12" cy="12" r="10"/><path d="M10 15V9M14 15V9"/></symbol><symbol id="icon-ui-paperclip" viewBox="0 0 24 24"><path d="M21.44 11.05l-9.19 9.19a6 6 0 01-8.49-8.49l9.19-9.19a4 4 0 015.66 5.66l-9.2 9.19a2 2 0 01-2.83-2.83l8.49-8.48"/></symbol><symbol id="icon-ui-package" viewBox="0 0 24 24"><path d="M16.5 9.4l-9-5.19M21 16V8a2 2 0 00-1-1.73l-7-4a2 2 0 00-2 0l-7 4A2 2 0 003 8v8a2 2 0 001 1.73l7 4a2 2 0 002 0l7-4A2 2 0 0021 16z"/><path d="M3.27 6.96L12 12.01l8.73-5.05M12 22.08V12"/></symbol><symbol id="icon-ui-octagon" viewBox="0 0 24 24"><path d="M7.86 2h8.28L22 7.86v8.28L16.14 22H7.86L2 16.14V7.86L7.86 2z"/></symbol><symbol id="icon-ui-navigation" viewBox="0 0 24 24"><path d="M3 11l19-9-9 19-2-8-8-2z"/></symbol><symbol id="icon-ui-navigation-2" viewBox="0 0 24 24"><path d="M12 2l7 19-7-4-7 4 7-19z"/></symbol><symbol id="icon-ui-music" viewBox="0 0 24 24"><path d="M9 18V5l12-2v13"/><circle cx="6" cy="18" r="3"/><circle cx="18" cy="16" r="3"/></symbol><symbol id="icon-ui-move" viewBox="0 0 24 24"><path d="M5 9l-3 3 3 3M9 5l3-3 3 3M15 19l-3 3-3-3M19 9l3 3-3 3M2 12h20M12 2v20"/></symbol><symbol id="icon-ui-mouse-pointer" viewBox="0 0 24 24"><path d="M3 3l7.07 16.97 2.51-7.39 7.39-2.51L3 3zM13 13l6 6"/></symbol><symbol id="icon-ui-more-vertical" viewBox="0 0 24 24"><circle cx="12" cy="12" r="1"/><circle cx="12" cy="5" r="1"/><circle cx="12" cy="19" r="1"/></symbol><symbol id="icon-ui-more-horizontal" viewBox="0 0 24 24"><circle cx="12" cy="12" r="1"/><circle cx="19" cy="12" r="1"/><circle cx="5" cy="12" r="1"/></symbol><symbol id="icon-ui-moon" viewBox="0 0 24 24"><path d="M21 12.79A9 9 0 1111.21 3 7 7 0 0021 12.79z"/></symbol><symbol id="icon-ui-monitor" viewBox="0 0 24 24"><rect x="2" y="3" width="20" height="14" rx="2" ry="2"/><path d="M8 21h8M12 17v4"/></symbol><symbol id="icon-ui-minus" viewBox="0 0 24 24"><path d="M5 12h14"/></symbol><symbol id="icon-ui-minus-square" viewBox="0 0 24 24"><rect x="3" y="3" width="18" height="18" rx="2" ry="2"/><path d="M8 12h8"/></symbol><symbol id="icon-ui-minus-circle" viewBox="0 0 24 24"><circle cx="12" cy="12" r="10"/><path d="M8 12h8"/></symbol><symbol id="icon-ui-minimize" viewBox="0 0 24 24"><path d="M8 3v3a2 2 0 01-2 2H3m18 0h-3a2 2 0 01-2-2V3m0 18v-3a2 2 0 012-2h3M3 16h3a2 2 0 012 2v3"/></symbol><symbol id="icon-ui-minimize-2" viewBox="0 0 24 24"><path d="M4 14h6v6M20 10h-6V4M14 10l7-7M3 21l7-7"/></symbol><symbol id="icon-ui-mic" viewBox="0 0 24 24"><path d="M12 1a3 3 0 00-3 3v8a3 3 0 006 0V4a3 3 0 00-3-3z"/><path d="M19 10v2a7 7 0 01-14 0v-2M12 19v4M8 23h8"/></symbol><symbol id="icon-ui-mic-off" viewBox="0 0 24 24"><path d="M1 1l22 22M9 9v3a3 3 0 005.12 2.12M15 9.34V4a3 3 0 00-5.94-.6"/><path d="M17 16.95A7 7 0 015 12v-2m14 0v2a7 7 0 01-.11 1.23M12 19v4M8 23h8"/></symbol><symbol id="icon-ui-message-square" viewBox="0 0 24 24"><path d="M21 15a2 2 0 01-2 2H7l-4 4V5a2 2 0 012-2h14a2 2 0 012 2z"/></symbol><symbol id="icon-ui-message-circle" viewBox="0 0 24 24"><path d="M21 11.5a8.38 8.38 0 01-.9 3.8 8.5 8.5 0 01-7.6 4.7 8.38 8.38 0 01-3.8-.9L3 21l1.9-5.7a8.38 8.38 0 01-.9-3.8 8.5 8.5 0 014.7-7.6 8.38 8.38 0 013.8-.9h.5a8.48 8.48 0 018 8v.5z"/></symbol><symbol id="icon-ui-menu" viewBox="0 0 24 24"><path d="M3 12h18M3 6h18M3 18h18"/></symbol><symbol id="icon-ui-meh" viewBox="0 0 24 24"><circle cx="12" cy="12" r="10"/><path d="M8 15h8M9 9h.01M15 9h.01"/></symbol><symbol id="icon-ui-maximize" viewBox="0 0 24 24"><path d="M8 3H5a2 2 0 00-2 2v3m18 0V5a2 2 0 00-2-2h-3m0 18h3a2 2 0 002-2v-3M3 16v3a2 2 0 002 2h3"/></symbol><symbol id="icon-ui-maximize-2" viewBox="0 0 24 24"><path d="M15 3h6v6M9 21H3v-6M21 3l-7 7M3 21l7-7"/></symbol><symbol id="icon-ui-map" viewBox="0 0 24 24"><path d="M1 6v16l7-4 8 4 7-4V2l-7 4-8-4-7 4zM8 2v16M16 6v16"/></symbol><symbol id="icon-ui-map-pin" viewBox="0 0 24 24"><path d="M21 10c0 7-9 13-9 13s-9-6-9-13a9 9 0 0118 0z"/><circle cx="12" cy="10" r="3"/></symbol><symbol id="icon-ui-mail" viewBox="0 0 24 24"><path d="M4 4h16c1.1 0 2 .9 2 2v12c0 1.1-.9 2-2 2H4c-1.1 0-2-.9-2-2V6c0-1.1.9-2 2-2z"/><path d="M22 6l-10 7L2 6"/></symbol><symbol id="icon-ui-log-out" viewBox="0 0 24 24"><path d="M9 21H5a2 2 0 01-2-2V5a2 2 0 012-2h4M16 17l5-5-5-5M21 12H9"/></symbol><symbol id="icon-ui-log-in" viewBox="0 0 24 24"><path d="M15 3h4a2 2 0 012 2v14a2 2 0 01-2 2h-4M10 17l5-5-5-5M15 12H3"/></symbol><symbol id="icon-ui-lock" viewBox="0 0 24 24"><rect x="3" y="11" width="18" height="11" rx="2" ry="2"/><path d="M7 11V7a5 5 0 0110 0v4"/></symbol><symbol id="icon-ui-loader" viewBox="0 0 24 24"><path d="M12 2v4M12 18v4M4.93 4.93l2.83 2.83M16.24 16.24l2.83 2.83M2 12h4M18 12h4M4.93 19.07l2.83-2.83M16.24 7.76l2.83-2.83"/></symbol><symbol id="icon-ui-list" viewBox="0 0 24 24"><path d="M8 6h13M8 12h13M8 18h13M3 6h.01M3 12h.01M3 18h.01"/></symbol><symbol id="icon-ui-linkedin" viewBox="0 0 24 24"><path d="M16 8a6 6 0 016 6v7h-4v-7a2 2 0 00-2-2 2 2 0 00-2 2v7h-4v-7a6 6 0 016-6zM2 9h4v12H2z"/><circle cx="4" cy="4" r="2"/></symbol><symbol id="icon-ui-link" viewBox="0 0 24 24"><path d="M10 13a5 5 0 007.54.54l3-3a5 5 0 00-7.07-7.07l-1.72 1.71"/><path d="M14 11a5 5 0 00-7.54-.54l-3 3a5 5 0 007.07 7.07l1.71-1.71"/></symbol><symbol id="icon-ui-link-2" viewBox="0 0 24 24"><path d="M15 7h3a5 5 0 015 5 5 5 0 01-5 5h-3m-6 0H6a5 5 0 01-5-5 5 5 0 015-5h3M8 12h8"/></symbol><symbol id="icon-ui-life-buoy" viewBox="0 0 24 24"><circle cx="12" cy="12" r="10"/><circle cx="12" cy="12" r="4"/><path d="M4.93 4.93l4.24 4.24M14.83 14.83l4.24 4.24M14.83 9.17l4.24-4.24M14.83 9.17l3.53-3.53M4.93 19.07l4.24-4.24"/></symbol><symbol id="icon-ui-layout" viewBox="0 0 24 24"><rect x="3" y="3" width="18" height="18" rx="2" ry="2"/><path d="M3 9h18M9 21V9"/></symbol><symbol id="icon-ui-layers" viewBox="0 0 24 24"><path d="M12 2L2 7l10 5 10-5-10-5zM2 17l10 5 10-5M2 12l10 5 10-5"/></symbol><symbol id="icon-ui-key" viewBox="0 0 24 24"><path d="M21 2l-2 2m-7.61 7.61a5.5 5.5 0 11-7.778 7.778 5.5 5.5 0 017.777-7.777zm0 0L15.5 7.5m0 0l3 3L22 7l-3-3m-3.5 3.5L19 4"/></symbol><symbol id="icon-ui-italic" viewBox="0 0 24 24"><path d="M19 4h-9M14 20H5M15 4L9 20"/></symbol><symbol id="icon-ui-instagram" viewBox="0 0 24 24"><rect x="2" y="2" width="20" height="20" rx="5" ry="5"/><path d="M16 11.37A4 4 0 1112.63 8 4 4 0 0116 11.37zM17.5 6.5h.01"/></symbol><symbol id="icon-ui-info" viewBox="0 0 24 24"><circle cx="12" cy="12" r="10"/><path d="M12 16v-4M12 8h.01"/></symbol><symbol id="icon-ui-inbox" viewBox="0 0 24 24"><path d="M22 12h-6l-2 3h-4l-2-3H2"/><path d="M5.45 5.11L2 12v6a2 2 0 002 2h16a2 2 0 002-2v-6l-3.45-6.89A2 2 0 0016.76 4H7.24a2 2 0 00-1.79 1.11z"/></symbol><symbol id="icon-ui-image" viewBox="0 0 24 24"><rect x="3" y="3" width="18" height="18" rx="2" ry="2"/><circle cx="8.5" cy="8.5" r="1.5"/><path d="M21 15l-5-5L5 21"/></symbol><symbol id="icon-ui-home" viewBox="0 0 24 24"><path d="M3 9l9-7 9 7v11a2 2 0 01-2 2H5a2 2 0 01-2-2z"/><path d="M9 22V12h6v10"/></symbol><symbol id="icon-ui-hexagon" viewBox="0 0 24 24"><path d="M21 16V8a2 2 0 00-1-1.73l-7-4a2 2 0 00-2 0l-7 4A2 2 0 003 8v8a2 2 0 001 1.73l7 4a2 2 0 002 0l7-4A2 2 0 0021 16z"/></symbol><symbol id="icon-ui-help-circle" viewBox="0 0 24 24"><circle cx="12" cy="12" r="10"/><path d="M9.09 9a3 3 0 015.83 1c0 2-3 3-3 3M12 17h.01"/></symbol><symbol id="icon-ui-heart" viewBox="0 0 24 24"><path d="M20.84 4.61a5.5 5.5 0 00-7.78 0L12 5.67l-1.06-1.06a5.5 5.5 0 00-7.78 7.78l1.06 1.06L12 21.23l7.78-7.78 1.06-1.06a5.5 5.5 0 000-7.78z"/></symbol><symbol id="icon-ui-headphones" viewBox="0 0 24 24"><path d="M3 18v-6a9 9 0 0118 0v6"/><path d="M21 19a2 2 0 01-2 2h-1a2 2 0 01-2-2v-3a2 2 0 012-2h3zM3 19a2 2 0 002 2h1a2 2 0 002-2v-3a2 2 0 00-2-2H3z"/></symbol><symbol id="icon-ui-hash" viewBox="0 0 24 24"><path d="M4 9h16M4 15h16M10 3L8 21M16 3l-2 18"/></symbol><symbol id="icon-ui-hard-drive" viewBox="0 0 24 24"><path d="M22 12H2M5.45 5.11L2 12v6a2 2 0 002 2h16a2 2 0 002-2v-6l-3.45-6.89A2 2 0 0016.76 4H7.24a2 2 0 00-1.79 1.11zM6 16h.01M10 16h.01"/></symbol><symbol id="icon-ui-grid" viewBox="0 0 24 24"><path d="M3 3h7v7H3zM14 3h7v7h-7zM14 14h7v7h-7zM3 14h7v7H3z"/></symbol><symbol id="icon-ui-globe" viewBox="0 0 24 24"><circle cx="12" cy="12" r="10"/><path d="M2 12h20M12 2a15.3 15.3 0 014 10 15.3 15.3 0 01-4 10 15.3 15.3 0 01-4-10 15.3 15.3 0 014-10z"/></symbol><symbol id="icon-ui-gitlab" viewBox="0 0 24 24"><path d="M22.65 14.39L12 22.13 1.35 14.39a.84.84 0 01-.3-.94l1.22-3.78 2.44-7.51A.42.42 0 014.82 2a.43.43 0 01.58 0 .42.42 0 01.11.18l2.44 7.49h8.1l2.44-7.51A.42.42 0 0118.6 2a.43.43 0 01.58 0 .42.42 0 01.11.18l2.44 7.51L23 13.45a.84.84 0 01-.35.94z"/></symbol><symbol id="icon-ui-github" viewBox="0 0 24 24"><path d="M9 19c-5 1.5-5-2.5-7-3m14 6v-3.87a3.37 3.37 0 00-.94-2.61c3.14-.35 6.44-1.54 6.44-7A5.44 5.44 0 0020 4.77 5.07 5.07 0 0019.91 1S18.73.65 16 2.48a13.38 13.38 0 00-7 0C6.27.65 5.09 1 5.09 1A5.07 5.07 0 005 4.77a5.44 5.44 0 00-1.5 3.78c0 5.42 3.3 6.61 6.44 7A3.37 3.37 0 009 18.13V22"/></symbol><symbol id="icon-ui-git-pull-request" viewBox="0 0 24 24"><circle cx="18" cy="18" r="3"/><circle cx="6" cy="6" r="3"/><path d="M13 6h3a2 2 0 012 2v7M6 9v12"/></symbol><symbol id="icon-ui-git-merge" viewBox="0 0 24 24"><circle cx="18" cy="18" r="3"/><circle cx="6" cy="6" r="3"/><path d="M6 21V9a9 9 0 009 9"/></symbol><symbol id="icon-ui-git-commit" viewBox="0 0 24 24"><circle cx="12" cy="12" r="4"/><path d="M1.05 12H7M17.01 12h5.95"/></symbol><symbol id="icon-ui-git-branch" viewBox="0 0 24 24"><path d="M6 3v12"/><circle cx="18" cy="6" r="3"/><circle cx="6" cy="18" r="3"/><path d="M18 9a9 9 0 01-9 9"/></symbol><symbol id="icon-ui-gift" viewBox="0 0 24 24"><path d="M20 12v10H4V12M2 7h20v5H2zM12 22V7M12 7H7.5a2.5 2.5 0 010-5C11 2 12 7 12 7zM12 7h4.5a2.5 2.5 0 000-5C13 2 12 7 12 7z"/></symbol><symbol id="icon-ui-frown" viewBox="0 0 24 24"><circle cx="12" cy="12" r="10"/><path d="M16 16s-1.5-2-4-2-4 2-4 2M9 9h.01M15 9h.01"/></symbol><symbol id="icon-ui-framer" viewBox="0 0 24 24"><path d="M5 16V9h14V2H5l14 14h-7m-7 0l7 7v-7m-7 0h7"/></symbol><symbol id="icon-ui-folder" viewBox="0 0 24 24"><path d="M22 19a2 2 0 01-2 2H4a2 2 0 01-2-2V5a2 2 0 012-2h5l2 3h9a2 2 0 012 2z"/></symbol><symbol id="icon-ui-folder-plus" viewBox="0 0 24 24"><path d="M22 19a2 2 0 01-2 2H4a2 2 0 01-2-2V5a2 2 0 012-2h5l2 3h9a2 2 0 012 2zM12 11v6M9 14h6"/></symbol><symbol id="icon-ui-folder-minus" viewBox="0 0 24 24"><path d="M22 19a2 2 0 01-2 2H4a2 2 0 01-2-2V5a2 2 0 012-2h5l2 3h9a2 2 0 012 2zM9 14h6"/></symbol><symbol id="icon-ui-flag" viewBox="0 0 24 24"><path d="M4 15s1-1 4-1 5 2 8 2 4-1 4-1V3s-1 1-4 1-5-2-8-2-4 1-4 1zM4 22v-7"/></symbol><symbol id="icon-ui-filter" viewBox="0 0 24 24"><path d="M22 3H2l8 9.46V19l4 2v-8.54L22 3z"/></symbol><symbol id="icon-ui-film" viewBox="0 0 24 24"><rect x="2" y="2" width="20" height="20" rx="2.18" ry="2.18"/><path d="M7 2v20M17 2v20M2 12h20M2 7h5M2 17h5M17 17h5M17 7h5"/></symbol><symbol id="icon-ui-file" viewBox="0 0 24 24"><path d="M13 2H6a2 2 0 00-2 2v16a2 2 0 002 2h12a2 2 0 002-2V9z"/><path d="M13 2v7h7"/></symbol><symbol id="icon-ui-file-text" viewBox="0 0 24 24"><path d="M14 2H6a2 2 0 00-2 2v16a2 2 0 002 2h12a2 2 0 002-2V8z"/><path d="M14 2v6h6M16 13H8M16 17H8M10 9H8"/></symbol><symbol id="icon-ui-file-plus" viewBox="0 0 24 24"><path d="M14 2H6a2 2 0 00-2 2v16a2 2 0 002 2h12a2 2 0 002-2V8z"/><path d="M14 2v6h6M12 18v-6M9 15h6"/></symbol><symbol id="icon-ui-file-minus" viewBox="0 0 24 24"><path d="M14 2H6a2 2 0 00-2 2v16a2 2 0 002 2h12a2 2 0 002-2V8z"/><path d="M14 2v6h6M9 15h6"/></symbol><symbol id="icon-ui-figma" viewBox="0 0 24 24"><path d="M5 5.5A3.5 3.5 0 018.5 2H12v7H8.5A3.5 3.5 0 015 5.5zM12 2h3.5a3.5 3.5 0 110 7H12V2z"/><path d="M12 12.5a3.5 3.5 0 117 0 3.5 3.5 0 11-7 0zM5 19.5A3.5 3.5 0 018.5 16H12v3.5a3.5 3.5 0 11-7 0zM5 12.5A3.5 3.5 0 018.5 9H12v7H8.5A3.5 3.5 0 015 12.5z"/></symbol><symbol id="icon-ui-feather" viewBox="0 0 24 24"><path d="M20.24 12.24a6 6 0 00-8.49-8.49L5 10.5V19h8.5zM16 8L2 22M17.5 15H9"/></symbol><symbol id="icon-ui-fast-forward" viewBox="0 0 24 24"><path d="M13 19l9-7-9-7v14zM2 19l9-7-9-7v14z"/></symbol><symbol id="icon-ui-facebook" viewBox="0 0 24 24"><path d="M18 2h-3a5 5 0 00-5 5v3H7v4h3v8h4v-8h3l1-4h-4V7a1 1 0 011-1h3z"/></symbol><symbol id="icon-ui-eye" viewBox="0 0 24 24"><path d="M1 12s4-8 11-8 11 8 11 8-4 8-11 8-11-8-11-8z"/><circle cx="12" cy="12" r="3"/></symbol><symbol id="icon-ui-eye-off" viewBox="0 0 24 24"><path d="M17.94 17.94A10.07 10.07 0 0112 20c-7 0-11-8-11-8a18.45 18.45 0 015.06-5.94M9.9 4.24A9.12 9.12 0 0112 4c7 0 11 8 11 8a18.5 18.5 0 01-2.16 3.19m-6.72-1.07a3 3 0 11-4.24-4.24M1 1l22 22"/></symbol><symbol id="icon-ui-external-link" viewBox="0 0 24 24"><path d="M18 13v6a2 2 0 01-2 2H5a2 2 0 01-2-2V8a2 2 0 012-2h6M15 3h6v6M10 14L21 3"/></symbol><symbol id="icon-ui-edit" viewBox="0 0 24 24"><path d="M11 4H4a2 2 0 00-2 2v14a2 2 0 002 2h14a2 2 0 002-2v-7"/><path d="M18.5 2.5a2.121 2.121 0 013 3L12 15l-4 1 1-4 9.5-9.5z"/></symbol><symbol id="icon-ui-edit-3" viewBox="0 0 24 24"><path d="M12 20h9M16.5 3.5a2.121 2.121 0 013 3L7 19l-4 1 1-4L16.5 3.5z"/></symbol><symbol id="icon-ui-edit-2" viewBox="0 0 24 24"><path d="M17 3a2.828 2.828 0 114 4L7.5 20.5 2 22l1.5-5.5L17 3z"/></symbol><symbol id="icon-ui-droplet" viewBox="0 0 24 24"><path d="M12 2.69l5.66 5.66a8 8 0 11-11.31 0z"/></symbol><symbol id="icon-ui-download" viewBox="0 0 24 24"><path d="M21 15v4a2 2 0 01-2 2H5a2 2 0 01-2-2v-4M7 10l5 5 5-5M12 15V3"/></symbol><symbol id="icon-ui-download-cloud" viewBox="0 0 24 24"><path d="M8 17l4 4 4-4M12 12v9"/><path d="M20.88 18.09A5 5 0 0018 9h-1.26A8 8 0 103 16.29"/></symbol><symbol id="icon-ui-dollar-sign" viewBox="0 0 24 24"><path d="M12 1v22M17 5H9.5a3.5 3.5 0 000 7h5a3.5 3.5 0 010 7H6"/></symbol><symbol id="icon-ui-disc" viewBox="0 0 24 24"><circle cx="12" cy="12" r="10"/><circle cx="12" cy="12" r="3"/></symbol><symbol id="icon-ui-delete" viewBox="0 0 24 24"><path d="M21 4H8l-7 8 7 8h13a2 2 0 002-2V6a2 2 0 00-2-2zM18 9l-6 6M12 9l6 6"/></symbol><symbol id="icon-ui-database" viewBox="0 0 24 24"><ellipse cx="12" cy="5" rx="9" ry="3"/><path d="M21 12c0 1.66-4 3-9 3s-9-1.34-9-3"/><path d="M3 5v14c0 1.66 4 3 9 3s9-1.34 9-3V5"/></symbol><symbol id="icon-ui-crosshair" viewBox="0 0 24 24"><circle cx="12" cy="12" r="10"/><path d="M22 12h-4M6 12H2M12 6V2M12 22v-4"/></symbol><symbol id="icon-ui-crop" viewBox="0 0 24 24"><path d="M6.13 1L6 16a2 2 0 002 2h15"/><path d="M1 6.13L16 6a2 2 0 012 2v15"/></symbol><symbol id="icon-ui-credit-card" viewBox="0 0 24 24"><rect x="1" y="4" width="22" height="16" rx="2" ry="2"/><path d="M1 10h22"/></symbol><symbol id="icon-ui-cpu" viewBox="0 0 24 24"><rect x="4" y="4" width="16" height="16" rx="2" ry="2"/><path d="M9 9h6v6H9zM9 1v3M15 1v3M9 20v3M15 20v3M20 9h3M20 14h3M1 9h3M1 14h3"/></symbol><symbol id="icon-ui-corner-up-right" viewBox="0 0 24 24"><path d="M15 14l5-5-5-5"/><path d="M4 20v-7a4 4 0 014-4h12"/></symbol><symbol id="icon-ui-corner-up-left" viewBox="0 0 24 24"><path d="M9 14L4 9l5-5"/><path d="M20 20v-7a4 4 0 00-4-4H4"/></symbol><symbol id="icon-ui-corner-right-up" viewBox="0 0 24 24"><path d="M10 9l5-5 5 5"/><path d="M4 20h7a4 4 0 004-4V4"/></symbol><symbol id="icon-ui-corner-right-down" viewBox="0 0 24 24"><path d="M10 15l5 5 5-5"/><path d="M4 4h7a4 4 0 014 4v12"/></symbol><symbol id="icon-ui-corner-left-up" viewBox="0 0 24 24"><path d="M14 9L9 4 4 9"/><path d="M20 20h-7a4 4 0 01-4-4V4"/></symbol><symbol id="icon-ui-corner-left-down" viewBox="0 0 24 24"><path d="M14 15l-5 5-5-5"/><path d="M20 4h-7a4 4 0 00-4 4v12"/></symbol><symbol id="icon-ui-corner-down-right" viewBox="0 0 24 24"><path d="M15 10l5 5-5 5"/><path d="M4 4v7a4 4 0 004 4h12"/></symbol><symbol id="icon-ui-corner-down-left" viewBox="0 0 24 24"><path d="M9 10l-5 5 5 5"/><path d="M20 4v7a4 4 0 01-4 4H4"/></symbol><symbol id="icon-ui-copy" viewBox="0 0 24 24"><rect x="9" y="9" width="13" height="13" rx="2" ry="2"/><path d="M5 15H4a2 2 0 01-2-2V4a2 2 0 012-2h9a2 2 0 012 2v1"/></symbol><symbol id="icon-ui-compass" viewBox="0 0 24 24"><circle cx="12" cy="12" r="10"/><path d="M16.24 7.76l-2.12 6.36-6.36 2.12 2.12-6.36 6.36-2.12z"/></symbol><symbol id="icon-ui-command" viewBox="0 0 24 24"><path d="M18 3a3 3 0 00-3 3v12a3 3 0 003 3 3 3 0 003-3 3 3 0 00-3-3H6a3 3 0 00-3 3 3 3 0 003 3 3 3 0 003-3V6a3 3 0 00-3-3 3 3 0 00-3 3 3 3 0 003 3h12a3 3 0 003-3 3 3 0 00-3-3z"/></symbol><symbol id="icon-ui-columns" viewBox="0 0 24 24"><path d="M12 3h7a2 2 0 012 2v14a2 2 0 01-2 2h-7m0-18H5a2 2 0 00-2 2v14a2 2 0 002 2h7m0-18v18"/></symbol><symbol id="icon-ui-coffee" viewBox="0 0 24 24"><path d="M18 8h1a4 4 0 010 8h-1M2 8h16v9a4 4 0 01-4 4H6a4 4 0 01-4-4V8zM6 1v3M10 1v3M14 1v3"/></symbol><symbol id="icon-ui-codesandbox" viewBox="0 0 24 24"><path d="M21 16V8a2 2 0 00-1-1.73l-7-4a2 2 0 00-2 0l-7 4A2 2 0 003 8v8a2 2 0 001 1.73l7 4a2 2 0 002 0l7-4A2 2 0 0021 16z"/><path d="M7.5 4.21l4.5 2.6 4.5-2.6M7.5 19.79V14.6L3 12M21 12l-4.5 2.6v5.19M3.27 6.96L12 12.01l8.73-5.05M12 22.08V12"/></symbol><symbol id="icon-ui-codepen" viewBox="0 0 24 24"><path d="M12 2l10 6.5v7L12 22 2 15.5v-7L12 2zM12 22v-6.5"/><path d="M22 8.5l-10 7-10-7"/><path d="M2 15.5l10-7 10 7M12 2v6.5"/></symbol><symbol id="icon-ui-code" viewBox="0 0 24 24"><path d="M16 18l6-6-6-6M8 6l-6 6 6 6"/></symbol><symbol id="icon-ui-cloud" viewBox="0 0 24 24"><path d="M18 10h-1.26A8 8 0 109 20h9a5 5 0 000-10z"/></symbol><symbol id="icon-ui-cloud-snow" viewBox="0 0 24 24"><path d="M20 17.58A5 5 0 0018 8h-1.26A8 8 0 104 16.25M8 16h.01M8 20h.01M12 18h.01M12 22h.01M16 16h.01M16 20h.01"/></symbol><symbol id="icon-ui-cloud-rain" viewBox="0 0 24 24"><path d="M16 13v8M8 13v8M12 15v8M20 16.58A5 5 0 0018 7h-1.26A8 8 0 104 15.25"/></symbol><symbol id="icon-ui-cloud-off" viewBox="0 0 24 24"><path d="M22.61 16.95A5 5 0 0018 10h-1.26a8 8 0 00-7.05-6M5 5a8 8 0 004 15h9a5 5 0 001.7-.3M1 1l22 22"/></symbol><symbol id="icon-ui-cloud-lightning" viewBox="0 0 24 24"><path d="M19 16.9A5 5 0 0018 7h-1.26a8 8 0 10-11.62 9"/><path d="M13 11l-4 6h6l-4 6"/></symbol><symbol id="icon-ui-cloud-drizzle" viewBox="0 0 24 24"><path d="M8 19v2M8 13v2M16 19v2M16 13v2M12 21v2M12 15v2M20 16.58A5 5 0 0018 7h-1.26A8 8 0 104 15.25"/></symbol><symbol id="icon-ui-clock" viewBox="0 0 24 24"><circle cx="12" cy="12" r="10"/><path d="M12 6v6l4 2"/></symbol><symbol id="icon-ui-clipboard" viewBox="0 0 24 24"><path d="M16 4h2a2 2 0 012 2v14a2 2 0 01-2 2H6a2 2 0 01-2-2V6a2 2 0 012-2h2"/><rect x="8" y="2" width="8" height="4" rx="1" ry="1"/></symbol><symbol id="icon-ui-circle" viewBox="0 0 24 24"><circle cx="12" cy="12" r="10"/></symbol><symbol id="icon-ui-chrome" viewBox="0 0 24 24"><circle cx="12" cy="12" r="10"/><circle cx="12" cy="12" r="4"/><path d="M21.17 8H12M3.95 6.06L8.54 14M10.88 21.94L15.46 14"/></symbol><symbol id="icon-ui-chevrons-up" viewBox="0 0 24 24"><path d="M17 11l-5-5-5 5M17 18l-5-5-5 5"/></symbol><symbol id="icon-ui-chevrons-right" viewBox="0 0 24 24"><path d="M13 17l5-5-5-5M6 17l5-5-5-5"/></symbol><symbol id="icon-ui-chevrons-left" viewBox="0 0 24 24"><path d="M11 17l-5-5 5-5M18 17l-5-5 5-5"/></symbol><symbol id="icon-ui-chevrons-down" viewBox="0 0 24 24"><path d="M7 13l5 5 5-5M7 6l5 5 5-5"/></symbol><symbol id="icon-ui-chevron-up" viewBox="0 0 24 24"><path d="M18 15l-6-6-6 6"/></symbol><symbol id="icon-ui-chevron-right" viewBox="0 0 24 24"><path d="M9 18l6-6-6-6"/></symbol><symbol id="icon-ui-chevron-left" viewBox="0 0 24 24"><path d="M15 18l-6-6 6-6"/></symbol><symbol id="icon-ui-chevron-down" viewBox="0 0 24 24"><path d="M6 9l6 6 6-6"/></symbol><symbol id="icon-ui-chevron-down-white" viewBox="0 0 24 24"><path stroke="#FFF" d="M6 9l6 6 6-6"/></symbol><symbol id="icon-ui-chevron-down-red" viewBox="0 0 24 24"><path stroke="#F2695D" d="M6 9l6 6 6-6"/></symbol><symbol id="icon-ui-chevron-down-navy" viewBox="0 0 24 24"><path stroke="#031553" d="M6 9l6 6 6-6"/></symbol><symbol id="icon-ui-check" viewBox="0 0 24 24"><path d="M20 6L9 17l-5-5"/></symbol><symbol id="icon-ui-check-white" viewBox="0 0 24 24"><path stroke="#FFF" d="M20 6L9 17l-5-5"/></symbol><symbol id="icon-ui-check-square" viewBox="0 0 24 24"><path d="M9 11l3 3L22 4"/><path d="M21 12v7a2 2 0 01-2 2H5a2 2 0 01-2-2V5a2 2 0 012-2h11"/></symbol><symbol id="icon-ui-check-red" viewBox="0 0 24 24"><path stroke="#F2695D" d="M20 6L9 17l-5-5"/></symbol><symbol id="icon-ui-check-navy" viewBox="0 0 24 24"><path stroke="#031553" d="M20 6L9 17l-5-5"/></symbol><symbol id="icon-ui-check-circle" viewBox="0 0 24 24"><path d="M22 11.08V12a10 10 0 11-5.93-9.14"/><path d="M22 4L12 14.01l-3-3"/></symbol><symbol id="icon-ui-cast" viewBox="0 0 24 24"><path d="M2 16.1A5 5 0 015.9 20M2 12.05A9 9 0 019.95 20M2 8V6a2 2 0 012-2h16a2 2 0 012 2v12a2 2 0 01-2 2h-6M2 20h.01"/></symbol><symbol id="icon-ui-camera" viewBox="0 0 24 24"><path d="M23 19a2 2 0 01-2 2H3a2 2 0 01-2-2V8a2 2 0 012-2h4l2-3h6l2 3h4a2 2 0 012 2z"/><circle cx="12" cy="13" r="4"/></symbol><symbol id="icon-ui-camera-off" viewBox="0 0 24 24"><path d="M1 1l22 22M21 21H3a2 2 0 01-2-2V8a2 2 0 012-2h3m3-3h6l2 3h4a2 2 0 012 2v9.34m-7.72-2.06a4 4 0 11-5.56-5.56"/></symbol><symbol id="icon-ui-calendar" viewBox="0 0 24 24"><rect x="3" y="4" width="18" height="18" rx="2" ry="2"/><path d="M16 2v4M8 2v4M3 10h18"/></symbol><symbol id="icon-ui-briefcase" viewBox="0 0 24 24"><rect x="2" y="7" width="20" height="14" rx="2" ry="2"/><path d="M16 21V5a2 2 0 00-2-2h-4a2 2 0 00-2 2v16"/></symbol><symbol id="icon-ui-box" viewBox="0 0 24 24"><path d="M21 16V8a2 2 0 00-1-1.73l-7-4a2 2 0 00-2 0l-7 4A2 2 0 003 8v8a2 2 0 001 1.73l7 4a2 2 0 002 0l7-4A2 2 0 0021 16z"/><path d="M3.27 6.96L12 12.01l8.73-5.05M12 22.08V12"/></symbol><symbol id="icon-ui-bookmark" viewBox="0 0 24 24"><path d="M19 21l-7-5-7 5V5a2 2 0 012-2h10a2 2 0 012 2z"/></symbol><symbol id="icon-ui-book" viewBox="0 0 24 24"><path d="M4 19.5A2.5 2.5 0 016.5 17H20"/><path d="M6.5 2H20v20H6.5A2.5 2.5 0 014 19.5v-15A2.5 2.5 0 016.5 2z"/></symbol><symbol id="icon-ui-book-open" viewBox="0 0 24 24"><path d="M2 3h6a4 4 0 014 4v14a3 3 0 00-3-3H2zM22 3h-6a4 4 0 00-4 4v14a3 3 0 013-3h7z"/></symbol><symbol id="icon-ui-bold" viewBox="0 0 24 24"><path d="M6 4h8a4 4 0 014 4 4 4 0 01-4 4H6zM6 12h9a4 4 0 014 4 4 4 0 01-4 4H6z"/></symbol><symbol id="icon-ui-bluetooth" viewBox="0 0 24 24"><path d="M6.5 6.5l11 11L12 23V1l5.5 5.5-11 11"/></symbol><symbol id="icon-ui-bell" viewBox="0 0 24 24"><path d="M18 8A6 6 0 006 8c0 7-3 9-3 9h18s-3-2-3-9M13.73 21a2 2 0 01-3.46 0"/></symbol><symbol id="icon-ui-bell-off" viewBox="0 0 24 24"><path d="M13.73 21a2 2 0 01-3.46 0M18.63 13A17.89 17.89 0 0118 8M6.26 6.26A5.86 5.86 0 006 8c0 7-3 9-3 9h14M18 8a6 6 0 00-9.33-5M1 1l22 22"/></symbol><symbol id="icon-ui-battery" viewBox="0 0 24 24"><rect x="1" y="6" width="18" height="12" rx="2" ry="2"/><path d="M23 13v-2"/></symbol><symbol id="icon-ui-battery-charging" viewBox="0 0 24 24"><path d="M5 18H3a2 2 0 01-2-2V8a2 2 0 012-2h3.19M15 6h2a2 2 0 012 2v8a2 2 0 01-2 2h-3.19M23 13v-2M11 6l-4 6h6l-4 6"/></symbol><symbol id="icon-ui-bar-chart" viewBox="0 0 24 24"><path d="M12 20V10M18 20V4M6 20v-4"/></symbol><symbol id="icon-ui-bar-chart-2" viewBox="0 0 24 24"><path d="M18 20V10M12 20V4M6 20v-6"/></symbol><symbol id="icon-ui-award" viewBox="0 0 24 24"><circle cx="12" cy="8" r="7"/><path d="M8.21 13.89L7 23l5-3 5 3-1.21-9.12"/></symbol><symbol id="icon-ui-at-sign" viewBox="0 0 24 24"><circle cx="12" cy="12" r="4"/><path d="M16 8v5a3 3 0 006 0v-1a10 10 0 10-3.92 7.94"/></symbol><symbol id="icon-ui-arrow-up" viewBox="0 0 24 24"><path d="M12 19V5M5 12l7-7 7 7"/></symbol><symbol id="icon-ui-arrow-up-right" viewBox="0 0 24 24"><path d="M7 17L17 7M7 7h10v10"/></symbol><symbol id="icon-ui-arrow-up-left" viewBox="0 0 24 24"><path d="M17 17L7 7M7 17V7h10"/></symbol><symbol id="icon-ui-arrow-up-circle" viewBox="0 0 24 24"><circle cx="12" cy="12" r="10"/><path d="M16 12l-4-4-4 4M12 16V8"/></symbol><symbol id="icon-ui-arrow-right" viewBox="0 0 24 24"><path d="M5 12h14M12 5l7 7-7 7"/></symbol><symbol id="icon-ui-arrow-right-circle" viewBox="0 0 24 24"><circle cx="12" cy="12" r="10"/><path d="M12 16l4-4-4-4M8 12h8"/></symbol><symbol id="icon-ui-arrow-left" viewBox="0 0 24 24"><path d="M19 12H5M12 19l-7-7 7-7"/></symbol><symbol id="icon-ui-arrow-left-circle" viewBox="0 0 24 24"><circle cx="12" cy="12" r="10"/><path d="M12 8l-4 4 4 4M16 12H8"/></symbol><symbol id="icon-ui-arrow-down" viewBox="0 0 24 24"><path d="M12 5v14M19 12l-7 7-7-7"/></symbol><symbol id="icon-ui-arrow-down-right" viewBox="0 0 24 24"><path d="M7 7l10 10M17 7v10H7"/></symbol><symbol id="icon-ui-arrow-down-left" viewBox="0 0 24 24"><path d="M17 7L7 17M17 17H7V7"/></symbol><symbol id="icon-ui-arrow-down-circle" viewBox="0 0 24 24"><circle cx="12" cy="12" r="10"/><path d="M8 12l4 4 4-4M12 8v8"/></symbol><symbol id="icon-ui-archive" viewBox="0 0 24 24"><path d="M21 8v13H3V8M1 3h22v5H1zM10 12h4"/></symbol><symbol id="icon-ui-aperture" viewBox="0 0 24 24"><circle cx="12" cy="12" r="10"/><path d="M14.31 8l5.74 9.94M9.69 8h11.48M7.38 12l5.74-9.94M9.69 16L3.95 6.06M14.31 16H2.83M16.62 12l-5.74 9.94"/></symbol><symbol id="icon-ui-anchor" viewBox="0 0 24 24"><circle cx="12" cy="5" r="3"/><path d="M12 22V8M5 12H2a10 10 0 0020 0h-3"/></symbol><symbol id="icon-ui-align-right" viewBox="0 0 24 24"><path d="M21 10H7M21 6H3M21 14H3M21 18H7"/></symbol><symbol id="icon-ui-align-left" viewBox="0 0 24 24"><path d="M17 10H3M21 6H3M21 14H3M17 18H3"/></symbol><symbol id="icon-ui-align-justify" viewBox="0 0 24 24"><path d="M21 10H3M21 6H3M21 14H3M21 18H3"/></symbol><symbol id="icon-ui-align-center" viewBox="0 0 24 24"><path d="M18 10H6M21 6H3M21 14H3M18 18H6"/></symbol><symbol id="icon-ui-alert-triangle" viewBox="0 0 24 24"><path d="M10.29 3.86L1.82 18a2 2 0 001.71 3h16.94a2 2 0 001.71-3L13.71 3.86a2 2 0 00-3.42 0zM12 9v4M12 17h.01"/></symbol><symbol id="icon-ui-alert-octagon" viewBox="0 0 24 24"><path d="M7.86 2h8.28L22 7.86v8.28L16.14 22H7.86L2 16.14V7.86L7.86 2zM12 8v4M12 16h.01"/></symbol><symbol id="icon-ui-alert-circle" viewBox="0 0 24 24"><circle cx="12" cy="12" r="10"/><path d="M12 8v4M12 16h.01"/></symbol><symbol id="icon-ui-airplay" viewBox="0 0 24 24"><path d="M5 17H4a2 2 0 01-2-2V5a2 2 0 012-2h16a2 2 0 012 2v10a2 2 0 01-2 2h-1"/><path d="M12 15l5 6H7l5-6z"/></symbol><symbol id="icon-ui-activity" viewBox="0 0 24 24"><path d="M22 12h-4l-3 9L9 3l-3 9H2"/></symbol><symbol id="icon-logo-secondary" viewBox="0 0 692 121"><g fill="currentColor" fill-rule="nonzero"><path d="M367.84 53.03l7.82-7.38V23.23L352.2.81h-78.18l-23.45 22.42V8.29L242.75.81h-31.28l-7.81 7.48v14.94l-15.63 14.95-15.64-14.95V8.29L164.57.81H133.3l-7.82 7.48-7.82-7.48H86.39l-7.82 7.48v29.89L39.48.81H8.21L.38 8.29v104.62l7.83 7.47h31.27l7.81-7.47V83.02l39.1 37.36h31.27l7.82-7.47V53.12l39.09 37.37v22.42l7.82 7.47h31.27l7.81-7.47V90.49l39.1-37.37v44.84l23.45 22.42h78.18l23.46-22.42V75.54l-7.82-7.48h-39.09v7.48h-31.27V45.65h31.27v7.38zM391 3.33h11.49l5.16 20h.08l5.16-20h11.49v30h-7.34V10.54H417l-6.3 22.74h-6l-6.29-22.74h-.08v22.74H391zM429.23 18.22a6.62 6.62 0 013.4-5.83 13.9 13.9 0 016.92-1.51c5.16 0 10.15 1.13 10.15 7.3v9.52a12.69 12.69 0 00.84 5.58h-7.17a8.32 8.32 0 01-.42-2.06 9.6 9.6 0 01-7.18 2.68c-4.2 0-7.42-2.1-7.42-6.59 0-7 7.72-6.54 12.67-7.55 1.22-.29 1.88-.67 1.88-2 0-1.64-2-2.26-3.44-2.26-2.06 0-3.23.92-3.57 2.73l-6.66-.01zm9.23 11.28c3.4 0 4.53-1.89 4.36-6.42-1 .63-2.85.71-4.4 1.17-1.55.46-2.94 1-2.94 2.77s1.35 2.48 2.98 2.48zM466.26 35.21c-1.68 4.78-4.32 5.37-9.1 5.37h-3.36v-5.79h2.48c1.64 0 2.85-.92 2.85-2.43 0-1.18-1.38-4.53-1.8-5.7l-5.62-15.14h7.55l4.11 14.18h.09l4.11-14.18h7.3l-8.61 23.69zM487.32 10.88a11.16 11.16 0 0111.49 11.54c0 6.335-5.135 11.47-11.47 11.47-6.335 0-11.47-5.135-11.47-11.47a11.13 11.13 0 0111.45-11.54zm0 17.58c3.35 0 4.36-3.23 4.36-6s-1-6.08-4.36-6.08c-3.36 0-4.32 3.27-4.32 6.03 0 2.76 1 6.04 4.32 6.04v.01zM502.79 11.51h6.92v3.82h.09a6.51 6.51 0 016.54-4.24 7.61 7.61 0 011.68.17v6.5a8.79 8.79 0 00-2.73-.42 5 5 0 00-5.37 5.16v10.78h-7.13V11.51zM520.91 3.33h6.67v7c0 4.19-2.1 7.34-6.67 8.14v-3.4a3.69 3.69 0 003-3.94h-3v-7.8zM538.35 26.11a2.87 2.87 0 001.17 2.43 4.46 4.46 0 002.64.76c1.34 0 3.36-.63 3.36-2.31 0-1.68-2.27-2-3.48-2.31-4.49-1.13-10.11-1.26-10.11-7.13 0-5.2 5.66-6.67 9.94-6.67 4.74 0 9.82 1.38 10 7h-6.58a2 2 0 00-.92-1.89 3.94 3.94 0 00-2.27-.55c-1.17 0-3.06.13-3.06 1.64 0 2 4.78 2.48 8.05 3.15 4.36.88 5.54 4.07 5.54 5.87 0 5.83-5.54 7.76-10.44 7.76-5.2 0-10.45-1.72-10.66-7.8l6.82.05zM583.27 2.7c9.4 0 14.77 6.92 14.77 15.6s-5.37 15.6-14.77 15.6c-9.4 0-14.77-6.9-14.77-15.6s5.37-15.6 14.77-15.6zm0 24.5c5 0 7-4.4 7-8.89s-1.93-8.89-7-8.89-7 4.4-7 8.89 1.97 8.89 7 8.89zM603.52 16.12h-3.44v-4.61h3.44c0-6.25 2.18-8.18 8.27-8.18 1.13 0 2.31.08 3.44.13v5a15.3 15.3 0 00-1.93-.13c-1.63 0-2.64.21-2.64 2.18v1h4.28v4.61h-4.28v17.16h-7.13l-.01-17.16zM619 16.12h-3.4v-4.61h3.4c0-6.25 2.18-8.18 8.26-8.18 1.13 0 2.31.08 3.44.13v5a15.34 15.34 0 00-1.93-.13c-1.63 0-2.64.21-2.64 2.18v1h4.28v4.61h-4.28v17.16H619V16.12zm20.6-7.34h-7.1V3.33h7.13l-.03 5.45zm-7.13 2.73h7.13v21.77h-7.1l-.03-21.77zM658.84 19.48a3.33 3.33 0 00-3.48-3.15c-4 0-4.61 3.4-4.61 6.42 0 2.81 1.22 5.7 4.24 5.7 2.52 0 3.73-1.38 4.07-3.73H666c-.67 5.87-5.12 9.19-10.95 9.19-6.54 0-11.41-4.45-11.41-11.16 0-6.92 4.4-11.87 11.41-11.87 5.45 0 10.19 2.89 10.74 8.6h-6.95zM675.61 24.13c.13 3 1.85 5 4.87 5a4.18 4.18 0 004.07-2.39h6.67c-1.34 5-6 7.22-10.82 7.22-7.09 0-11.91-4.28-11.91-11.58a11.43 11.43 0 0111.74-11.45c7.8 0 11.71 5.87 11.37 13.26l-15.99-.06zm8.85-4a4.38 4.38 0 00-4.24-4.45c-2.52 0-4.15 1.76-4.61 4.45h8.85zM392.24 56h-3.44v-4.65h3.44c0-6.25 2.18-8.18 8.26-8.18 1.13 0 2.31.08 3.44.13v5a15.34 15.34 0 00-1.94-.1c-1.63 0-2.64.21-2.64 2.18v1h4.28V56h-4.28v17.12h-7.13l.01-17.12zM416.61 50.72a11.16 11.16 0 0111.49 11.54c0 6.337-5.138 11.475-11.475 11.475S405.15 68.597 405.15 62.26a11.13 11.13 0 0111.46-11.54zm0 17.58c3.36 0 4.36-3.23 4.36-6s-1-6.08-4.36-6.08c-3.36 0-4.32 3.31-4.32 6.08s1.01 6 4.32 6zM432.08 51.35H439v3.82h.08a6.52 6.52 0 016.55-4.24 7.6 7.6 0 011.68.17v6.5a8.78 8.78 0 00-2.73-.42 5 5 0 00-5.37 5.16v10.78h-7.13V51.35zM463.2 43.17h23.87v6.25H471v5.24h14.68v6H471v5.7h16.49v6.71H463.2zM505.81 59.32a3.33 3.33 0 00-3.48-3.15c-4 0-4.61 3.4-4.61 6.42 0 2.81 1.22 5.7 4.24 5.7 2.52 0 3.73-1.38 4.07-3.73h6.92c-.67 5.87-5.12 9.19-10.95 9.19-6.54 0-11.41-4.45-11.41-11.16 0-6.92 4.4-11.87 11.41-11.87 5.45 0 10.19 2.89 10.74 8.6h-6.93zM526.91 50.72a11.16 11.16 0 0111.49 11.54c0 6.337-5.138 11.475-11.475 11.475S515.45 68.597 515.45 62.26a11.13 11.13 0 0111.46-11.54zm0 17.58c3.36 0 4.36-3.23 4.36-6s-1-6.08-4.36-6.08c-3.36 0-4.32 3.31-4.32 6.08s1 6 4.32 6zM542.13 51.35H549v3h.08a8.28 8.28 0 016.92-3.63c7.26 0 7.84 5.29 7.84 8.43v14h-7.13V60.41c0-2.1-.71-3.82-3.56-3.82-2.68 0-3.86 2.31-3.86 4.66v11.87h-7.13l-.03-21.77zM578.95 50.72a11.16 11.16 0 0111.49 11.54c0 6.337-5.138 11.475-11.475 11.475S567.49 68.597 567.49 62.26a11.13 11.13 0 0111.46-11.54zm0 17.58c3.35 0 4.36-3.23 4.36-6s-1-6.08-4.36-6.08c-3.36 0-4.32 3.31-4.32 6.08s1 6 4.32 6zM594.17 51.35h6.92v3h.09a7.2 7.2 0 016.25-3.61c2.73 0 5.16.88 6.33 3.52a7.83 7.83 0 016.8-3.52c6.92 0 7.68 5.24 7.68 9.4v13h-7.14V60.33c0-2.35-1.13-3.73-3-3.73-3.06 0-3.35 2.35-3.35 5.87v10.65h-7.13V60.75c0-2.56-.71-4.15-2.68-4.15-2.56 0-3.65 1.51-3.65 5.91v10.61h-7.13l.01-21.77zM640.38 48.62h-7.13v-5.45h7.13v5.45zm-7.13 2.73h7.13v21.77h-7.13V51.35zM659.6 59.32a3.33 3.33 0 00-3.48-3.15c-4 0-4.61 3.4-4.61 6.42 0 2.81 1.22 5.7 4.24 5.7 2.52 0 3.74-1.38 4.07-3.73h6.92c-.67 5.87-5.12 9.19-10.95 9.19-6.54 0-11.41-4.45-11.41-11.16 0-6.92 4.4-11.87 11.41-11.87 5.45 0 10.19 2.89 10.74 8.6h-6.93zM404.62 82.4c9.4 0 14.77 6.92 14.77 15.6s-5.37 15.6-14.77 15.6c-9.4 0-14.77-6.92-14.77-15.6s5.37-15.6 14.77-15.6zm0 24.5c5 0 7-4.4 7-8.89s-1.93-8.89-7-8.89-7 4.4-7 8.89 1.96 8.89 7 8.89zM422.89 91.21h6.8v2.52h.08a6.87 6.87 0 016-3.15c6.84 0 9.73 5.83 9.73 12 0 5.66-3 11-9.19 11a7.34 7.34 0 01-6.21-3h-.1v9.65h-7.13l.02-29.02zm6.88 10.65c0 3.82 1.09 6.29 4.32 6.29 3.23 0 4.28-3.31 4.28-6.29 0-2.77-1-5.83-4.24-5.83-1.88-.03-4.36 1.3-4.36 5.83zM448.88 91.21h6.8v2.52h.08a6.86 6.86 0 016-3.15c6.84 0 9.73 5.83 9.73 12 0 5.66-3 11-9.19 11a7.33 7.33 0 01-6.21-3H456v9.65h-7.13l.01-29.02zm6.88 10.65c0 3.82 1.09 6.29 4.32 6.29 3.23 0 4.28-3.31 4.28-6.29 0-2.77-1.05-5.83-4.24-5.83-1.88-.03-4.36 1.3-4.36 5.83zM485.28 90.58a11.52 11.52 0 11-11.45 11.54 11.16 11.16 0 0111.45-11.54zm0 17.58c3.36 0 4.36-3.23 4.36-6s-1-6.08-4.36-6.08c-3.36 0-4.32 3.31-4.32 6.08s1.04 6 4.32 6zM499.28 91.21h6.92V95h.08a6.51 6.51 0 016.54-4.24 7.61 7.61 0 011.68.17v6.5a8.78 8.78 0 00-2.73-.42 5 5 0 00-5.37 5.16V113h-7.13l.01-21.79zM531.69 95.82h-4.4v9.9c0 1.72 1 2.1 2.56 2.1.63 0 1.22-.08 1.85-.08V113c-1.3 0-2.6.21-3.9.21-6.08 0-7.64-1.8-7.64-7.68v-9.71h-3.61v-4.61h3.61v-6.59h7.13v6.59h4.4v4.61zM556.94 113H550v-3h-.08a8 8 0 01-6.63 3.61c-6.25 0-8.05-3.61-8.05-9.31V91.21h7.13v12.63c0 2.89 1.22 3.9 3.53 3.9 1.51 0 3.9-1 3.9-4.87V91.21h7.13l.01 21.79zM561.71 91.21h6.92v3h.09a8.28 8.28 0 016.84-3.61c7.25 0 7.84 5.29 7.84 8.43v14h-7.13v-12.76c0-2.1-.71-3.82-3.56-3.82-2.68 0-3.86 2.31-3.86 4.66V113h-7.13l-.01-21.79zM595.08 88.48h-7.13V83h7.13v5.48zm-7.13 2.73h7.13V113h-7.13V91.21zM613.24 95.82h-4.4v9.9c0 1.72 1 2.1 2.56 2.1.63 0 1.22-.08 1.84-.08V113c-1.3 0-2.6.21-3.9.21-6.08 0-7.64-1.8-7.64-7.68v-9.71h-3.6v-4.61h3.6v-6.59h7.13v6.59h4.4l.01 4.61zM629.34 114.91c-1.68 4.78-4.32 5.37-9.1 5.37h-3.35v-5.79h2.48c1.63 0 2.85-.92 2.85-2.43 0-1.17-1.38-4.53-1.81-5.7l-5.62-15.14h7.55l4.11 14.18h.08l4.11-14.18h7.3l-8.6 23.69z"/></g></symbol><symbol id="icon-logo-primary" viewBox="0 0 692 313"><g fill="currentColor" fill-rule="nonzero"><path d="M544.34 77.32l11.56-10.91V33.27L521.23.13H405.66l-34.67 33.14V11.18L359.44.13h-46.23l-11.56 11.05v22.09l-23.11 22.09-23.11-22.09V11.18L243.87.13h-46.23l-11.55 11.05L174.53.13H128.3l-11.55 11.05v44.18L58.96.13H12.74L1.18 11.18v154.65l11.56 11.04h46.22l11.55-11.04v-44.19l57.79 55.23h46.23l11.56-11.04V77.45l57.78 55.23v33.15l11.56 11.04h46.22l11.56-11.04v-33.15l57.78-55.23v66.28l34.67 33.14h115.57l34.67-33.14v-33.14l-11.56-11.06h-57.78v11.06h-46.23V66.41h46.23v10.91zM1 198.59h17l7.62 29.5h.12l7.62-29.5h17v44.25h-10.9v-33.59h-.12L30 242.84h-8.8l-9.3-33.59h-.12v33.59H1zM57.45 220.6a9.77 9.77 0 015-8.61 20.53 20.53 0 0110.23-2.23c7.62 0 15 1.67 15 10.78v14.06c0 2.73 0 5.7 1.24 8.24H78.33a12.55 12.55 0 01-.62-3c-2.73 2.91-6.69 4-10.6 4-6.2 0-11-3.1-11-9.73 0-10.41 11.4-9.67 18.72-11.16 1.8-.43 2.79-1 2.79-3 0-2.42-2.91-3.35-5.08-3.35-3 0-4.77 1.36-5.27 4h-9.82zm13.63 16.67c5 0 6.69-2.79 6.45-9.48-1.49.93-4.21 1.05-6.51 1.74s-4.34 1.55-4.34 4.09 1.98 3.65 4.4 3.65zM112.18 245.69c-2.48 7.07-6.38 7.93-13.45 7.93h-5v-8.55h3.66c2.42 0 4.22-1.36 4.22-3.59 0-1.74-2-6.69-2.67-8.43l-8.3-22.37h11.16l6.07 20.95h.13l6.07-20.95h10.78l-12.67 35.01zM143.3 209.75c10 0 17 7.37 17 17 0 9.63-7 17-17 17s-16.92-7.31-16.92-17c0-9.69 6.94-17 16.92-17zm0 26c5 0 6.45-4.77 6.45-8.92s-1.49-9-6.45-9-6.38 4.9-6.38 9 1.48 8.89 6.38 8.89v.03zM166.18 210.68h10.22v5.64h.12c1.55-4.15 5.14-6.26 9.67-6.26a11.21 11.21 0 012.48.25v9.61a13 13 0 00-4-.62c-5.21 0-7.93 3.59-7.93 7.62v15.93h-10.56v-32.17zM193 198.59h9.85v10.29c-.06 6.2-3.1 10.85-9.85 12v-5a5.45 5.45 0 004.46-5.83H193v-11.46zM218.74 232.25a4.24 4.24 0 001.74 3.59 6.6 6.6 0 003.9 1.12c2 0 5-.93 5-3.41s-3.35-2.91-5.15-3.41c-6.63-1.67-14.94-1.86-14.94-10.54 0-7.68 8.37-9.85 14.69-9.85 7 0 14.5 2 14.81 10.41H229a3 3 0 00-1.36-2.79 5.82 5.82 0 00-3.35-.81c-1.73 0-4.52.19-4.52 2.42 0 3 7.06 3.66 11.9 4.65 6.44 1.3 8.18 6 8.18 8.68 0 8.61-8.18 11.47-15.43 11.47-7.69 0-15.43-2.54-15.74-11.53h10.06zM285.13 197.66c13.88 0 21.82 10.23 21.82 23.05s-7.93 23.05-21.82 23.05-21.82-10.23-21.82-23.05 7.94-23.05 21.82-23.05zm0 36.19c7.44 0 10.29-6.51 10.29-13.14 0-6.63-2.85-13.14-10.29-13.14-7.44 0-10.29 6.51-10.29 13.14 0 6.63 2.85 13.15 10.29 13.15v-.01zM315.08 217.5H310v-6.82h5.08c0-9.23 3.22-12.09 12.21-12.09 1.67 0 3.41.12 5.08.19v7.44a22.79 22.79 0 00-2.85-.19c-2.42 0-3.9.31-3.9 3.22v1.43h6.32v6.82h-6.32v25.35h-10.54V217.5zM338 217.5h-5.08v-6.82H338c0-9.23 3.22-12.09 12.21-12.09 1.67 0 3.41.12 5.08.19v7.44a22.79 22.79 0 00-2.85-.19c-2.42 0-3.9.31-3.9 3.22v1.43h6.32v6.82h-6.32v25.35H338V217.5zm30.43-10.85h-10.52v-8.06h10.54l-.02 8.06zm-10.54 4h10.54v32.17h-10.52l-.02-32.17zM396.84 222.45a4.92 4.92 0 00-5.14-4.65c-5.89 0-6.82 5-6.82 9.48 0 4.15 1.8 8.43 6.26 8.43 3.72 0 5.52-2 6-5.52h10.23c-1 8.68-7.56 13.57-16.18 13.57-9.67 0-16.86-6.57-16.86-16.49 0-10.23 6.51-17.54 16.86-17.54 8.06 0 15.06 4.28 15.87 12.7l-10.22.02zM421.63 229.33c.19 4.46 2.73 7.31 7.19 7.31 2.54 0 5-1.12 6-3.53h9.85c-2 7.44-8.8 10.66-16 10.66-10.47 0-17.6-6.32-17.6-17.11 0-9.85 7.87-16.92 17.35-16.92 11.53 0 17.29 8.68 16.8 19.58l-23.59.01zm13.08-5.89c-.19-3.66-2.73-6.57-6.26-6.57-3.72 0-6.13 2.6-6.82 6.57h13.08zM472.34 217.5h-5.08v-6.82h5.08c0-9.23 3.22-12.09 12.21-12.09 1.67 0 3.41.12 5.08.19v7.44a22.81 22.81 0 00-2.85-.19c-2.42 0-3.9.31-3.9 3.22v1.43h6.32v6.82h-6.32v25.35h-10.54V217.5zM508.36 209.75c10 0 17 7.37 17 17 0 9.63-7 17-17 17s-16.92-7.31-16.92-17c0-9.69 6.94-17 16.92-17zm0 26c5 0 6.44-4.77 6.44-8.92s-1.49-9-6.44-9-6.38 4.9-6.38 9 1.48 8.89 6.38 8.89v.03zM531.23 210.68h10.23v5.64h.12c1.55-4.15 5.14-6.26 9.67-6.26a11.22 11.22 0 012.48.25v9.61a13 13 0 00-4-.62c-5.21 0-7.93 3.59-7.93 7.62v15.93h-10.57v-32.17zM.91 257.49h35.26v9.23H12.44v7.75h21.69v8.92H12.44v8.43h24.35v9.92H.91zM63.89 281.35a4.92 4.92 0 00-5.14-4.65c-5.89 0-6.82 5-6.82 9.48 0 4.15 1.8 8.43 6.26 8.43 3.72 0 5.52-2 6-5.52h10.23c-1 8.68-7.56 13.57-16.18 13.57-9.67 0-16.86-6.57-16.86-16.49 0-10.23 6.51-17.54 16.86-17.54 8.06 0 15.06 4.28 15.87 12.7l-10.22.02zM95.07 268.65c10 0 17 7.37 17 17 0 9.63-7 17-17 17s-16.92-7.31-16.92-17c0-9.69 6.94-17 16.92-17zm0 26c5 0 6.45-4.77 6.45-8.92s-1.49-9-6.45-9-6.38 4.9-6.38 9 1.48 8.89 6.38 8.89v.03zM117.58 269.58h10.22V274h.12c2-3.28 6.26-5.33 10.1-5.33 10.72 0 11.59 7.81 11.59 12.46v20.64h-10.53V283c0-3.1-1.05-5.64-5.27-5.64-4 0-5.7 3.41-5.7 6.88v17.54h-10.53v-32.2zM172 268.65c10 0 17 7.37 17 17 0 9.63-7 17-17 17s-16.92-7.31-16.92-17c0-9.69 6.92-17 16.92-17zm0 26c5 0 6.45-4.77 6.45-8.92s-1.49-9-6.45-9-6.38 4.9-6.38 9 1.48 8.89 6.38 8.89v.03zM194.51 269.58h10.23V274h.12a10.65 10.65 0 019.23-5.33c4 0 7.62 1.3 9.36 5.21a11.57 11.57 0 0110-5.21c10.23 0 11.34 7.75 11.34 13.88v19.21h-10.5v-18.9c0-3.47-1.67-5.52-4.4-5.52-4.52 0-5 3.47-5 8.68v15.74H214.4v-18.3c0-3.78-1.05-6.14-4-6.14-3.78 0-5.39 2.23-5.39 8.74v15.68h-10.5v-32.16zM262.82 265.55h-10.54v-8.06h10.54v8.06zm-10.54 4h10.54v32.17h-10.54v-32.17zM291.2 281.35a4.92 4.92 0 00-5.14-4.65c-5.89 0-6.82 5-6.82 9.48 0 4.15 1.8 8.43 6.26 8.43 3.72 0 5.52-2 6-5.52h10.23c-1 8.68-7.56 13.57-16.18 13.57-9.67 0-16.86-6.57-16.86-16.49 0-10.23 6.51-17.54 16.86-17.54 8.06 0 15.06 4.28 15.87 12.7l-10.22.02zM347.12 256.56c13.88 0 21.82 10.23 21.82 23.05s-7.93 23.05-21.82 23.05-21.82-10.23-21.82-23.05 7.94-23.05 21.82-23.05zm0 36.19c7.44 0 10.29-6.51 10.29-13.14 0-6.63-2.85-13.14-10.29-13.14-7.44 0-10.29 6.51-10.29 13.14 0 6.63 2.85 13.15 10.29 13.15v-.01zM374.15 269.58h10v3.72h.12a10.14 10.14 0 018.86-4.65c10.1 0 14.38 8.61 14.38 17.72 0 8.37-4.46 16.3-13.57 16.3a10.84 10.84 0 01-9.17-4.4h-.12v14.25h-10.5v-42.94zm10.16 15.74c0 5.64 1.61 9.3 6.38 9.3s6.32-4.9 6.32-9.3c0-4.09-1.55-8.61-6.26-8.61-2.75 0-6.43 1.92-6.43 8.61h-.01zM412.58 269.58h10v3.72h.12a10.14 10.14 0 018.86-4.65c10.1 0 14.38 8.61 14.38 17.72 0 8.37-4.46 16.3-13.57 16.3a10.84 10.84 0 01-9.17-4.4h-.12v14.25h-10.5v-42.94zm10.16 15.74c0 5.64 1.61 9.3 6.38 9.3s6.32-4.9 6.32-9.3c0-4.09-1.55-8.61-6.26-8.61-2.78 0-6.43 1.92-6.43 8.61h-.01zM466.39 268.65c10 0 17 7.37 17 17 0 9.63-7 17-17 17s-16.92-7.31-16.92-17c0-9.69 6.94-17 16.92-17zm0 26c5 0 6.45-4.77 6.45-8.92s-1.49-9-6.45-9-6.38 4.9-6.38 9 1.48 8.89 6.38 8.89v.03zM487.1 269.58h10.23v5.64h.12c1.55-4.15 5.14-6.26 9.67-6.26a11.22 11.22 0 012.48.25v9.61a13 13 0 00-4-.62c-5.21 0-7.93 3.59-7.93 7.62v15.93H487.1v-32.17zM535 276.4h-6.5V291c0 2.54 1.49 3.1 3.78 3.1.93 0 1.8-.12 2.73-.12v7.75c-1.92.06-3.84.31-5.76.31-9 0-11.28-2.66-11.28-11.34v-14.3h-5.33v-6.82H518v-9.73h10.5v9.73h6.5v6.82zM572.32 301.74H562.1v-4.4h-.1a11.85 11.85 0 01-9.79 5.33c-9.23 0-11.9-5.33-11.9-13.76v-19.33h10.54v18.65c0 4.28 1.8 5.76 5.21 5.76 2.23 0 5.76-1.49 5.76-7.19v-17.22h10.54l-.04 32.16zM579.4 269.58h10.23V274h.12c2-3.28 6.26-5.33 10.1-5.33 10.72 0 11.59 7.81 11.59 12.46v20.64H600.9V283c0-3.1-1.05-5.64-5.27-5.64-4 0-5.7 3.41-5.7 6.88v17.54H579.4v-32.2zM628.74 265.55H618.2v-8.06h10.54v8.06zm-10.54 4h10.54v32.17H618.2v-32.17zM655.58 276.4h-6.51V291c0 2.54 1.49 3.1 3.78 3.1.93 0 1.8-.12 2.73-.12v7.75c-1.92.06-3.84.31-5.76.31-9 0-11.28-2.66-11.28-11.34v-14.3h-5.33v-6.82h5.33v-9.73h10.54v9.73h6.51l-.01 6.82zM679.38 304.6c-2.48 7.07-6.38 7.93-13.45 7.93h-5V304h3.66c2.42 0 4.21-1.36 4.21-3.59 0-1.74-2-6.69-2.66-8.43l-8.3-22.37H669l6.07 20.95h.12l6.07-20.95h10.78l-12.66 34.99z"/></g></symbol><symbol id="icon-logo-nyco" viewBox="0 0 692 358"><path d="M42.43 252.17c26.12 0 41 19.24 41 43.37s-14.92 43.37-41 43.37-41-19.24-41-43.37 14.88-43.37 41-43.37zm0 68.09c14 0 19.36-12.24 19.36-24.72 0-12.48-5.36-24.72-19.36-24.72s-19.36 12.24-19.36 24.72c0 12.48 5.37 24.73 19.36 24.73v-.01zm50.85-43.6h18.89v7h.23a19.08 19.08 0 0116.67-8.74c19 0 27.05 16.21 27.05 33.35 0 15.74-8.39 30.67-25.54 30.67-7.35 0-13.18-2.8-17.26-8.28h-.23v26.82H93.28v-80.82zm19.12 29.62c0 10.61 3 17.49 12 17.49 8.75 0 11.89-9.21 11.89-17.49 0-7.7-2.92-16.21-11.78-16.21-5.23 0-12.11 3.61-12.11 16.21zm53.18-29.62h18.89v7h.23a19.08 19.08 0 0116.67-8.74c19 0 27.05 16.21 27.05 33.35 0 15.74-8.39 30.67-25.54 30.67-7.35 0-13.18-2.8-17.26-8.28h-.23v26.82h-19.81v-80.82zm19.12 29.62c0 10.61 3 17.49 12 17.49 8.75 0 11.89-9.21 11.89-17.49 0-7.7-2.91-16.21-11.78-16.21-5.23 0-12.11 3.61-12.11 16.21zm82.1-31.37c18.77 0 31.95 13.88 31.95 32.06s-13.18 31.95-31.95 31.95S235 325.17 235 307s13-32.09 31.8-32.09zm0 48.85c9.33 0 12.13-9 12.13-16.79 0-7.79-2.8-16.91-12.13-16.91-9.33 0-12 9.21-12 16.91 0 7.7 2.79 16.8 12 16.8v-.01zm38.95-47.1H325v10.61h.23c2.92-7.81 9.68-11.78 18.19-11.78a21.09 21.09 0 014.66.47V294a24.44 24.44 0 00-7.58-1.17c-9.79 0-14.92 6.76-14.92 14.34v30h-19.83v-60.51zm90.14 12.83h-12.24V317c0 4.78 2.8 5.83 7.11 5.83 1.75 0 3.38-.23 5.13-.23v14.57c-3.61.12-7.23.58-10.84.58-16.91 0-21.22-5-21.22-21.34v-26.92h-10v-12.83h10v-18.31h19.82v18.31h12.24v12.83zm70.2 47.68h-19.24v-8.27h-.23c-3.73 6.18-11.43 10-18.42 10-17.37 0-22.39-10-22.39-25.88v-36.36h19.82v35.1c0 8 3.38 10.84 9.79 10.84 4.2 0 10.84-2.8 10.84-13.53v-32.41h19.82l.01 60.51zm13.3-60.51h19.24v8.28h.23c3.73-6.18 11.78-10 19-10 20.17 0 21.8 14.69 21.8 23.44v38.83h-19.81v-35.36c0-5.83-2-10.61-9.91-10.61-7.46 0-10.73 6.41-10.73 12.94v33h-19.82v-60.52zm92.82-7.58h-19.82v-15.16h19.82v15.16zm-19.82 7.58h19.82v60.51h-19.82v-60.51zm70.31 12.83h-12.24V317c0 4.78 2.8 5.83 7.11 5.83 1.75 0 3.38-.23 5.13-.23v14.57c-3.61.12-7.23.58-10.84.58-16.91 0-21.22-5-21.22-21.34v-26.92h-10v-12.83h10v-18.31h19.82v18.31h12.24v12.83zm44.78 53.05c-4.66 13.29-12 14.92-25.3 14.92h-9.33v-16.09h6.88c4.55 0 7.93-2.57 7.93-6.76 0-3.26-3.85-12.59-5-15.86L627 276.66h21l11.43 39.41h.23l11.43-39.41h20.29l-23.9 65.88zm9.67-245.95l14.4-13.6V41.7L648.36.42H504.37L461.19 41.7V14.18L446.79.42h-57.6L374.8 14.18V41.7l-28.79 27.53-28.8-27.53V14.18L302.81.42h-57.59l-14.4 13.76L216.41.42h-57.59l-14.39 13.76v55.05L72.44.42H14.85L.45 14.18v192.67l14.4 13.76h57.59l14.39-13.76V151.8l71.99 68.81h57.59l14.41-13.76V96.75l71.99 68.81v41.29l14.4 13.76h57.59l14.39-13.76v-41.29l72-68.81v82.57l43.18 41.29h143.99l43.19-41.29v-41.28l-14.4-13.78h-71.98v13.78h-57.59V82.99h57.59v13.6h71.98z" fill="currentColor" fill-rule="nonzero"/></symbol><symbol id="icon-logo-nyco-secondary" viewBox="0 0 694 76"><g fill="currentColor" fill-rule="nonzero"><path d="M233.11 1.21c18.54 0 29.14 13.66 29.14 30.79s-10.6 30.8-29.14 30.8S204 49.14 204 32s10.57-30.79 29.11-30.79zm0 48.34c9.93 0 13.74-8.69 13.74-17.55 0-8.86-3.85-17.55-13.74-17.55s-13.74 8.7-13.74 17.55c0 8.85 3.81 17.55 13.74 17.55zM269.19 18.59h13.41v5h.17a13.54 13.54 0 0111.84-6.21c13.49 0 19.2 11.51 19.2 23.67 0 11.18-6 21.77-18.13 21.77a14.49 14.49 0 01-12.25-5.88h-.17V76h-14.07V18.59zm13.57 21c0 7.53 2.15 12.42 8.53 12.42 6.21 0 8.44-6.54 8.44-12.42 0-5.46-2.07-11.51-8.36-11.51-3.72.03-8.6 2.6-8.6 11.54l-.01-.03zM320.5 18.59h13.41v5h.17a13.54 13.54 0 0111.84-6.21c13.49 0 19.2 11.51 19.2 23.67 0 11.18-6 21.77-18.13 21.77a14.48 14.48 0 01-12.25-5.88h-.17V76H320.5V18.59zm13.57 21c0 7.53 2.15 12.42 8.53 12.42 6.21 0 8.44-6.54 8.44-12.42 0-5.46-2.07-11.51-8.36-11.51-3.68.03-8.6 2.6-8.6 11.54l-.01-.03zM392.34 17.35c13.33 0 22.68 9.85 22.68 22.76 0 12.91-9.35 22.69-22.68 22.69s-22.6-9.77-22.6-22.68 9.26-22.77 22.6-22.77zm0 34.68C399 52 401 45.66 401 40.12s-2-12-8.61-12c-6.61 0-8.53 6.54-8.53 12S385.8 52 392.34 52v.03zM420 18.59h13.66v7.53h.17c2.07-5.55 6.87-8.36 12.91-8.36a15 15 0 013.31.33v12.84a17.35 17.35 0 00-5.38-.83c-7 0-10.6 4.8-10.6 10.18v21.27H420V18.59zM484 27.7h-8.69v19.53c0 3.39 2 4.14 5 4.14 1.24 0 2.4-.17 3.64-.17v10.35c-2.57.08-5.13.41-7.7.41-12 0-15.07-3.56-15.07-15.15V27.7h-7.12v-9.11h7.12v-13h14.07v13H484v9.11zM533.79 61.55h-13.66v-5.87H520a15.83 15.83 0 01-13.08 7.12c-12.37 0-15.92-7.12-15.92-18.38V18.59h14.07v24.92c0 5.71 2.4 7.7 7 7.7 3 0 7.7-2 7.7-9.6v-23h14.07l-.05 42.94zM543.21 18.59h13.66v5.88h.13c2.65-4.39 8.36-7.12 13.49-7.12C584.85 17.35 586 27.78 586 34v27.55h-14.06V36.47c0-4.14-1.41-7.53-7-7.53-5.3 0-7.61 4.55-7.61 9.19v23.42h-14.12V18.59zM609.09 13.21H595V2.45h14.07l.02 10.76zM595 18.59h14.07v43H595v-43zM644.93 27.7h-8.69v19.53c0 3.39 2 4.14 5 4.14 1.24 0 2.4-.17 3.64-.17v10.35c-2.57.08-5.13.41-7.7.41-12 0-15.07-3.56-15.07-15.15V27.7H615v-9.11h7.12v-13h14.07v13h8.69l.05 9.11zM676.71 65.36c-3.31 9.44-8.53 10.6-18 10.6h-6.62V64.53H657c3.23 0 5.63-1.82 5.63-4.8 0-2.32-2.73-8.94-3.56-11.26L648 18.59h14.9l8.11 28h.17l8.11-28h14.4l-16.98 46.77zM187.9 27.18l4-3.77V11.96L179.92.52h-39.91l-11.97 11.44V4.33L124.05.52h-15.97l-3.99 3.81v7.63l-7.98 7.63-7.98-7.63V4.33l-4-3.81H68.17l-3.99 3.81L60.19.52H44.22l-3.99 3.81v15.26L20.28.52H4.31L.32 4.33v53.41l3.99 3.82h15.97l3.99-3.82V42.48l19.95 19.08h15.97l3.99-3.82V27.22L84.13 46.3v11.44l4 3.82h15.96l3.99-3.82V46.3l19.96-19.08v22.89l11.97 11.45h39.91l11.98-11.45V38.66l-4-3.81h-19.95v3.81h-15.96V23.41h15.96v3.77z"/></g></symbol><symbol id="icon-logo-nyc" viewBox="0 0 350 117"><path d="M327.9 0H255l-21.8 21.9v72.8l21.8 21.9h72.9l21.8-21.9V72.9l-7.2-7.3H306v7.3h-29.1V43.7H306v7.2h36.5l7.2-7.2V21.9L327.9 0zM109.3 0H80.1l-7.2 7.3v29.1L36.4 0H7.3L0 7.3v102l7.3 7.3h29.1l7.3-7.3V80.1l36.4 36.5h29.2l7.3-7.3V7.3L109.3 0zm51 116.6h29.1l7.3-7.3V87.4L233.2 51V7.3L225.9 0h-29.2l-7.3 7.3v14.6l-14.5 14.5-14.6-14.5V7.3L153 0h-29.1l-7.3 7.3V51L153 87.4v21.9l7.3 7.3z" fill="currentColor" fill-rule="nonzero"/></symbol></svg>