<svg viewBox="0 0 692 313" xmlns="http://www.w3.org/2000/svg"><g fill="currentColor" fill-rule="nonzero"><path d="M544.34 77.32l11.56-10.91V33.27L521.23.13H405.66l-34.67 33.14V11.18L359.44.13h-46.23l-11.56 11.05v22.09l-23.11 22.09-23.11-22.09V11.18L243.87.13h-46.23l-11.55 11.05L174.53.13H128.3l-11.55 11.05v44.18L58.96.13H12.74L1.18 11.18v154.65l11.56 11.04h46.22l11.55-11.04v-44.19l57.79 55.23h46.23l11.56-11.04V77.45l57.78 55.23v33.15l11.56 11.04h46.22l11.56-11.04v-33.15l57.78-55.23v66.28l34.67 33.14h115.57l34.67-33.14v-33.14l-11.56-11.06h-57.78v11.06h-46.23V66.41h46.23v10.91zM1 198.59h17l7.62 29.5h.12l7.62-29.5h17v44.25h-10.9v-33.59h-.12L30 242.84h-8.8l-9.3-33.59h-.12v33.59H1zM57.45 220.6a9.77 9.77 0 015-8.61 20.53 20.53 0 0110.23-2.23c7.62 0 15 1.67 15 10.78v14.06c0 2.73 0 5.7 1.24 8.24H78.33a12.55 12.55 0 01-.62-3c-2.73 2.91-6.69 4-10.6 4-6.2 0-11-3.1-11-9.73 0-10.41 11.4-9.67 18.72-11.16 1.8-.43 2.79-1 2.79-3 0-2.42-2.91-3.35-5.08-3.35-3 0-4.77 1.36-5.27 4h-9.82zm13.63 16.67c5 0 6.69-2.79 6.45-9.48-1.49.93-4.21 1.05-6.51 1.74s-4.34 1.55-4.34 4.09 1.98 3.65 4.4 3.65zM112.18 245.69c-2.48 7.07-6.38 7.93-13.45 7.93h-5v-8.55h3.66c2.42 0 4.22-1.36 4.22-3.59 0-1.74-2-6.69-2.67-8.43l-8.3-22.37h11.16l6.07 20.95h.13l6.07-20.95h10.78l-12.67 35.01zM143.3 209.75c10 0 17 7.37 17 17 0 9.63-7 17-17 17s-16.92-7.31-16.92-17c0-9.69 6.94-17 16.92-17zm0 26c5 0 6.45-4.77 6.45-8.92s-1.49-9-6.45-9-6.38 4.9-6.38 9 1.48 8.89 6.38 8.89v.03zM166.18 210.68h10.22v5.64h.12c1.55-4.15 5.14-6.26 9.67-6.26a11.21 11.21 0 012.48.25v9.61a13 13 0 00-4-.62c-5.21 0-7.93 3.59-7.93 7.62v15.93h-10.56v-32.17zM193 198.59h9.85v10.29c-.06 6.2-3.1 10.85-9.85 12v-5a5.45 5.45 0 004.46-5.83H193v-11.46zM218.74 232.25a4.24 4.24 0 001.74 3.59 6.6 6.6 0 003.9 1.12c2 0 5-.93 5-3.41s-3.35-2.91-5.15-3.41c-6.63-1.67-14.94-1.86-14.94-10.54 0-7.68 8.37-9.85 14.69-9.85 7 0 14.5 2 14.81 10.41H229a3 3 0 00-1.36-2.79 5.82 5.82 0 00-3.35-.81c-1.73 0-4.52.19-4.52 2.42 0 3 7.06 3.66 11.9 4.65 6.44 1.3 8.18 6 8.18 8.68 0 8.61-8.18 11.47-15.43 11.47-7.69 0-15.43-2.54-15.74-11.53h10.06zM285.13 197.66c13.88 0 21.82 10.23 21.82 23.05s-7.93 23.05-21.82 23.05-21.82-10.23-21.82-23.05 7.94-23.05 21.82-23.05zm0 36.19c7.44 0 10.29-6.51 10.29-13.14 0-6.63-2.85-13.14-10.29-13.14-7.44 0-10.29 6.51-10.29 13.14 0 6.63 2.85 13.15 10.29 13.15v-.01zM315.08 217.5H310v-6.82h5.08c0-9.23 3.22-12.09 12.21-12.09 1.67 0 3.41.12 5.08.19v7.44a22.79 22.79 0 00-2.85-.19c-2.42 0-3.9.31-3.9 3.22v1.43h6.32v6.82h-6.32v25.35h-10.54V217.5zM338 217.5h-5.08v-6.82H338c0-9.23 3.22-12.09 12.21-12.09 1.67 0 3.41.12 5.08.19v7.44a22.79 22.79 0 00-2.85-.19c-2.42 0-3.9.31-3.9 3.22v1.43h6.32v6.82h-6.32v25.35H338V217.5zm30.43-10.85h-10.52v-8.06h10.54l-.02 8.06zm-10.54 4h10.54v32.17h-10.52l-.02-32.17zM396.84 222.45a4.92 4.92 0 00-5.14-4.65c-5.89 0-6.82 5-6.82 9.48 0 4.15 1.8 8.43 6.26 8.43 3.72 0 5.52-2 6-5.52h10.23c-1 8.68-7.56 13.57-16.18 13.57-9.67 0-16.86-6.57-16.86-16.49 0-10.23 6.51-17.54 16.86-17.54 8.06 0 15.06 4.28 15.87 12.7l-10.22.02zM421.63 229.33c.19 4.46 2.73 7.31 7.19 7.31 2.54 0 5-1.12 6-3.53h9.85c-2 7.44-8.8 10.66-16 10.66-10.47 0-17.6-6.32-17.6-17.11 0-9.85 7.87-16.92 17.35-16.92 11.53 0 17.29 8.68 16.8 19.58l-23.59.01zm13.08-5.89c-.19-3.66-2.73-6.57-6.26-6.57-3.72 0-6.13 2.6-6.82 6.57h13.08zM472.34 217.5h-5.08v-6.82h5.08c0-9.23 3.22-12.09 12.21-12.09 1.67 0 3.41.12 5.08.19v7.44a22.81 22.81 0 00-2.85-.19c-2.42 0-3.9.31-3.9 3.22v1.43h6.32v6.82h-6.32v25.35h-10.54V217.5zM508.36 209.75c10 0 17 7.37 17 17 0 9.63-7 17-17 17s-16.92-7.31-16.92-17c0-9.69 6.94-17 16.92-17zm0 26c5 0 6.44-4.77 6.44-8.92s-1.49-9-6.44-9-6.38 4.9-6.38 9 1.48 8.89 6.38 8.89v.03zM531.23 210.68h10.23v5.64h.12c1.55-4.15 5.14-6.26 9.67-6.26a11.22 11.22 0 012.48.25v9.61a13 13 0 00-4-.62c-5.21 0-7.93 3.59-7.93 7.62v15.93h-10.57v-32.17zM.91 257.49h35.26v9.23H12.44v7.75h21.69v8.92H12.44v8.43h24.35v9.92H.91zM63.89 281.35a4.92 4.92 0 00-5.14-4.65c-5.89 0-6.82 5-6.82 9.48 0 4.15 1.8 8.43 6.26 8.43 3.72 0 5.52-2 6-5.52h10.23c-1 8.68-7.56 13.57-16.18 13.57-9.67 0-16.86-6.57-16.86-16.49 0-10.23 6.51-17.54 16.86-17.54 8.06 0 15.06 4.28 15.87 12.7l-10.22.02zM95.07 268.65c10 0 17 7.37 17 17 0 9.63-7 17-17 17s-16.92-7.31-16.92-17c0-9.69 6.94-17 16.92-17zm0 26c5 0 6.45-4.77 6.45-8.92s-1.49-9-6.45-9-6.38 4.9-6.38 9 1.48 8.89 6.38 8.89v.03zM117.58 269.58h10.22V274h.12c2-3.28 6.26-5.33 10.1-5.33 10.72 0 11.59 7.81 11.59 12.46v20.64h-10.53V283c0-3.1-1.05-5.64-5.27-5.64-4 0-5.7 3.41-5.7 6.88v17.54h-10.53v-32.2zM172 268.65c10 0 17 7.37 17 17 0 9.63-7 17-17 17s-16.92-7.31-16.92-17c0-9.69 6.92-17 16.92-17zm0 26c5 0 6.45-4.77 6.45-8.92s-1.49-9-6.45-9-6.38 4.9-6.38 9 1.48 8.89 6.38 8.89v.03zM194.51 269.58h10.23V274h.12a10.65 10.65 0 019.23-5.33c4 0 7.62 1.3 9.36 5.21a11.57 11.57 0 0110-5.21c10.23 0 11.34 7.75 11.34 13.88v19.21h-10.5v-18.9c0-3.47-1.67-5.52-4.4-5.52-4.52 0-5 3.47-5 8.68v15.74H214.4v-18.3c0-3.78-1.05-6.14-4-6.14-3.78 0-5.39 2.23-5.39 8.74v15.68h-10.5v-32.16zM262.82 265.55h-10.54v-8.06h10.54v8.06zm-10.54 4h10.54v32.17h-10.54v-32.17zM291.2 281.35a4.92 4.92 0 00-5.14-4.65c-5.89 0-6.82 5-6.82 9.48 0 4.15 1.8 8.43 6.26 8.43 3.72 0 5.52-2 6-5.52h10.23c-1 8.68-7.56 13.57-16.18 13.57-9.67 0-16.86-6.57-16.86-16.49 0-10.23 6.51-17.54 16.86-17.54 8.06 0 15.06 4.28 15.87 12.7l-10.22.02zM347.12 256.56c13.88 0 21.82 10.23 21.82 23.05s-7.93 23.05-21.82 23.05-21.82-10.23-21.82-23.05 7.94-23.05 21.82-23.05zm0 36.19c7.44 0 10.29-6.51 10.29-13.14 0-6.63-2.85-13.14-10.29-13.14-7.44 0-10.29 6.51-10.29 13.14 0 6.63 2.85 13.15 10.29 13.15v-.01zM374.15 269.58h10v3.72h.12a10.14 10.14 0 018.86-4.65c10.1 0 14.38 8.61 14.38 17.72 0 8.37-4.46 16.3-13.57 16.3a10.84 10.84 0 01-9.17-4.4h-.12v14.25h-10.5v-42.94zm10.16 15.74c0 5.64 1.61 9.3 6.38 9.3s6.32-4.9 6.32-9.3c0-4.09-1.55-8.61-6.26-8.61-2.75 0-6.43 1.92-6.43 8.61h-.01zM412.58 269.58h10v3.72h.12a10.14 10.14 0 018.86-4.65c10.1 0 14.38 8.61 14.38 17.72 0 8.37-4.46 16.3-13.57 16.3a10.84 10.84 0 01-9.17-4.4h-.12v14.25h-10.5v-42.94zm10.16 15.74c0 5.64 1.61 9.3 6.38 9.3s6.32-4.9 6.32-9.3c0-4.09-1.55-8.61-6.26-8.61-2.78 0-6.43 1.92-6.43 8.61h-.01zM466.39 268.65c10 0 17 7.37 17 17 0 9.63-7 17-17 17s-16.92-7.31-16.92-17c0-9.69 6.94-17 16.92-17zm0 26c5 0 6.45-4.77 6.45-8.92s-1.49-9-6.45-9-6.38 4.9-6.38 9 1.48 8.89 6.38 8.89v.03zM487.1 269.58h10.23v5.64h.12c1.55-4.15 5.14-6.26 9.67-6.26a11.22 11.22 0 012.48.25v9.61a13 13 0 00-4-.62c-5.21 0-7.93 3.59-7.93 7.62v15.93H487.1v-32.17zM535 276.4h-6.5V291c0 2.54 1.49 3.1 3.78 3.1.93 0 1.8-.12 2.73-.12v7.75c-1.92.06-3.84.31-5.76.31-9 0-11.28-2.66-11.28-11.34v-14.3h-5.33v-6.82H518v-9.73h10.5v9.73h6.5v6.82zM572.32 301.74H562.1v-4.4h-.1a11.85 11.85 0 01-9.79 5.33c-9.23 0-11.9-5.33-11.9-13.76v-19.33h10.54v18.65c0 4.28 1.8 5.76 5.21 5.76 2.23 0 5.76-1.49 5.76-7.19v-17.22h10.54l-.04 32.16zM579.4 269.58h10.23V274h.12c2-3.28 6.26-5.33 10.1-5.33 10.72 0 11.59 7.81 11.59 12.46v20.64H600.9V283c0-3.1-1.05-5.64-5.27-5.64-4 0-5.7 3.41-5.7 6.88v17.54H579.4v-32.2zM628.74 265.55H618.2v-8.06h10.54v8.06zm-10.54 4h10.54v32.17H618.2v-32.17zM655.58 276.4h-6.51V291c0 2.54 1.49 3.1 3.78 3.1.93 0 1.8-.12 2.73-.12v7.75c-1.92.06-3.84.31-5.76.31-9 0-11.28-2.66-11.28-11.34v-14.3h-5.33v-6.82h5.33v-9.73h10.54v9.73h6.51l-.01 6.82zM679.38 304.6c-2.48 7.07-6.38 7.93-13.45 7.93h-5V304h3.66c2.42 0 4.21-1.36 4.21-3.59 0-1.74-2-6.69-2.66-8.43l-8.3-22.37H669l6.07 20.95h.12l6.07-20.95h10.78l-12.66 34.99z"/></g></svg>