<svg viewBox="0 0 24 24" xmlns="http://www.w3.org/2000/svg"><path d="M20.089 10.975a1.31 1.31 0 00-1.009-.393l-4.557.254 2.508-2.857c.357-.406.46-.949.321-1.434a1.301 1.301 0 00-.583-.827c-.01-.007-5.995-3.484-5.995-3.484a1.307 1.307 0 00-1.527.155L6.324 4.997a1.307 1.307 0 101.74 1.95l2.216-1.976 1.833 1.064-3.235 3.684a6.665 6.665 0 00-3.495 1.728l1.689 1.689a4.281 4.281 0 012.888-1.118 4.303 4.303 0 014.298 4.297 4.281 4.281 0 01-1.118 2.889l1.69 1.69a6.659 6.659 0 001.815-4.578 6.657 6.657 0 00-.681-2.942l1.764-.098-.429 5.263a1.307 1.307 0 102.605.213l.551-6.758a1.307 1.307 0 00-.366-1.019zM17.668 5.376a2.188 2.188 0 100-4.376 2.188 2.188 0 000 4.376zM9.96 20.613a4.303 4.303 0 01-4.297-4.297c0-.894.274-1.724.742-2.412l-1.707-1.707a6.684 6.684 0 009.381 9.382l-1.707-1.708a4.273 4.273 0 01-2.411.742z" fill="currentColor"/></svg>