<svg viewBox="0 0 694 76" xmlns="http://www.w3.org/2000/svg"><g fill="currentColor" fill-rule="nonzero"><path d="M233.11 1.21c18.54 0 29.14 13.66 29.14 30.79s-10.6 30.8-29.14 30.8S204 49.14 204 32s10.57-30.79 29.11-30.79zm0 48.34c9.93 0 13.74-8.69 13.74-17.55 0-8.86-3.85-17.55-13.74-17.55s-13.74 8.7-13.74 17.55c0 8.85 3.81 17.55 13.74 17.55zM269.19 18.59h13.41v5h.17a13.54 13.54 0 0111.84-6.21c13.49 0 19.2 11.51 19.2 23.67 0 11.18-6 21.77-18.13 21.77a14.49 14.49 0 01-12.25-5.88h-.17V76h-14.07V18.59zm13.57 21c0 7.53 2.15 12.42 8.53 12.42 6.21 0 8.44-6.54 8.44-12.42 0-5.46-2.07-11.51-8.36-11.51-3.72.03-8.6 2.6-8.6 11.54l-.01-.03zM320.5 18.59h13.41v5h.17a13.54 13.54 0 0111.84-6.21c13.49 0 19.2 11.51 19.2 23.67 0 11.18-6 21.77-18.13 21.77a14.48 14.48 0 01-12.25-5.88h-.17V76H320.5V18.59zm13.57 21c0 7.53 2.15 12.42 8.53 12.42 6.21 0 8.44-6.54 8.44-12.42 0-5.46-2.07-11.51-8.36-11.51-3.68.03-8.6 2.6-8.6 11.54l-.01-.03zM392.34 17.35c13.33 0 22.68 9.85 22.68 22.76 0 12.91-9.35 22.69-22.68 22.69s-22.6-9.77-22.6-22.68 9.26-22.77 22.6-22.77zm0 34.68C399 52 401 45.66 401 40.12s-2-12-8.61-12c-6.61 0-8.53 6.54-8.53 12S385.8 52 392.34 52v.03zM420 18.59h13.66v7.53h.17c2.07-5.55 6.87-8.36 12.91-8.36a15 15 0 013.31.33v12.84a17.35 17.35 0 00-5.38-.83c-7 0-10.6 4.8-10.6 10.18v21.27H420V18.59zM484 27.7h-8.69v19.53c0 3.39 2 4.14 5 4.14 1.24 0 2.4-.17 3.64-.17v10.35c-2.57.08-5.13.41-7.7.41-12 0-15.07-3.56-15.07-15.15V27.7h-7.12v-9.11h7.12v-13h14.07v13H484v9.11zM533.79 61.55h-13.66v-5.87H520a15.83 15.83 0 01-13.08 7.12c-12.37 0-15.92-7.12-15.92-18.38V18.59h14.07v24.92c0 5.71 2.4 7.7 7 7.7 3 0 7.7-2 7.7-9.6v-23h14.07l-.05 42.94zM543.21 18.59h13.66v5.88h.13c2.65-4.39 8.36-7.12 13.49-7.12C584.85 17.35 586 27.78 586 34v27.55h-14.06V36.47c0-4.14-1.41-7.53-7-7.53-5.3 0-7.61 4.55-7.61 9.19v23.42h-14.12V18.59zM609.09 13.21H595V2.45h14.07l.02 10.76zM595 18.59h14.07v43H595v-43zM644.93 27.7h-8.69v19.53c0 3.39 2 4.14 5 4.14 1.24 0 2.4-.17 3.64-.17v10.35c-2.57.08-5.13.41-7.7.41-12 0-15.07-3.56-15.07-15.15V27.7H615v-9.11h7.12v-13h14.07v13h8.69l.05 9.11zM676.71 65.36c-3.31 9.44-8.53 10.6-18 10.6h-6.62V64.53H657c3.23 0 5.63-1.82 5.63-4.8 0-2.32-2.73-8.94-3.56-11.26L648 18.59h14.9l8.11 28h.17l8.11-28h14.4l-16.98 46.77zM187.9 27.18l4-3.77V11.96L179.92.52h-39.91l-11.97 11.44V4.33L124.05.52h-15.97l-3.99 3.81v7.63l-7.98 7.63-7.98-7.63V4.33l-4-3.81H68.17l-3.99 3.81L60.19.52H44.22l-3.99 3.81v15.26L20.28.52H4.31L.32 4.33v53.41l3.99 3.82h15.97l3.99-3.82V42.48l19.95 19.08h15.97l3.99-3.82V27.22L84.13 46.3v11.44l4 3.82h15.96l3.99-3.82V46.3l19.96-19.08v22.89l11.97 11.45h39.91l11.98-11.45V38.66l-4-3.81h-19.95v3.81h-15.96V23.41h15.96v3.77z"/></g></svg>