<svg><defs/><symbol id="icon-arrow-down-navy" viewBox="0 0 444.8 444.8"><path fill="#2F334F" d="M248.1 352L434 165.9c7.2-6.9 10.8-15.4 10.8-25.7 0-10.3-3.6-18.8-10.8-25.7l-21.4-21.7c-7-7-15.6-10.6-25.7-10.6-9.9 0-18.6 3.5-26 10.6L222.4 231.5 83.7 92.8c-7-7-15.6-10.6-25.7-10.6-9.9 0-18.6 3.5-26 10.6l-21.4 21.7c-7 7-10.6 15.6-10.6 25.7s3.5 18.7 10.6 25.7L196.4 352c7.4 7 16.1 10.6 26 10.6 10.1 0 18.7-3.5 25.7-10.6z"/></symbol><symbol id="icon-arrow-down-red" viewBox="0 0 444.8 444.8"><path fill="#F2695D" d="M248.1 352L434 165.9c7.2-6.9 10.8-15.4 10.8-25.7 0-10.3-3.6-18.8-10.8-25.7l-21.4-21.7c-7-7-15.6-10.6-25.7-10.6-9.9 0-18.6 3.5-26 10.6L222.4 231.5 83.7 92.8c-7-7-15.6-10.6-25.7-10.6-9.9 0-18.6 3.5-26 10.6l-21.4 21.7c-7 7-10.6 15.6-10.6 25.7s3.5 18.7 10.6 25.7L196.4 352c7.4 7 16.1 10.6 26 10.6 10.1 0 18.7-3.5 25.7-10.6z"/></symbol><symbol id="icon-arrow-down-white" viewBox="0 0 444.8 444.8"><path fill="#FFF" d="M248.1 352L434 165.9c7.2-6.9 10.8-15.4 10.8-25.7 0-10.3-3.6-18.8-10.8-25.7l-21.4-21.7c-7-7-15.6-10.6-25.7-10.6-9.9 0-18.6 3.5-26 10.6L222.4 231.5 83.7 92.8c-7-7-15.6-10.6-25.7-10.6-9.9 0-18.6 3.5-26 10.6l-21.4 21.7c-7 7-10.6 15.6-10.6 25.7s3.5 18.7 10.6 25.7L196.4 352c7.4 7 16.1 10.6 26 10.6 10.1 0 18.7-3.5 25.7-10.6z"/></symbol><symbol id="icon-arrow-down" viewBox="0 0 444.8 444.8"><path fill="currentColor" d="M248.1 352L434 165.9c7.2-6.9 10.8-15.4 10.8-25.7 0-10.3-3.6-18.8-10.8-25.7l-21.4-21.7c-7-7-15.6-10.6-25.7-10.6-9.9 0-18.6 3.5-26 10.6L222.4 231.5 83.7 92.8c-7-7-15.6-10.6-25.7-10.6-9.9 0-18.6 3.5-26 10.6l-21.4 21.7c-7 7-10.6 15.6-10.6 25.7s3.5 18.7 10.6 25.7L196.4 352c7.4 7 16.1 10.6 26 10.6 10.1 0 18.7-3.5 25.7-10.6z"/></symbol><symbol id="icon-checkmark-navy" viewBox="0 0 216 146"><path fill="#2F334F" d="M168.86 37.966l-11.08-11.08c-1.52-1.52-3.367-2.28-5.54-2.28-2.172 0-4.02.76-5.54 2.28L93.254 80.414 69.3 56.38c-1.52-1.522-3.367-2.282-5.54-2.282-2.172 0-4.02.76-5.54 2.28L47.14 67.46c-1.52 1.522-2.28 3.37-2.28 5.542 0 2.172.76 4.02 2.28 5.54l29.493 29.493 11.08 11.08c1.52 1.52 3.368 2.28 5.54 2.28 2.173 0 4.02-.76 5.54-2.28l11.082-11.08L168.86 49.05c1.52-1.52 2.283-3.37 2.283-5.54 0-2.174-.76-4.02-2.28-5.54z"/></symbol><symbol id="icon-checkmark-red" viewBox="0 0 216 146"><path fill="#F2695D" d="M168.86 37.966l-11.08-11.08c-1.52-1.52-3.367-2.28-5.54-2.28-2.172 0-4.02.76-5.54 2.28L93.254 80.414 69.3 56.38c-1.52-1.522-3.367-2.282-5.54-2.282-2.172 0-4.02.76-5.54 2.28L47.14 67.46c-1.52 1.522-2.28 3.37-2.28 5.542 0 2.172.76 4.02 2.28 5.54l29.493 29.493 11.08 11.08c1.52 1.52 3.368 2.28 5.54 2.28 2.173 0 4.02-.76 5.54-2.28l11.082-11.08L168.86 49.05c1.52-1.52 2.283-3.37 2.283-5.54 0-2.174-.76-4.02-2.28-5.54z"/></symbol><symbol id="icon-checkmark-white" viewBox="0 0 216 146"><path fill="#FFF" d="M168.86 37.966l-11.08-11.08c-1.52-1.52-3.367-2.28-5.54-2.28-2.172 0-4.02.76-5.54 2.28L93.254 80.414 69.3 56.38c-1.52-1.522-3.367-2.282-5.54-2.282-2.172 0-4.02.76-5.54 2.28L47.14 67.46c-1.52 1.522-2.28 3.37-2.28 5.542 0 2.172.76 4.02 2.28 5.54l29.493 29.493 11.08 11.08c1.52 1.52 3.368 2.28 5.54 2.28 2.173 0 4.02-.76 5.54-2.28l11.082-11.08L168.86 49.05c1.52-1.52 2.283-3.37 2.283-5.54 0-2.174-.76-4.02-2.28-5.54z"/></symbol><symbol id="icon-checkmark" viewBox="0 0 216 146"><path fill="currentColor" d="M168.86 37.966l-11.08-11.08c-1.52-1.52-3.367-2.28-5.54-2.28-2.172 0-4.02.76-5.54 2.28L93.254 80.414 69.3 56.38c-1.52-1.522-3.367-2.282-5.54-2.282-2.172 0-4.02.76-5.54 2.28L47.14 67.46c-1.52 1.522-2.28 3.37-2.28 5.542 0 2.172.76 4.02 2.28 5.54l29.493 29.493 11.08 11.08c1.52 1.52 3.368 2.28 5.54 2.28 2.173 0 4.02-.76 5.54-2.28l11.082-11.08L168.86 49.05c1.52-1.52 2.283-3.37 2.283-5.54 0-2.174-.76-4.02-2.28-5.54z"/></symbol><symbol id="icon-github-mark" viewBox="0 0 33 33"><path d="M152.608,331.455 C143.614,331.455 136.32,338.748 136.32,347.745 C136.32,354.942 140.987,361.047 147.46,363.201 C148.275,363.351 148.572,362.848 148.572,362.416 C148.572,362.029 148.558,361.005 148.55,359.646 C144.019,360.63 143.063,357.462 143.063,357.462 C142.322,355.58 141.254,355.079 141.254,355.079 C139.775,354.069 141.366,354.089 141.366,354.089 C143.001,354.204 143.861,355.768 143.861,355.768 C145.314,358.257 147.674,357.538 148.602,357.121 C148.75,356.069 149.171,355.351 149.636,354.944 C146.019,354.533 142.216,353.135 142.216,346.893 C142.216,345.115 142.851,343.66 143.893,342.522 C143.725,342.11 143.166,340.453 144.053,338.211 C144.053,338.211 145.42,337.773 148.532,339.881 C149.831,339.519 151.225,339.339 152.61,339.332 C153.994,339.339 155.387,339.519 156.688,339.881 C159.798,337.773 161.163,338.211 161.163,338.211 C162.052,340.453 161.493,342.11 161.326,342.522 C162.37,343.66 163,345.115 163,346.893 C163,353.151 159.191,354.528 155.563,354.931 C156.147,355.434 156.668,356.428 156.668,357.947 C156.668,360.125 156.648,361.882 156.648,362.416 C156.648,362.852 156.942,363.359 157.768,363.2 C164.236,361.041 168.899,354.94 168.899,347.745 C168.899,338.748 161.605,331.455 152.608,331.455" transform="translate(-136 -331)" fill="currentColor" fill-rule="evenodd"/></symbol><symbol id="icon-logo-nyc" viewBox="0 0 350 117"><path d="M327.9,0 L255,0 L233.2,21.9 L233.2,94.7 L255,116.6 L327.9,116.6 L349.7,94.7 L349.7,72.9 L342.5,65.6 L306,65.6 L306,72.9 L276.9,72.9 L276.9,43.7 L306,43.7 L306,50.9 L342.5,50.9 L349.7,43.7 L349.7,21.9 L327.9,0 Z M109.3,0 L80.1,0 L72.9,7.3 L72.9,36.4 L36.4,0 L7.3,0 L0,7.3 L0,109.3 L7.3,116.6 L36.4,116.6 L43.7,109.3 L43.7,80.1 L80.1,116.6 L109.3,116.6 L116.6,109.3 L116.6,7.3 L109.3,0 Z M160.3,116.6 L189.4,116.6 L196.7,109.3 L196.7,87.4 L233.2,51 L233.2,7.3 L225.9,0 L196.7,0 L189.4,7.3 L189.4,21.9 L174.9,36.4 L160.3,21.9 L160.3,7.3 L153,0 L123.9,0 L116.6,7.3 L116.6,51 L153,87.4 L153,109.3 L160.3,116.6 Z" fill="currentColor" fill-rule="nonzero"/></symbol><symbol id="icon-logo-nyco-secondary" viewBox="0 0 694 76"><g fill="currentColor" fill-rule="nonzero"><path d="M233.11 1.21C251.65 1.21 262.25 14.87 262.25 32 262.25 49.13 251.65 62.8 233.11 62.8 214.57 62.8 204 49.14 204 32 204 14.86 214.57 1.21 233.11 1.21zM233.11 49.55C243.04 49.55 246.85 40.86 246.85 32 246.85 23.14 243 14.45 233.11 14.45 223.22 14.45 219.37 23.15 219.37 32 219.37 40.85 223.18 49.55 233.11 49.55zM269.19 18.59L282.6 18.59 282.6 23.59 282.77 23.59C285.348203 19.5799532 289.845296 17.2212582 294.61 17.38 308.1 17.38 313.81 28.89 313.81 41.05 313.81 52.23 307.81 62.82 295.68 62.82 290.873811 63.0147635 286.284251 60.8117748 283.43 56.94L283.26 56.94 283.26 76 269.19 76 269.19 18.59zM282.76 39.59C282.76 47.12 284.91 52.01 291.29 52.01 297.5 52.01 299.73 45.47 299.73 39.59 299.73 34.13 297.66 28.08 291.37 28.08 287.65 28.11 282.77 30.68 282.77 39.62L282.76 39.59zM320.5 18.59L333.91 18.59 333.91 23.59 334.08 23.59C336.658203 19.5799532 341.155296 17.2212582 345.92 17.38 359.41 17.38 365.12 28.89 365.12 41.05 365.12 52.23 359.12 62.82 346.99 62.82 342.183444 63.0165436 337.593092 60.8131747 334.74 56.94L334.57 56.94 334.57 76 320.5 76 320.5 18.59zM334.07 39.59C334.07 47.12 336.22 52.01 342.6 52.01 348.81 52.01 351.04 45.47 351.04 39.59 351.04 34.13 348.97 28.08 342.68 28.08 339 28.11 334.08 30.68 334.08 39.62L334.07 39.59zM392.34 17.35C405.67 17.35 415.02 27.2 415.02 40.11 415.02 53.02 405.67 62.8 392.34 62.8 379.01 62.8 369.74 53.03 369.74 40.12 369.74 27.21 379 17.35 392.34 17.35zM392.34 52.03C399 52 401 45.66 401 40.12 401 34.58 399 28.12 392.39 28.12 385.78 28.12 383.86 34.66 383.86 40.12 383.86 45.58 385.8 52 392.34 52L392.34 52.03zM420 18.59L433.66 18.59 433.66 26.12 433.83 26.12C435.9 20.57 440.7 17.76 446.74 17.76 447.852156 17.7469435 448.962313 17.8576239 450.05 18.09L450.05 30.93C448.311511 30.3719707 446.495835 30.091857 444.67 30.1 437.67 30.1 434.07 34.9 434.07 40.28L434.07 61.55 420 61.55 420 18.59zM484 27.7L475.31 27.7 475.31 47.23C475.31 50.62 477.31 51.37 480.31 51.37 481.55 51.37 482.71 51.2 483.95 51.2L483.95 61.55C481.38 61.63 478.82 61.96 476.25 61.96 464.25 61.96 461.18 58.4 461.18 46.81L461.18 27.7 454.06 27.7 454.06 18.59 461.18 18.59 461.18 5.59 475.25 5.59 475.25 18.59 484 18.59 484 27.7zM533.79 61.55L520.13 61.55 520.13 55.68 520 55.68C517.098308 60.0840664 512.193849 62.7537724 506.92 62.8 494.55 62.8 491 55.68 491 44.42L491 18.59 505.07 18.59 505.07 43.51C505.07 49.22 507.47 51.21 512.07 51.21 515.07 51.21 519.77 49.21 519.77 41.61L519.77 18.61 533.84 18.61 533.79 61.55zM543.21 18.59L556.87 18.59 556.87 24.47 557 24.47C559.65 20.08 565.36 17.35 570.49 17.35 584.85 17.35 586 27.78 586 34L586 61.55 571.94 61.55 571.94 36.47C571.94 32.33 570.53 28.94 564.94 28.94 559.64 28.94 557.33 33.49 557.33 38.13L557.33 61.55 543.21 61.55 543.21 18.59zM609.09 13.21L595 13.21 595 2.45 609.07 2.45 609.09 13.21zM595 18.59L609.07 18.59 609.07 61.59 595 61.59 595 18.59zM644.93 27.7L636.24 27.7 636.24 47.23C636.24 50.62 638.24 51.37 641.24 51.37 642.48 51.37 643.64 51.2 644.88 51.2L644.88 61.55C642.31 61.63 639.75 61.96 637.18 61.96 625.18 61.96 622.11 58.4 622.11 46.81L622.11 27.7 615 27.7 615 18.59 622.12 18.59 622.12 5.59 636.19 5.59 636.19 18.59 644.88 18.59 644.93 27.7zM676.71 65.36C673.4 74.8 668.18 75.96 658.71 75.96L652.09 75.96 652.09 64.53 657 64.53C660.23 64.53 662.63 62.71 662.63 59.73 662.63 57.41 659.9 50.79 659.07 48.47L648 18.59 662.9 18.59 671.01 46.59 671.18 46.59 679.29 18.59 693.69 18.59 676.71 65.36zM187.9 27.18L191.9 23.41 191.9 11.96 179.92.52 140.01.52 128.04 11.96 128.04 4.33 124.05.52 108.08.52 104.09 4.33 104.09 11.96 96.11 19.59 88.13 11.96 88.13 4.33 84.13.52 68.17.52 64.18 4.33 60.19.52 44.22.52 40.23 4.33 40.23 19.59 20.28.52 4.31.52.32 4.33.32 57.74 4.31 61.56 20.28 61.56 24.27 57.74 24.27 42.48 44.22 61.56 60.19 61.56 64.18 57.74 64.18 27.22 84.13 46.3 84.13 57.74 88.13 61.56 104.09 61.56 108.08 57.74 108.08 46.3 128.04 27.22 128.04 50.11 140.01 61.56 179.92 61.56 191.9 50.11 191.9 38.66 187.9 34.85 167.95 34.85 167.95 38.66 151.99 38.66 151.99 23.41 167.95 23.41 167.95 27.18z"/></g></symbol><symbol id="icon-logo-nyco" viewBox="0 0 692 358"><path d="M42.43,252.17 C68.55,252.17 83.43,271.41 83.43,295.54 C83.43,319.67 68.51,338.91 42.43,338.91 C16.35,338.91 1.43,319.67 1.43,295.54 C1.43,271.41 16.31,252.17 42.43,252.17 Z M42.43,320.26 C56.43,320.26 61.79,308.02 61.79,295.54 C61.79,283.06 56.43,270.82 42.43,270.82 C28.43,270.82 23.07,283.06 23.07,295.54 C23.07,308.02 28.44,320.27 42.43,320.27 L42.43,320.26 Z M93.28,276.66 L112.17,276.66 L112.17,283.66 L112.4,283.66 C116.033051,278.017873 122.362999,274.699112 129.07,274.92 C148.07,274.92 156.12,291.13 156.12,308.27 C156.12,324.01 147.73,338.94 130.58,338.94 C123.23,338.94 117.4,336.14 113.32,330.66 L113.09,330.66 L113.09,357.48 L93.28,357.48 L93.28,276.66 Z M112.4,306.28 C112.4,316.89 115.4,323.77 124.4,323.77 C133.15,323.77 136.29,314.56 136.29,306.28 C136.29,298.58 133.37,290.07 124.51,290.07 C119.28,290.07 112.4,293.68 112.4,306.28 Z M165.58,276.66 L184.47,276.66 L184.47,283.66 L184.7,283.66 C188.333051,278.017873 194.662999,274.699112 201.37,274.92 C220.37,274.92 228.42,291.13 228.42,308.27 C228.42,324.01 220.03,338.94 202.88,338.94 C195.53,338.94 189.7,336.14 185.62,330.66 L185.39,330.66 L185.39,357.48 L165.58,357.48 L165.58,276.66 Z M184.7,306.28 C184.7,316.89 187.7,323.77 196.7,323.77 C205.45,323.77 208.59,314.56 208.59,306.28 C208.59,298.58 205.68,290.07 196.81,290.07 C191.58,290.07 184.7,293.68 184.7,306.28 Z M266.8,274.91 C285.57,274.91 298.75,288.79 298.75,306.97 C298.75,325.15 285.57,338.92 266.8,338.92 C248.03,338.92 235,325.17 235,307 C235,288.83 248,274.91 266.8,274.91 Z M266.8,323.76 C276.13,323.76 278.93,314.76 278.93,306.97 C278.93,299.18 276.13,290.06 266.8,290.06 C257.47,290.06 254.8,299.27 254.8,306.97 C254.8,314.67 257.59,323.77 266.8,323.77 L266.8,323.76 Z M305.75,276.66 L325,276.66 L325,287.27 L325.23,287.27 C328.15,279.46 334.91,275.49 343.42,275.49 C344.985966,275.473165 346.548935,275.630803 348.08,275.96 L348.08,294 C345.630656,293.2135 343.072496,292.818639 340.5,292.83 C330.71,292.83 325.58,299.59 325.58,307.17 L325.58,337.17 L305.75,337.17 L305.75,276.66 Z M395.89,289.49 L383.65,289.49 L383.65,317 C383.65,321.78 386.45,322.83 390.76,322.83 C392.51,322.83 394.14,322.6 395.89,322.6 L395.89,337.17 C392.28,337.29 388.66,337.75 385.05,337.75 C368.14,337.75 363.83,332.75 363.83,316.41 L363.83,289.49 L353.83,289.49 L353.83,276.66 L363.83,276.66 L363.83,258.35 L383.65,258.35 L383.65,276.66 L395.89,276.66 L395.89,289.49 Z M466.09,337.17 L446.85,337.17 L446.85,328.9 L446.62,328.9 C442.89,335.08 435.19,338.9 428.2,338.9 C410.83,338.9 405.81,328.9 405.81,313.02 L405.81,276.66 L425.63,276.66 L425.63,311.76 C425.63,319.76 429.01,322.6 435.42,322.6 C439.62,322.6 446.26,319.8 446.26,309.07 L446.26,276.66 L466.08,276.66 L466.09,337.17 Z M479.39,276.66 L498.63,276.66 L498.63,284.94 L498.86,284.94 C502.59,278.76 510.64,274.94 517.86,274.94 C538.03,274.94 539.66,289.63 539.66,298.38 L539.66,337.21 L519.85,337.21 L519.85,301.85 C519.85,296.02 517.85,291.24 509.94,291.24 C502.48,291.24 499.21,297.65 499.21,304.18 L499.21,337.18 L479.39,337.18 L479.39,276.66 Z M572.21,269.08 L552.39,269.08 L552.39,253.92 L572.21,253.92 L572.21,269.08 Z M552.39,276.66 L572.21,276.66 L572.21,337.17 L552.39,337.17 L552.39,276.66 Z M622.7,289.49 L610.46,289.49 L610.46,317 C610.46,321.78 613.26,322.83 617.57,322.83 C619.32,322.83 620.95,322.6 622.7,322.6 L622.7,337.17 C619.09,337.29 615.47,337.75 611.86,337.75 C594.95,337.75 590.64,332.75 590.64,316.41 L590.64,289.49 L580.64,289.49 L580.64,276.66 L590.64,276.66 L590.64,258.35 L610.46,258.35 L610.46,276.66 L622.7,276.66 L622.7,289.49 Z M667.48,342.54 C662.82,355.83 655.48,357.46 642.18,357.46 L632.85,357.46 L632.85,341.37 L639.73,341.37 C644.28,341.37 647.66,338.8 647.66,334.61 C647.66,331.35 643.81,322.02 642.66,318.75 L627,276.66 L648,276.66 L659.43,316.07 L659.66,316.07 L671.09,276.66 L691.38,276.66 L667.48,342.54 Z M677.15,96.59 L691.55,82.99 L691.55,41.7 L648.36,0.42 L504.37,0.42 L461.19,41.7 L461.19,14.18 L446.79,0.42 L389.19,0.42 L374.8,14.18 L374.8,41.7 L346.01,69.23 L317.21,41.7 L317.21,14.18 L302.81,0.42 L245.22,0.42 L230.82,14.18 L216.41,0.42 L158.82,0.42 L144.43,14.18 L144.43,69.23 L72.44,0.42 L14.85,0.42 L0.45,14.18 L0.45,206.85 L14.85,220.61 L72.44,220.61 L86.83,206.85 L86.83,151.8 L158.82,220.61 L216.41,220.61 L230.82,206.85 L230.82,96.75 L302.81,165.56 L302.81,206.85 L317.21,220.61 L374.8,220.61 L389.19,206.85 L389.19,165.56 L461.19,96.75 L461.19,179.32 L504.37,220.61 L648.36,220.61 L691.55,179.32 L691.55,138.04 L677.15,124.26 L605.17,124.26 L605.17,138.04 L547.58,138.04 L547.58,82.99 L605.17,82.99 L605.17,96.59 L677.15,96.59 Z" fill="currentColor" fill-rule="nonzero"/></symbol><symbol id="icon-logo-primary" viewBox="0 0 692 313"><g fill="currentColor" fill-rule="nonzero"><path d="M544.34 77.32L555.9 66.41 555.9 33.27 521.23.13 405.66.13 370.99 33.27 370.99 11.18 359.44.13 313.21.13 301.65 11.18 301.65 33.27 278.54 55.36 255.43 33.27 255.43 11.18 243.87.13 197.64.13 186.09 11.18 174.53.13 128.3.13 116.75 11.18 116.75 55.36 58.96.13 12.74.13 1.18 11.18 1.18 165.83 12.74 176.87 58.96 176.87 70.51 165.83 70.51 121.64 128.3 176.87 174.53 176.87 186.09 165.83 186.09 77.45 243.87 132.68 243.87 165.83 255.43 176.87 301.65 176.87 313.21 165.83 313.21 132.68 370.99 77.45 370.99 143.73 405.66 176.87 521.23 176.87 555.9 143.73 555.9 110.59 544.34 99.53 486.56 99.53 486.56 110.59 440.33 110.59 440.33 66.41 486.56 66.41 486.56 77.32zM1 198.59L18 198.59 25.62 228.09 25.74 228.09 33.36 198.59 50.36 198.59 50.36 242.84 39.46 242.84 39.46 209.25 39.34 209.25 30 242.84 21.2 242.84 11.9 209.25 11.78 209.25 11.78 242.84 1 242.84zM57.45 220.6C57.4195546 217.03234 59.3362619 213.73177 62.45 211.99 65.6099533 210.375001 69.1345775 209.606681 72.68 209.76 80.3 209.76 87.68 211.43 87.68 220.54L87.68 234.6C87.68 237.33 87.68 240.3 88.92 242.84L78.33 242.84C78.0016031 241.86907 77.7933857 240.861566 77.71 239.84 74.98 242.75 71.02 243.84 67.11 243.84 60.91 243.84 56.11 240.74 56.11 234.11 56.11 223.7 67.51 224.44 74.83 222.95 76.63 222.52 77.62 221.95 77.62 219.95 77.62 217.53 74.71 216.6 72.54 216.6 69.54 216.6 67.77 217.96 67.27 220.6L57.45 220.6zM71.08 237.27C76.08 237.27 77.77 234.48 77.53 227.79 76.04 228.72 73.32 228.84 71.02 229.53 68.72 230.22 66.68 231.08 66.68 233.62 66.68 236.16 68.66 237.27 71.08 237.27zM112.18 245.69C109.7 252.76 105.8 253.62 98.73 253.62L93.73 253.62 93.73 245.07 97.39 245.07C99.81 245.07 101.61 243.71 101.61 241.48 101.61 239.74 99.61 234.79 98.94 233.05L90.64 210.68 101.8 210.68 107.87 231.63 108 231.63 114.07 210.68 124.85 210.68 112.18 245.69zM143.3 209.75C153.3 209.75 160.3 217.12 160.3 226.75 160.3 236.38 153.3 243.75 143.3 243.75 133.3 243.75 126.38 236.44 126.38 226.75 126.38 217.06 133.32 209.75 143.3 209.75zM143.3 235.75C148.3 235.75 149.75 230.98 149.75 226.83 149.75 222.68 148.26 217.83 143.3 217.83 138.34 217.83 136.92 222.73 136.92 226.83 136.92 230.93 138.4 235.72 143.3 235.72L143.3 235.75zM166.18 210.68L176.4 210.68 176.4 216.32 176.52 216.32C178.07 212.17 181.66 210.06 186.19 210.06 187.02339 210.050883 187.855197 210.134734 188.67 210.31L188.67 219.92C187.377217 219.50575 186.027527 219.296548 184.67 219.3 179.46 219.3 176.74 222.89 176.74 226.92L176.74 242.85 166.18 242.85 166.18 210.68zM193 198.59L202.85 198.59 202.85 208.88C202.79 215.08 199.75 219.73 193 220.88L193 215.88C195.768674 215.379256 197.701095 212.853244 197.46 210.05L193 210.05 193 198.59zM218.74 232.25C218.685634 233.66183 219.338087 235.007983 220.48 235.84 221.630139 236.613601 222.994644 237.005459 224.38 236.96 226.38 236.96 229.38 236.03 229.38 233.55 229.38 231.07 226.03 230.64 224.23 230.14 217.6 228.47 209.29 228.28 209.29 219.6 209.29 211.92 217.66 209.75 223.98 209.75 230.98 209.75 238.48 211.75 238.79 220.16L229 220.16C229.100365 219.049529 228.576582 217.975005 227.64 217.37 226.630723 216.767971 225.462835 216.485586 224.29 216.56 222.56 216.56 219.77 216.75 219.77 218.98 219.77 221.98 226.83 222.64 231.67 223.63 238.11 224.93 239.85 229.63 239.85 232.31 239.85 240.92 231.67 243.78 224.42 243.78 216.73 243.78 208.99 241.24 208.68 232.25L218.74 232.25zM285.13 197.66C299.01 197.66 306.95 207.89 306.95 220.71 306.95 233.53 299.02 243.76 285.13 243.76 271.24 243.76 263.31 233.53 263.31 220.71 263.31 207.89 271.25 197.66 285.13 197.66zM285.13 233.85C292.57 233.85 295.42 227.34 295.42 220.71 295.42 214.08 292.57 207.57 285.13 207.57 277.69 207.57 274.84 214.08 274.84 220.71 274.84 227.34 277.69 233.86 285.13 233.86L285.13 233.85zM315.08 217.5L310 217.5 310 210.68 315.08 210.68C315.08 201.45 318.3 198.59 327.29 198.59 328.96 198.59 330.7 198.71 332.37 198.78L332.37 206.22C331.424907 206.097137 330.473038 206.03368 329.52 206.03 327.1 206.03 325.62 206.34 325.62 209.25L325.62 210.68 331.94 210.68 331.94 217.5 325.62 217.5 325.62 242.85 315.08 242.85 315.08 217.5zM338 217.5L332.92 217.5 332.92 210.68 338 210.68C338 201.45 341.22 198.59 350.21 198.59 351.88 198.59 353.62 198.71 355.29 198.78L355.29 206.22C354.344907 206.097137 353.393038 206.03368 352.44 206.03 350.02 206.03 348.54 206.34 348.54 209.25L348.54 210.68 354.86 210.68 354.86 217.5 348.54 217.5 348.54 242.85 338 242.85 338 217.5zM368.43 206.65L357.91 206.65 357.91 198.59 368.45 198.59 368.43 206.65zM357.89 210.65L368.43 210.65 368.43 242.82 357.91 242.82 357.89 210.65zM396.84 222.45C396.694571 219.751375 394.399659 217.675239 391.7 217.8 385.81 217.8 384.88 222.8 384.88 227.28 384.88 231.43 386.68 235.71 391.14 235.71 394.86 235.71 396.66 233.71 397.14 230.19L407.37 230.19C406.37 238.87 399.81 243.76 391.19 243.76 381.52 243.76 374.33 237.19 374.33 227.27 374.33 217.04 380.84 209.73 391.19 209.73 399.25 209.73 406.25 214.01 407.06 222.43L396.84 222.45zM421.63 229.33C421.82 233.79 424.36 236.64 428.82 236.64 431.36 236.64 433.82 235.52 434.82 233.11L444.67 233.11C442.67 240.55 435.87 243.77 428.67 243.77 418.2 243.77 411.07 237.45 411.07 226.66 411.07 216.81 418.94 209.74 428.42 209.74 439.95 209.74 445.71 218.42 445.22 229.32L421.63 229.33zM434.71 223.44C434.52 219.78 431.98 216.87 428.45 216.87 424.73 216.87 422.32 219.47 421.63 223.44L434.71 223.44zM472.34 217.5L467.26 217.5 467.26 210.68 472.34 210.68C472.34 201.45 475.56 198.59 484.55 198.59 486.22 198.59 487.96 198.71 489.63 198.78L489.63 206.22C488.684902 206.09719 487.733036 206.033732 486.78 206.03 484.36 206.03 482.88 206.34 482.88 209.25L482.88 210.68 489.2 210.68 489.2 217.5 482.88 217.5 482.88 242.85 472.34 242.85 472.34 217.5zM508.36 209.75C518.36 209.75 525.36 217.12 525.36 226.75 525.36 236.38 518.36 243.75 508.36 243.75 498.36 243.75 491.44 236.44 491.44 226.75 491.44 217.06 498.38 209.75 508.36 209.75zM508.36 235.75C513.36 235.75 514.8 230.98 514.8 226.83 514.8 222.68 513.31 217.83 508.36 217.83 503.41 217.83 501.98 222.73 501.98 226.83 501.98 230.93 503.46 235.72 508.36 235.72L508.36 235.75zM531.23 210.68L541.46 210.68 541.46 216.32 541.58 216.32C543.13 212.17 546.72 210.06 551.25 210.06 552.083386 210.050966 552.915184 210.134817 553.73 210.31L553.73 219.92C552.437217 219.50575 551.087527 219.296548 549.73 219.3 544.52 219.3 541.8 222.89 541.8 226.92L541.8 242.85 531.23 242.85 531.23 210.68zM.91 257.49L36.17 257.49 36.17 266.72 12.44 266.72 12.44 274.47 34.13 274.47 34.13 283.39 12.44 283.39 12.44 291.82 36.79 291.82 36.79 301.74.91 301.74zM63.89 281.35C63.7445712 278.651375 61.449659 276.575239 58.75 276.7 52.86 276.7 51.93 281.7 51.93 286.18 51.93 290.33 53.73 294.61 58.19 294.61 61.91 294.61 63.71 292.61 64.19 289.09L74.42 289.09C73.42 297.77 66.86 302.66 58.24 302.66 48.57 302.66 41.38 296.09 41.38 286.17 41.38 275.94 47.89 268.63 58.24 268.63 66.3 268.63 73.3 272.91 74.11 281.33L63.89 281.35zM95.07 268.65C105.07 268.65 112.07 276.02 112.07 285.65 112.07 295.28 105.07 302.65 95.07 302.65 85.07 302.65 78.15 295.34 78.15 285.65 78.15 275.96 85.09 268.65 95.07 268.65zM95.07 294.65C100.07 294.65 101.52 289.88 101.52 285.73 101.52 281.58 100.03 276.73 95.07 276.73 90.11 276.73 88.69 281.63 88.69 285.73 88.69 289.83 90.17 294.62 95.07 294.62L95.07 294.65zM117.58 269.58L127.8 269.58 127.8 274 127.92 274C129.92 270.72 134.18 268.67 138.02 268.67 148.74 268.67 149.61 276.48 149.61 281.13L149.61 301.77 139.08 301.77 139.08 283C139.08 279.9 138.03 277.36 133.81 277.36 129.81 277.36 128.11 280.77 128.11 284.24L128.11 301.78 117.58 301.78 117.58 269.58zM172 268.65C182 268.65 189 276.02 189 285.65 189 295.28 182 302.65 172 302.65 162 302.65 155.08 295.34 155.08 285.65 155.08 275.96 162 268.65 172 268.65zM172 294.65C177 294.65 178.45 289.88 178.45 285.73 178.45 281.58 176.96 276.73 172 276.73 167.04 276.73 165.62 281.63 165.62 285.73 165.62 289.83 167.1 294.62 172 294.62L172 294.65zM194.51 269.58L204.74 269.58 204.74 274 204.86 274C206.762387 270.70084 210.28165 268.66859 214.09 268.67 218.09 268.67 221.71 269.97 223.45 273.88 225.654255 270.526648 229.438707 268.554949 233.45 268.67 243.68 268.67 244.79 276.42 244.79 282.55L244.79 301.76 234.29 301.76 234.29 282.86C234.29 279.39 232.62 277.34 229.89 277.34 225.37 277.34 224.89 280.81 224.89 286.02L224.89 301.76 214.4 301.76 214.4 283.46C214.4 279.68 213.35 277.32 210.4 277.32 206.62 277.32 205.01 279.55 205.01 286.06L205.01 301.74 194.51 301.74 194.51 269.58zM262.82 265.55L252.28 265.55 252.28 257.49 262.82 257.49 262.82 265.55zM252.28 269.55L262.82 269.55 262.82 301.72 252.28 301.72 252.28 269.55zM291.2 281.35C291.054571 278.651375 288.759659 276.575239 286.06 276.7 280.17 276.7 279.24 281.7 279.24 286.18 279.24 290.33 281.04 294.61 285.5 294.61 289.22 294.61 291.02 292.61 291.5 289.09L301.73 289.09C300.73 297.77 294.17 302.66 285.55 302.66 275.88 302.66 268.69 296.09 268.69 286.17 268.69 275.94 275.2 268.63 285.55 268.63 293.61 268.63 300.61 272.91 301.42 281.33L291.2 281.35zM347.12 256.56C361 256.56 368.94 266.79 368.94 279.61 368.94 292.43 361.01 302.66 347.12 302.66 333.23 302.66 325.3 292.43 325.3 279.61 325.3 266.79 333.24 256.56 347.12 256.56zM347.12 292.75C354.56 292.75 357.41 286.24 357.41 279.61 357.41 272.98 354.56 266.47 347.12 266.47 339.68 266.47 336.83 272.98 336.83 279.61 336.83 286.24 339.68 292.76 347.12 292.76L347.12 292.75zM374.15 269.58L384.15 269.58 384.15 273.3 384.27 273.3C386.199672 270.299296 389.564292 268.533441 393.13 268.65 403.23 268.65 407.51 277.26 407.51 286.37 407.51 294.74 403.05 302.67 393.94 302.67 390.342267 302.817374 386.906174 301.168648 384.77 298.27L384.65 298.27 384.65 312.52 374.15 312.52 374.15 269.58zM384.31 285.32C384.31 290.96 385.92 294.62 390.69 294.62 395.46 294.62 397.01 289.72 397.01 285.32 397.01 281.23 395.46 276.71 390.75 276.71 388 276.71 384.32 278.63 384.32 285.32L384.31 285.32zM412.58 269.58L422.58 269.58 422.58 273.3 422.7 273.3C424.629672 270.299296 427.994292 268.533441 431.56 268.65 441.66 268.65 445.94 277.26 445.94 286.37 445.94 294.74 441.48 302.67 432.37 302.67 428.772267 302.817374 425.336174 301.168648 423.2 298.27L423.08 298.27 423.08 312.52 412.58 312.52 412.58 269.58zM422.74 285.32C422.74 290.96 424.35 294.62 429.12 294.62 433.89 294.62 435.44 289.72 435.44 285.32 435.44 281.23 433.89 276.71 429.18 276.71 426.4 276.71 422.75 278.63 422.75 285.32L422.74 285.32zM466.39 268.65C476.39 268.65 483.39 276.02 483.39 285.65 483.39 295.28 476.39 302.65 466.39 302.65 456.39 302.65 449.47 295.34 449.47 285.65 449.47 275.96 456.41 268.65 466.39 268.65zM466.39 294.65C471.39 294.65 472.84 289.88 472.84 285.73 472.84 281.58 471.35 276.73 466.39 276.73 461.43 276.73 460.01 281.63 460.01 285.73 460.01 289.83 461.49 294.62 466.39 294.62L466.39 294.65zM487.1 269.58L497.33 269.58 497.33 275.22 497.45 275.22C499 271.07 502.59 268.96 507.12 268.96 507.953386 268.950966 508.785184 269.034817 509.6 269.21L509.6 278.82C508.307217 278.40575 506.957527 278.196548 505.6 278.2 500.39 278.2 497.67 281.79 497.67 285.82L497.67 301.75 487.1 301.75 487.1 269.58zM535 276.4L528.5 276.4 528.5 291C528.5 293.54 529.99 294.1 532.28 294.1 533.21 294.1 534.08 293.98 535.01 293.98L535.01 301.73C533.09 301.79 531.17 302.04 529.25 302.04 520.25 302.04 517.97 299.38 517.97 290.7L517.97 276.4 512.64 276.4 512.64 269.58 518 269.58 518 259.85 528.5 259.85 528.5 269.58 535 269.58 535 276.4zM572.32 301.74L562.1 301.74 562.1 297.34 562 297.34C559.828161 300.636424 556.157413 302.634901 552.21 302.67 542.98 302.67 540.31 297.34 540.31 288.91L540.31 269.58 550.85 269.58 550.85 288.23C550.85 292.51 552.65 293.99 556.06 293.99 558.29 293.99 561.82 292.5 561.82 286.8L561.82 269.58 572.36 269.58 572.32 301.74zM579.4 269.58L589.63 269.58 589.63 274 589.75 274C591.75 270.72 596.01 268.67 599.85 268.67 610.57 268.67 611.44 276.48 611.44 281.13L611.44 301.77 600.9 301.77 600.9 283C600.9 279.9 599.85 277.36 595.63 277.36 591.63 277.36 589.93 280.77 589.93 284.24L589.93 301.78 579.4 301.78 579.4 269.58zM628.74 265.55L618.2 265.55 618.2 257.49 628.74 257.49 628.74 265.55zM618.2 269.55L628.74 269.55 628.74 301.72 618.2 301.72 618.2 269.55zM655.58 276.4L649.07 276.4 649.07 291C649.07 293.54 650.56 294.1 652.85 294.1 653.78 294.1 654.65 293.98 655.58 293.98L655.58 301.73C653.66 301.79 651.74 302.04 649.82 302.04 640.82 302.04 638.54 299.38 638.54 290.7L638.54 276.4 633.21 276.4 633.21 269.58 638.54 269.58 638.54 259.85 649.08 259.85 649.08 269.58 655.59 269.58 655.58 276.4zM679.38 304.6C676.9 311.67 673 312.53 665.93 312.53L660.93 312.53 660.93 304 664.59 304C667.01 304 668.8 302.64 668.8 300.41 668.8 298.67 666.8 293.72 666.14 291.98L657.84 269.61 669 269.61 675.07 290.56 675.19 290.56 681.26 269.61 692.04 269.61 679.38 304.6z"/></g></symbol><symbol id="icon-logo-secondary" viewBox="0 0 692 121"><g fill="currentColor" fill-rule="nonzero"><path d="M367.84 53.03L375.66 45.65 375.66 23.23 352.2.81 274.02.81 250.57 23.23 250.57 8.29 242.75.81 211.47.81 203.66 8.29 203.66 23.23 188.03 38.18 172.39 23.23 172.39 8.29 164.57.81 133.3.81 125.48 8.29 117.66.81 86.39.81 78.57 8.29 78.57 38.18 39.48.81 8.21.81.38 8.29.38 112.91 8.21 120.38 39.48 120.38 47.29 112.91 47.29 83.02 86.39 120.38 117.66 120.38 125.48 112.91 125.48 53.12 164.57 90.49 164.57 112.91 172.39 120.38 203.66 120.38 211.47 112.91 211.47 90.49 250.57 53.12 250.57 97.96 274.02 120.38 352.2 120.38 375.66 97.96 375.66 75.54 367.84 68.06 328.75 68.06 328.75 75.54 297.48 75.54 297.48 45.65 328.75 45.65 328.75 53.03zM391 3.33L402.49 3.33 407.65 23.33 407.73 23.33 412.89 3.33 424.38 3.33 424.38 33.33 417.04 33.33 417.04 10.54 417 10.54 410.7 33.28 404.7 33.28 398.41 10.54 398.33 10.54 398.33 33.28 391 33.28zM429.23 18.22C429.213269 15.8014893 430.516783 13.5663456 432.63 12.39 434.767578 11.2975633 437.151643 10.777341 439.55 10.88 444.71 10.88 449.7 12.01 449.7 18.18L449.7 27.7C449.557667 29.5994702 449.844764 31.5066156 450.54 33.28L443.37 33.28C443.143457 32.6138552 443.002331 31.9216637 442.95 31.22 441.032489 33.0713431 438.4316 34.0421486 435.77 33.9 431.57 33.9 428.35 31.8 428.35 27.31 428.35 20.31 436.07 20.77 441.02 19.76 442.24 19.47 442.9 19.09 442.9 17.76 442.9 16.12 440.9 15.5 439.46 15.5 437.4 15.5 436.23 16.42 435.89 18.23L429.23 18.22zM438.46 29.5C441.86 29.5 442.99 27.61 442.82 23.08 441.82 23.71 439.97 23.79 438.42 24.25 436.87 24.71 435.48 25.25 435.48 27.02 435.48 28.79 436.83 29.5 438.46 29.5zM466.26 35.21C464.58 39.99 461.94 40.58 457.16 40.58L453.8 40.58 453.8 34.79 456.28 34.79C457.92 34.79 459.13 33.87 459.13 32.36 459.13 31.18 457.75 27.83 457.33 26.66L451.71 11.52 459.26 11.52 463.37 25.7 463.46 25.7 467.57 11.52 474.87 11.52 466.26 35.21zM487.32 10.88C490.403685 10.7869371 493.388325 11.9745425 495.565071 14.1607609 497.741817 16.3469793 498.916452 19.3367481 498.81 22.42 498.81 28.7547061 493.674706 33.89 487.34 33.89 481.005294 33.89 475.87 28.7547061 475.87 22.42 475.755177 19.3413827 476.921539 16.3528808 479.091419 14.1659448 481.2613 11.9790088 484.240578 10.7892842 487.32 10.88zM487.32 28.46C490.67 28.46 491.68 25.23 491.68 22.46 491.68 19.69 490.68 16.38 487.32 16.38 483.96 16.38 483 19.65 483 22.41 483 25.17 484 28.45 487.32 28.45L487.32 28.46zM502.79 11.51L509.71 11.51 509.71 15.33 509.8 15.33C510.799618 12.6236176 513.461306 10.8979973 516.34 11.09 516.904572 11.0841698 517.46804 11.1411874 518.02 11.26L518.02 17.76C517.13782 17.4770048 516.216447 17.3352552 515.29 17.34 513.87278 17.2339725 512.477402 17.7360503 511.452638 18.7207395 510.427874 19.7054287 509.870562 21.0796798 509.92 22.5L509.92 33.28 502.79 33.28 502.79 11.51zM520.91 3.33L527.58 3.33 527.58 10.33C527.58 14.52 525.48 17.67 520.91 18.47L520.91 15.07C522.773646 14.7223152 524.070597 13.018986 523.91 11.13L520.91 11.13 520.91 3.33zM538.35 26.11C538.31142 27.0642106 538.749999 27.975106 539.52 28.54 540.298113 29.0647999 541.221954 29.3307541 542.16 29.3 543.5 29.3 545.52 28.67 545.52 26.99 545.52 25.31 543.25 24.99 542.04 24.68 537.55 23.55 531.93 23.42 531.93 17.55 531.93 12.35 537.59 10.88 541.87 10.88 546.61 10.88 551.69 12.26 551.87 17.88L545.29 17.88C545.365816 17.126643 545.009703 16.3950623 544.37 15.99 543.686316 15.5814449 542.894865 15.3896836 542.1 15.44 540.93 15.44 539.04 15.57 539.04 17.08 539.04 19.08 543.82 19.56 547.09 20.23 551.45 21.11 552.63 24.3 552.63 26.1 552.63 31.93 547.09 33.86 542.19 33.86 536.99 33.86 531.74 32.14 531.53 26.06L538.35 26.11zM583.27 2.7C592.67 2.7 598.04 9.62 598.04 18.3 598.04 26.98 592.67 33.9 583.27 33.9 573.87 33.9 568.5 27 568.5 18.3 568.5 9.6 573.87 2.7 583.27 2.7zM583.27 27.2C588.27 27.2 590.27 22.8 590.27 18.31 590.27 13.82 588.34 9.42 583.27 9.42 578.2 9.42 576.27 13.82 576.27 18.31 576.27 22.8 578.24 27.2 583.27 27.2zM603.52 16.12L600.08 16.12 600.08 11.51 603.52 11.51C603.52 5.26 605.7 3.33 611.79 3.33 612.92 3.33 614.1 3.41 615.23 3.46L615.23 8.46C614.590053 8.37600114 613.945431 8.33258105 613.3 8.33 611.67 8.33 610.66 8.54 610.66 10.51L610.66 11.51 614.94 11.51 614.94 16.12 610.66 16.12 610.66 33.28 603.53 33.28 603.52 16.12zM619 16.12L615.6 16.12 615.6 11.51 619 11.51C619 5.26 621.18 3.33 627.26 3.33 628.39 3.33 629.57 3.41 630.7 3.46L630.7 8.46C630.060042 8.37610727 629.415428 8.33268764 628.77 8.33 627.14 8.33 626.13 8.54 626.13 10.51L626.13 11.51 630.41 11.51 630.41 16.12 626.13 16.12 626.13 33.28 619 33.28 619 16.12zM639.6 8.78L632.5 8.78 632.5 3.33 639.63 3.33 639.6 8.78zM632.47 11.51L639.6 11.51 639.6 33.28 632.5 33.28 632.47 11.51zM658.84 19.48C658.743024 17.6519531 657.188641 16.2449693 655.36 16.33 651.36 16.33 650.75 19.73 650.75 22.75 650.75 25.56 651.97 28.45 654.99 28.45 657.51 28.45 658.72 27.07 659.06 24.72L666 24.72C665.33 30.59 660.88 33.91 655.05 33.91 648.51 33.91 643.64 29.46 643.64 22.75 643.64 15.83 648.04 10.88 655.05 10.88 660.5 10.88 665.24 13.77 665.79 19.48L658.84 19.48zM675.61 24.13C675.74 27.13 677.46 29.13 680.48 29.13 682.199691 29.2487555 683.815919 28.2996682 684.55 26.74L691.22 26.74C689.88 31.74 685.22 33.96 680.4 33.96 673.31 33.96 668.49 29.68 668.49 22.38 668.483458 19.2906243 669.72777 16.330169 671.939439 14.1731325 674.151108 12.0160961 677.141754 10.846204 680.23 10.93 688.03 10.93 691.94 16.8 691.6 24.19L675.61 24.13zM684.46 20.13C684.499453 17.7375221 682.611591 15.756157 680.22 15.68 677.7 15.68 676.07 17.44 675.61 20.13L684.46 20.13zM392.24 56L388.8 56 388.8 51.35 392.24 51.35C392.24 45.1 394.42 43.17 400.5 43.17 401.63 43.17 402.81 43.25 403.94 43.3L403.94 48.3C403.296095 48.2257138 402.64813 48.1923135 402 48.2 400.37 48.2 399.36 48.41 399.36 50.38L399.36 51.38 403.64 51.38 403.64 56 399.36 56 399.36 73.12 392.23 73.12 392.24 56zM416.61 50.72C419.693685 50.6269371 422.678325 51.8145425 424.855071 54.0007609 427.031817 56.1869793 428.206452 59.1767481 428.1 62.26 428.1 68.5974675 422.962468 73.735 416.625 73.735 410.287532 73.735 405.15 68.5974675 405.15 62.26 405.035027 59.1795937 406.202733 56.1894587 408.374831 54.0021975 410.546929 51.8149364 413.528868 50.6264587 416.61 50.72zM416.61 68.3C419.97 68.3 420.97 65.07 420.97 62.3 420.97 59.53 419.97 56.22 416.61 56.22 413.25 56.22 412.29 59.53 412.29 62.3 412.29 65.07 413.3 68.3 416.61 68.3zM432.08 51.35L439 51.35 439 55.17 439.08 55.17C440.083397 52.4620538 442.748603 50.7367909 445.63 50.93 446.194576 50.9240868 446.758053 50.9811053 447.31 51.1L447.31 57.6C446.427859 57.3168409 445.50646 57.1750872 444.58 57.18 443.16278 57.0739725 441.767402 57.5760503 440.742638 58.5607395 439.717874 59.5454287 439.160562 60.9196798 439.21 62.34L439.21 73.12 432.08 73.12 432.08 51.35zM463.2 43.17L487.07 43.17 487.07 49.42 471 49.42 471 54.66 485.68 54.66 485.68 60.66 471 60.66 471 66.36 487.49 66.36 487.49 73.07 463.2 73.07zM505.81 59.32C505.713024 57.4919531 504.158641 56.0849693 502.33 56.17 498.33 56.17 497.72 59.57 497.72 62.59 497.72 65.4 498.94 68.29 501.96 68.29 504.48 68.29 505.69 66.91 506.03 64.56L512.95 64.56C512.28 70.43 507.83 73.75 502 73.75 495.46 73.75 490.59 69.3 490.59 62.59 490.59 55.67 494.99 50.72 502 50.72 507.45 50.72 512.19 53.61 512.74 59.32L505.81 59.32zM526.91 50.72C529.993685 50.6269371 532.978325 51.8145425 535.155071 54.0007609 537.331817 56.1869793 538.506452 59.1767481 538.4 62.26 538.4 68.5974675 533.262468 73.735 526.925 73.735 520.587532 73.735 515.45 68.5974675 515.45 62.26 515.335027 59.1795937 516.502733 56.1894587 518.674831 54.0021975 520.846929 51.8149364 523.828868 50.6264587 526.91 50.72zM526.91 68.3C530.27 68.3 531.27 65.07 531.27 62.3 531.27 59.53 530.27 56.22 526.91 56.22 523.55 56.22 522.59 59.53 522.59 62.3 522.59 65.07 523.59 68.3 526.91 68.3zM542.13 51.35L549 51.35 549 54.35 549.08 54.35C550.634722 52.0591778 553.231517 50.6969861 556 50.72 563.26 50.72 563.84 56.01 563.84 59.15L563.84 73.15 556.71 73.15 556.71 60.41C556.71 58.31 556 56.59 553.15 56.59 550.47 56.59 549.29 58.9 549.29 61.25L549.29 73.12 542.16 73.12 542.13 51.35zM578.95 50.72C582.033685 50.6269371 585.018325 51.8145425 587.195071 54.0007609 589.371817 56.1869793 590.546452 59.1767481 590.44 62.26 590.44 68.5974675 585.302468 73.735 578.965 73.735 572.627532 73.735 567.49 68.5974675 567.49 62.26 567.375027 59.1795937 568.542733 56.1894587 570.714831 54.0021975 572.886929 51.8149364 575.868868 50.6264587 578.95 50.72zM578.95 68.3C582.3 68.3 583.31 65.07 583.31 62.3 583.31 59.53 582.31 56.22 578.95 56.22 575.59 56.22 574.63 59.53 574.63 62.3 574.63 65.07 575.63 68.3 578.95 68.3zM594.17 51.35L601.09 51.35 601.09 54.35 601.18 54.35C602.466216 52.1139337 604.8504 50.7368288 607.43 50.74 610.16 50.74 612.59 51.62 613.76 54.26 615.259245 51.982802 617.835085 50.6494259 620.56 50.74 627.48 50.74 628.24 55.98 628.24 60.14L628.24 73.14 621.1 73.14 621.1 60.33C621.1 57.98 619.97 56.6 618.1 56.6 615.04 56.6 614.75 58.95 614.75 62.47L614.75 73.12 607.62 73.12 607.62 60.75C607.62 58.19 606.91 56.6 604.94 56.6 602.38 56.6 601.29 58.11 601.29 62.51L601.29 73.12 594.16 73.12 594.17 51.35zM640.38 48.62L633.25 48.62 633.25 43.17 640.38 43.17 640.38 48.62zM633.25 51.35L640.38 51.35 640.38 73.12 633.25 73.12 633.25 51.35zM659.6 59.32C659.503024 57.4919531 657.948641 56.0849693 656.12 56.17 652.12 56.17 651.51 59.57 651.51 62.59 651.51 65.4 652.73 68.29 655.75 68.29 658.27 68.29 659.49 66.91 659.82 64.56L666.74 64.56C666.07 70.43 661.62 73.75 655.79 73.75 649.25 73.75 644.38 69.3 644.38 62.59 644.38 55.67 648.78 50.72 655.79 50.72 661.24 50.72 665.98 53.61 666.53 59.32L659.6 59.32zM404.62 82.4C414.02 82.4 419.39 89.32 419.39 98 419.39 106.68 414.02 113.6 404.62 113.6 395.22 113.6 389.85 106.68 389.85 98 389.85 89.32 395.22 82.4 404.62 82.4zM404.62 106.9C409.62 106.9 411.62 102.5 411.62 98.01 411.62 93.52 409.69 89.12 404.62 89.12 399.55 89.12 397.62 93.52 397.62 98.01 397.62 102.5 399.58 106.9 404.62 106.9zM422.89 91.21L429.69 91.21 429.69 93.73 429.77 93.73C431.076974 91.6980173 433.355246 90.5019248 435.77 90.58 442.61 90.58 445.5 96.41 445.5 102.58 445.5 108.24 442.5 113.58 436.31 113.58 433.869833 113.675301 431.542063 112.550774 430.1 110.58L430 110.58 430 120.23 422.87 120.23 422.89 91.21zM429.77 101.86C429.77 105.68 430.86 108.15 434.09 108.15 437.32 108.15 438.37 104.84 438.37 101.86 438.37 99.09 437.37 96.03 434.13 96.03 432.25 96 429.77 97.33 429.77 101.86zM448.88 91.21L455.68 91.21 455.68 93.73 455.76 93.73C457.065579 91.6964939 459.344784 90.4999111 461.76 90.58 468.6 90.58 471.49 96.41 471.49 102.58 471.49 108.24 468.49 113.58 462.3 113.58 459.85946 113.67709 457.530893 112.552179 456.09 110.58L456 110.58 456 120.23 448.87 120.23 448.88 91.21zM455.76 101.86C455.76 105.68 456.85 108.15 460.08 108.15 463.31 108.15 464.36 104.84 464.36 101.86 464.36 99.09 463.31 96.03 460.12 96.03 458.24 96 455.76 97.33 455.76 101.86zM485.28 90.58C489.943849 90.5516673 494.164612 93.3382241 495.970922 97.6381693 497.777232 101.938115 496.812643 106.902922 493.527679 110.213706 490.242715 113.524491 485.285612 114.527923 480.971656 112.755333 476.6577 110.982744 473.838183 106.783927 473.83 102.12 473.724109 99.0438929 474.893362 96.0606268 477.06125 93.8756988 479.229138 91.6907708 482.203158 90.4981959 485.28 90.58zM485.28 108.16C488.64 108.16 489.64 104.93 489.64 102.16 489.64 99.39 488.64 96.08 485.28 96.08 481.92 96.08 480.96 99.39 480.96 102.16 480.96 104.93 482 108.16 485.28 108.16zM499.28 91.21L506.2 91.21 506.2 95 506.28 95C507.279618 92.2936176 509.941306 90.5679973 512.82 90.76 513.384572 90.7541698 513.94804 90.8111874 514.5 90.93L514.5 97.43C513.617859 97.1468409 512.69646 97.0050872 511.77 97.01 510.35278 96.9039725 508.957402 97.4060503 507.932638 98.3907395 506.907874 99.3754287 506.350562 100.74968 506.4 102.17L506.4 113 499.27 113 499.28 91.21zM531.69 95.82L527.29 95.82 527.29 105.72C527.29 107.44 528.29 107.82 529.85 107.82 530.48 107.82 531.07 107.74 531.7 107.74L531.7 113C530.4 113 529.1 113.21 527.8 113.21 521.72 113.21 520.16 111.41 520.16 105.53L520.16 95.82 516.55 95.82 516.55 91.21 520.16 91.21 520.16 84.62 527.29 84.62 527.29 91.21 531.69 91.21 531.69 95.82zM556.94 113L550 113 550 110 549.92 110C548.452397 112.235956 545.964506 113.590599 543.29 113.61 537.04 113.61 535.24 110 535.24 104.3L535.24 91.21 542.37 91.21 542.37 103.84C542.37 106.73 543.59 107.74 545.9 107.74 547.41 107.74 549.8 106.74 549.8 102.87L549.8 91.21 556.93 91.21 556.94 113zM561.71 91.21L568.63 91.21 568.63 94.21 568.72 94.21C570.263387 91.9503224 572.823545 90.5991278 575.56 90.6 582.81 90.6 583.4 95.89 583.4 99.03L583.4 113.03 576.27 113.03 576.27 100.27C576.27 98.17 575.56 96.45 572.71 96.45 570.03 96.45 568.85 98.76 568.85 101.11L568.85 113 561.72 113 561.71 91.21zM595.08 88.48L587.95 88.48 587.95 83 595.08 83 595.08 88.48zM587.95 91.21L595.08 91.21 595.08 113 587.95 113 587.95 91.21zM613.24 95.82L608.84 95.82 608.84 105.72C608.84 107.44 609.84 107.82 611.4 107.82 612.03 107.82 612.62 107.74 613.24 107.74L613.24 113C611.94 113 610.64 113.21 609.34 113.21 603.26 113.21 601.7 111.41 601.7 105.53L601.7 95.82 598.1 95.82 598.1 91.21 601.7 91.21 601.7 84.62 608.83 84.62 608.83 91.21 613.23 91.21 613.24 95.82zM629.34 114.91C627.66 119.69 625.02 120.28 620.24 120.28L616.89 120.28 616.89 114.49 619.37 114.49C621 114.49 622.22 113.57 622.22 112.06 622.22 110.89 620.84 107.53 620.41 106.36L614.79 91.22 622.34 91.22 626.45 105.4 626.53 105.4 630.64 91.22 637.94 91.22 629.34 114.91z"/></g></symbol><symbol id="icon-logo" viewBox="0 0 700 368.57"><g fill="currentColor"><path class="cls-1" d="M46.43 258.17c26.12 0 41 19.24 41 43.37s-14.92 43.37-41 43.37-41-19.24-41-43.37 14.88-43.37 41-43.37zm0 68.09c14 0 19.36-12.24 19.36-24.72s-5.36-24.72-19.36-24.72-19.36 12.24-19.36 24.72 5.37 24.73 19.36 24.73zM97.28 282.66h18.89v7h.23a19.08 19.08 0 0 1 16.67-8.74c19 0 27.05 16.21 27.05 33.35 0 15.74-8.39 30.67-25.54 30.67-7.35 0-13.18-2.8-17.26-8.28h-.23v26.82H97.28zm19.12 29.62c0 10.61 3 17.49 12 17.49 8.75 0 11.89-9.21 11.89-17.49 0-7.7-2.92-16.21-11.78-16.21-5.23 0-12.11 3.61-12.11 16.21zM169.58 282.66h18.89v7h.23a19.08 19.08 0 0 1 16.67-8.74c19 0 27.05 16.21 27.05 33.35 0 15.74-8.39 30.67-25.54 30.67-7.35 0-13.18-2.8-17.26-8.28h-.23v26.82h-19.81zm19.12 29.62c0 10.61 3 17.49 12 17.49 8.75 0 11.89-9.21 11.89-17.49 0-7.7-2.91-16.21-11.78-16.21-5.23 0-12.11 3.61-12.11 16.21zM270.8 280.91c18.77 0 31.95 13.88 31.95 32.06s-13.18 31.95-31.95 31.95S239 331.17 239 313s13-32.09 31.8-32.09zm0 48.85c9.33 0 12.13-9 12.13-16.79s-2.8-16.91-12.13-16.91-12 9.21-12 16.91 2.79 16.8 12 16.8zM309.75 282.66H329v10.61h.23c2.92-7.81 9.68-11.78 18.19-11.78a21.09 21.09 0 0 1 4.66.47V300a24.44 24.44 0 0 0-7.58-1.17c-9.79 0-14.92 6.76-14.92 14.34v30h-19.83zM399.89 295.49h-12.24V323c0 4.78 2.8 5.83 7.11 5.83 1.75 0 3.38-.23 5.13-.23v14.57c-3.61.12-7.23.58-10.84.58-16.91 0-21.22-5-21.22-21.34v-26.92h-10v-12.83h10v-18.31h19.82v18.31h12.24zM470.09 343.17h-19.24v-8.27h-.23c-3.73 6.18-11.43 10-18.42 10-17.37 0-22.39-10-22.39-25.88v-36.36h19.82v35.1c0 8 3.38 10.84 9.79 10.84 4.2 0 10.84-2.8 10.84-13.53v-32.41h19.82zM483.39 282.66h19.24v8.28h.23c3.73-6.18 11.78-10 19-10 20.17 0 21.8 14.69 21.8 23.44v38.83h-19.81v-35.36c0-5.83-2-10.61-9.91-10.61-7.46 0-10.73 6.41-10.73 12.94v33h-19.82zM576.21 275.08h-19.82v-15.16h19.82zm-19.82 7.58h19.82v60.51h-19.82zM626.7 295.49h-12.24V323c0 4.78 2.8 5.83 7.11 5.83 1.75 0 3.38-.23 5.13-.23v14.57c-3.61.12-7.23.58-10.84.58-16.91 0-21.22-5-21.22-21.34v-26.92h-10v-12.83h10v-18.31h19.82v18.31h12.24zM671.48 348.54c-4.66 13.29-12 14.92-25.3 14.92h-9.33v-16.09h6.88c4.55 0 7.93-2.57 7.93-6.76 0-3.26-3.85-12.59-5-15.86L631 282.66h21l11.43 39.41h.23l11.43-39.41h20.29zM681.15 102.59l14.4-13.6V47.7L652.36 6.42H508.37L465.19 47.7V20.18l-14.4-13.76h-57.6L378.8 20.18V47.7l-28.79 27.53-28.8-27.53V20.18l-14.4-13.76h-57.59l-14.4 13.76-14.41-13.76h-57.59l-14.39 13.76v55.05L76.44 6.42H18.85L4.45 20.18v192.67l14.4 13.76h57.59l14.39-13.76V157.8l71.99 68.81h57.59l14.41-13.76v-110.1l71.99 68.81v41.29l14.4 13.76h57.59l14.39-13.76v-41.29l72-68.81v82.57l43.18 41.29h143.99l43.19-41.29v-41.28l-14.4-13.78h-71.98v13.78h-57.59V88.99h57.59v13.6h71.98z"/></g></symbol></svg>