<svg><defs/><symbol id="icon-github-mark" viewBox="0 0 33 33"><path d="M16.608.455C7.614.455.32 7.748.32 16.745c0 7.197 4.667 13.302 11.14 15.456.815.15 1.112-.353 1.112-.785 0-.387-.014-1.411-.022-2.77-4.531.984-5.487-2.184-5.487-2.184-.741-1.882-1.809-2.383-1.809-2.383-1.479-1.01.112-.99.112-.99 1.635.115 2.495 1.679 2.495 1.679 1.453 2.489 3.813 1.77 4.741 1.353.148-1.052.569-1.77 1.034-2.177-3.617-.411-7.42-1.809-7.42-8.051 0-1.778.635-3.233 1.677-4.371-.168-.412-.727-2.069.16-4.311 0 0 1.367-.438 4.479 1.67a15.602 15.602 0 0 1 4.078-.549 15.62 15.62 0 0 1 4.078.549c3.11-2.108 4.475-1.67 4.475-1.67.889 2.242.33 3.899.163 4.311C26.37 12.66 27 14.115 27 15.893c0 6.258-3.809 7.635-7.437 8.038.584.503 1.105 1.497 1.105 3.016 0 2.178-.02 3.935-.02 4.469 0 .436.294.943 1.12.784 6.468-2.159 11.131-8.26 11.131-15.455 0-8.997-7.294-16.29-16.291-16.29" fill="currentColor" fill-rule="evenodd"/></symbol><symbol id="icon-logo-nyc" viewBox="0 0 350 117"><path d="M327.9 0H255l-21.8 21.9v72.8l21.8 21.9h72.9l21.8-21.9V72.9l-7.2-7.3H306v7.3h-29.1V43.7H306v7.2h36.5l7.2-7.2V21.9L327.9 0zM109.3 0H80.1l-7.2 7.3v29.1L36.4 0H7.3L0 7.3v102l7.3 7.3h29.1l7.3-7.3V80.1l36.4 36.5h29.2l7.3-7.3V7.3L109.3 0zm51 116.6h29.1l7.3-7.3V87.4L233.2 51V7.3L225.9 0h-29.2l-7.3 7.3v14.6l-14.5 14.5-14.6-14.5V7.3L153 0h-29.1l-7.3 7.3V51L153 87.4v21.9l7.3 7.3z" fill="currentColor" fill-rule="nonzero"/></symbol><symbol id="icon-logo-nyco-secondary" viewBox="0 0 694 76"><g fill="currentColor" fill-rule="nonzero"><path d="M233.11 1.21c18.54 0 29.14 13.66 29.14 30.79s-10.6 30.8-29.14 30.8S204 49.14 204 32s10.57-30.79 29.11-30.79zm0 48.34c9.93 0 13.74-8.69 13.74-17.55 0-8.86-3.85-17.55-13.74-17.55s-13.74 8.7-13.74 17.55c0 8.85 3.81 17.55 13.74 17.55zM269.19 18.59h13.41v5h.17a13.54 13.54 0 0 1 11.84-6.21c13.49 0 19.2 11.51 19.2 23.67 0 11.18-6 21.77-18.13 21.77a14.49 14.49 0 0 1-12.25-5.88h-.17V76h-14.07V18.59zm13.57 21c0 7.53 2.15 12.42 8.53 12.42 6.21 0 8.44-6.54 8.44-12.42 0-5.46-2.07-11.51-8.36-11.51-3.72.03-8.6 2.6-8.6 11.54l-.01-.03zM320.5 18.59h13.41v5h.17a13.54 13.54 0 0 1 11.84-6.21c13.49 0 19.2 11.51 19.2 23.67 0 11.18-6 21.77-18.13 21.77a14.48 14.48 0 0 1-12.25-5.88h-.17V76H320.5V18.59zm13.57 21c0 7.53 2.15 12.42 8.53 12.42 6.21 0 8.44-6.54 8.44-12.42 0-5.46-2.07-11.51-8.36-11.51-3.68.03-8.6 2.6-8.6 11.54l-.01-.03zM392.34 17.35c13.33 0 22.68 9.85 22.68 22.76 0 12.91-9.35 22.69-22.68 22.69s-22.6-9.77-22.6-22.68 9.26-22.77 22.6-22.77zm0 34.68C399 52 401 45.66 401 40.12s-2-12-8.61-12c-6.61 0-8.53 6.54-8.53 12S385.8 52 392.34 52v.03zM420 18.59h13.66v7.53h.17c2.07-5.55 6.87-8.36 12.91-8.36a15 15 0 0 1 3.31.33v12.84a17.35 17.35 0 0 0-5.38-.83c-7 0-10.6 4.8-10.6 10.18v21.27H420V18.59zM484 27.7h-8.69v19.53c0 3.39 2 4.14 5 4.14 1.24 0 2.4-.17 3.64-.17v10.35c-2.57.08-5.13.41-7.7.41-12 0-15.07-3.56-15.07-15.15V27.7h-7.12v-9.11h7.12v-13h14.07v13H484v9.11zM533.79 61.55h-13.66v-5.87H520a15.83 15.83 0 0 1-13.08 7.12c-12.37 0-15.92-7.12-15.92-18.38V18.59h14.07v24.92c0 5.71 2.4 7.7 7 7.7 3 0 7.7-2 7.7-9.6v-23h14.07l-.05 42.94zM543.21 18.59h13.66v5.88h.13c2.65-4.39 8.36-7.12 13.49-7.12C584.85 17.35 586 27.78 586 34v27.55h-14.06V36.47c0-4.14-1.41-7.53-7-7.53-5.3 0-7.61 4.55-7.61 9.19v23.42h-14.12V18.59zM609.09 13.21H595V2.45h14.07l.02 10.76zM595 18.59h14.07v43H595v-43zM644.93 27.7h-8.69v19.53c0 3.39 2 4.14 5 4.14 1.24 0 2.4-.17 3.64-.17v10.35c-2.57.08-5.13.41-7.7.41-12 0-15.07-3.56-15.07-15.15V27.7H615v-9.11h7.12v-13h14.07v13h8.69l.05 9.11zM676.71 65.36c-3.31 9.44-8.53 10.6-18 10.6h-6.62V64.53H657c3.23 0 5.63-1.82 5.63-4.8 0-2.32-2.73-8.94-3.56-11.26L648 18.59h14.9l8.11 28h.17l8.11-28h14.4l-16.98 46.77zM187.9 27.18l4-3.77V11.96L179.92.52h-39.91l-11.97 11.44V4.33L124.05.52h-15.97l-3.99 3.81v7.63l-7.98 7.63-7.98-7.63V4.33l-4-3.81H68.17l-3.99 3.81L60.19.52H44.22l-3.99 3.81v15.26L20.28.52H4.31L.32 4.33v53.41l3.99 3.82h15.97l3.99-3.82V42.48l19.95 19.08h15.97l3.99-3.82V27.22L84.13 46.3v11.44l4 3.82h15.96l3.99-3.82V46.3l19.96-19.08v22.89l11.97 11.45h39.91l11.98-11.45V38.66l-4-3.81h-19.95v3.81h-15.96V23.41h15.96v3.77z"/></g></symbol><symbol id="icon-logo-nyco" viewBox="0 0 692 358"><path d="M42.43 252.17c26.12 0 41 19.24 41 43.37s-14.92 43.37-41 43.37-41-19.24-41-43.37 14.88-43.37 41-43.37zm0 68.09c14 0 19.36-12.24 19.36-24.72 0-12.48-5.36-24.72-19.36-24.72s-19.36 12.24-19.36 24.72c0 12.48 5.37 24.73 19.36 24.73v-.01zm50.85-43.6h18.89v7h.23a19.08 19.08 0 0 1 16.67-8.74c19 0 27.05 16.21 27.05 33.35 0 15.74-8.39 30.67-25.54 30.67-7.35 0-13.18-2.8-17.26-8.28h-.23v26.82H93.28v-80.82zm19.12 29.62c0 10.61 3 17.49 12 17.49 8.75 0 11.89-9.21 11.89-17.49 0-7.7-2.92-16.21-11.78-16.21-5.23 0-12.11 3.61-12.11 16.21zm53.18-29.62h18.89v7h.23a19.08 19.08 0 0 1 16.67-8.74c19 0 27.05 16.21 27.05 33.35 0 15.74-8.39 30.67-25.54 30.67-7.35 0-13.18-2.8-17.26-8.28h-.23v26.82h-19.81v-80.82zm19.12 29.62c0 10.61 3 17.49 12 17.49 8.75 0 11.89-9.21 11.89-17.49 0-7.7-2.91-16.21-11.78-16.21-5.23 0-12.11 3.61-12.11 16.21zm82.1-31.37c18.77 0 31.95 13.88 31.95 32.06s-13.18 31.95-31.95 31.95S235 325.17 235 307s13-32.09 31.8-32.09zm0 48.85c9.33 0 12.13-9 12.13-16.79 0-7.79-2.8-16.91-12.13-16.91-9.33 0-12 9.21-12 16.91 0 7.7 2.79 16.8 12 16.8v-.01zm38.95-47.1H325v10.61h.23c2.92-7.81 9.68-11.78 18.19-11.78a21.09 21.09 0 0 1 4.66.47V294a24.44 24.44 0 0 0-7.58-1.17c-9.79 0-14.92 6.76-14.92 14.34v30h-19.83v-60.51zm90.14 12.83h-12.24V317c0 4.78 2.8 5.83 7.11 5.83 1.75 0 3.38-.23 5.13-.23v14.57c-3.61.12-7.23.58-10.84.58-16.91 0-21.22-5-21.22-21.34v-26.92h-10v-12.83h10v-18.31h19.82v18.31h12.24v12.83zm70.2 47.68h-19.24v-8.27h-.23c-3.73 6.18-11.43 10-18.42 10-17.37 0-22.39-10-22.39-25.88v-36.36h19.82v35.1c0 8 3.38 10.84 9.79 10.84 4.2 0 10.84-2.8 10.84-13.53v-32.41h19.82l.01 60.51zm13.3-60.51h19.24v8.28h.23c3.73-6.18 11.78-10 19-10 20.17 0 21.8 14.69 21.8 23.44v38.83h-19.81v-35.36c0-5.83-2-10.61-9.91-10.61-7.46 0-10.73 6.41-10.73 12.94v33h-19.82v-60.52zm92.82-7.58h-19.82v-15.16h19.82v15.16zm-19.82 7.58h19.82v60.51h-19.82v-60.51zm70.31 12.83h-12.24V317c0 4.78 2.8 5.83 7.11 5.83 1.75 0 3.38-.23 5.13-.23v14.57c-3.61.12-7.23.58-10.84.58-16.91 0-21.22-5-21.22-21.34v-26.92h-10v-12.83h10v-18.31h19.82v18.31h12.24v12.83zm44.78 53.05c-4.66 13.29-12 14.92-25.3 14.92h-9.33v-16.09h6.88c4.55 0 7.93-2.57 7.93-6.76 0-3.26-3.85-12.59-5-15.86L627 276.66h21l11.43 39.41h.23l11.43-39.41h20.29l-23.9 65.88zm9.67-245.95l14.4-13.6V41.7L648.36.42H504.37L461.19 41.7V14.18L446.79.42h-57.6L374.8 14.18V41.7l-28.79 27.53-28.8-27.53V14.18L302.81.42h-57.59l-14.4 13.76L216.41.42h-57.59l-14.39 13.76v55.05L72.44.42H14.85L.45 14.18v192.67l14.4 13.76h57.59l14.39-13.76V151.8l71.99 68.81h57.59l14.41-13.76V96.75l71.99 68.81v41.29l14.4 13.76h57.59l14.39-13.76v-41.29l72-68.81v82.57l43.18 41.29h143.99l43.19-41.29v-41.28l-14.4-13.78h-71.98v13.78h-57.59V82.99h57.59v13.6h71.98z" fill="currentColor" fill-rule="nonzero"/></symbol><symbol id="icon-logo-primary" viewBox="0 0 692 313"><g fill="currentColor" fill-rule="nonzero"><path d="M544.34 77.32l11.56-10.91V33.27L521.23.13H405.66l-34.67 33.14V11.18L359.44.13h-46.23l-11.56 11.05v22.09l-23.11 22.09-23.11-22.09V11.18L243.87.13h-46.23l-11.55 11.05L174.53.13H128.3l-11.55 11.05v44.18L58.96.13H12.74L1.18 11.18v154.65l11.56 11.04h46.22l11.55-11.04v-44.19l57.79 55.23h46.23l11.56-11.04V77.45l57.78 55.23v33.15l11.56 11.04h46.22l11.56-11.04v-33.15l57.78-55.23v66.28l34.67 33.14h115.57l34.67-33.14v-33.14l-11.56-11.06h-57.78v11.06h-46.23V66.41h46.23v10.91zM1 198.59h17l7.62 29.5h.12l7.62-29.5h17v44.25h-10.9v-33.59h-.12L30 242.84h-8.8l-9.3-33.59h-.12v33.59H1zM57.45 220.6a9.77 9.77 0 0 1 5-8.61 20.53 20.53 0 0 1 10.23-2.23c7.62 0 15 1.67 15 10.78v14.06c0 2.73 0 5.7 1.24 8.24H78.33a12.55 12.55 0 0 1-.62-3c-2.73 2.91-6.69 4-10.6 4-6.2 0-11-3.1-11-9.73 0-10.41 11.4-9.67 18.72-11.16 1.8-.43 2.79-1 2.79-3 0-2.42-2.91-3.35-5.08-3.35-3 0-4.77 1.36-5.27 4h-9.82zm13.63 16.67c5 0 6.69-2.79 6.45-9.48-1.49.93-4.21 1.05-6.51 1.74s-4.34 1.55-4.34 4.09 1.98 3.65 4.4 3.65zM112.18 245.69c-2.48 7.07-6.38 7.93-13.45 7.93h-5v-8.55h3.66c2.42 0 4.22-1.36 4.22-3.59 0-1.74-2-6.69-2.67-8.43l-8.3-22.37h11.16l6.07 20.95h.13l6.07-20.95h10.78l-12.67 35.01zM143.3 209.75c10 0 17 7.37 17 17 0 9.63-7 17-17 17s-16.92-7.31-16.92-17c0-9.69 6.94-17 16.92-17zm0 26c5 0 6.45-4.77 6.45-8.92s-1.49-9-6.45-9-6.38 4.9-6.38 9 1.48 8.89 6.38 8.89v.03zM166.18 210.68h10.22v5.64h.12c1.55-4.15 5.14-6.26 9.67-6.26a11.21 11.21 0 0 1 2.48.25v9.61a13 13 0 0 0-4-.62c-5.21 0-7.93 3.59-7.93 7.62v15.93h-10.56v-32.17zM193 198.59h9.85v10.29c-.06 6.2-3.1 10.85-9.85 12v-5a5.45 5.45 0 0 0 4.46-5.83H193v-11.46zM218.74 232.25a4.24 4.24 0 0 0 1.74 3.59 6.6 6.6 0 0 0 3.9 1.12c2 0 5-.93 5-3.41s-3.35-2.91-5.15-3.41c-6.63-1.67-14.94-1.86-14.94-10.54 0-7.68 8.37-9.85 14.69-9.85 7 0 14.5 2 14.81 10.41H229a3 3 0 0 0-1.36-2.79 5.82 5.82 0 0 0-3.35-.81c-1.73 0-4.52.19-4.52 2.42 0 3 7.06 3.66 11.9 4.65 6.44 1.3 8.18 6 8.18 8.68 0 8.61-8.18 11.47-15.43 11.47-7.69 0-15.43-2.54-15.74-11.53h10.06zM285.13 197.66c13.88 0 21.82 10.23 21.82 23.05s-7.93 23.05-21.82 23.05-21.82-10.23-21.82-23.05 7.94-23.05 21.82-23.05zm0 36.19c7.44 0 10.29-6.51 10.29-13.14 0-6.63-2.85-13.14-10.29-13.14-7.44 0-10.29 6.51-10.29 13.14 0 6.63 2.85 13.15 10.29 13.15v-.01zM315.08 217.5H310v-6.82h5.08c0-9.23 3.22-12.09 12.21-12.09 1.67 0 3.41.12 5.08.19v7.44a22.79 22.79 0 0 0-2.85-.19c-2.42 0-3.9.31-3.9 3.22v1.43h6.32v6.82h-6.32v25.35h-10.54V217.5zM338 217.5h-5.08v-6.82H338c0-9.23 3.22-12.09 12.21-12.09 1.67 0 3.41.12 5.08.19v7.44a22.79 22.79 0 0 0-2.85-.19c-2.42 0-3.9.31-3.9 3.22v1.43h6.32v6.82h-6.32v25.35H338V217.5zm30.43-10.85h-10.52v-8.06h10.54l-.02 8.06zm-10.54 4h10.54v32.17h-10.52l-.02-32.17zM396.84 222.45a4.92 4.92 0 0 0-5.14-4.65c-5.89 0-6.82 5-6.82 9.48 0 4.15 1.8 8.43 6.26 8.43 3.72 0 5.52-2 6-5.52h10.23c-1 8.68-7.56 13.57-16.18 13.57-9.67 0-16.86-6.57-16.86-16.49 0-10.23 6.51-17.54 16.86-17.54 8.06 0 15.06 4.28 15.87 12.7l-10.22.02zM421.63 229.33c.19 4.46 2.73 7.31 7.19 7.31 2.54 0 5-1.12 6-3.53h9.85c-2 7.44-8.8 10.66-16 10.66-10.47 0-17.6-6.32-17.6-17.11 0-9.85 7.87-16.92 17.35-16.92 11.53 0 17.29 8.68 16.8 19.58l-23.59.01zm13.08-5.89c-.19-3.66-2.73-6.57-6.26-6.57-3.72 0-6.13 2.6-6.82 6.57h13.08zM472.34 217.5h-5.08v-6.82h5.08c0-9.23 3.22-12.09 12.21-12.09 1.67 0 3.41.12 5.08.19v7.44a22.81 22.81 0 0 0-2.85-.19c-2.42 0-3.9.31-3.9 3.22v1.43h6.32v6.82h-6.32v25.35h-10.54V217.5zM508.36 209.75c10 0 17 7.37 17 17 0 9.63-7 17-17 17s-16.92-7.31-16.92-17c0-9.69 6.94-17 16.92-17zm0 26c5 0 6.44-4.77 6.44-8.92s-1.49-9-6.44-9-6.38 4.9-6.38 9 1.48 8.89 6.38 8.89v.03zM531.23 210.68h10.23v5.64h.12c1.55-4.15 5.14-6.26 9.67-6.26a11.22 11.22 0 0 1 2.48.25v9.61a13 13 0 0 0-4-.62c-5.21 0-7.93 3.59-7.93 7.62v15.93h-10.57v-32.17zM.91 257.49h35.26v9.23H12.44v7.75h21.69v8.92H12.44v8.43h24.35v9.92H.91zM63.89 281.35a4.92 4.92 0 0 0-5.14-4.65c-5.89 0-6.82 5-6.82 9.48 0 4.15 1.8 8.43 6.26 8.43 3.72 0 5.52-2 6-5.52h10.23c-1 8.68-7.56 13.57-16.18 13.57-9.67 0-16.86-6.57-16.86-16.49 0-10.23 6.51-17.54 16.86-17.54 8.06 0 15.06 4.28 15.87 12.7l-10.22.02zM95.07 268.65c10 0 17 7.37 17 17 0 9.63-7 17-17 17s-16.92-7.31-16.92-17c0-9.69 6.94-17 16.92-17zm0 26c5 0 6.45-4.77 6.45-8.92s-1.49-9-6.45-9-6.38 4.9-6.38 9 1.48 8.89 6.38 8.89v.03zM117.58 269.58h10.22V274h.12c2-3.28 6.26-5.33 10.1-5.33 10.72 0 11.59 7.81 11.59 12.46v20.64h-10.53V283c0-3.1-1.05-5.64-5.27-5.64-4 0-5.7 3.41-5.7 6.88v17.54h-10.53v-32.2zM172 268.65c10 0 17 7.37 17 17 0 9.63-7 17-17 17s-16.92-7.31-16.92-17c0-9.69 6.92-17 16.92-17zm0 26c5 0 6.45-4.77 6.45-8.92s-1.49-9-6.45-9-6.38 4.9-6.38 9 1.48 8.89 6.38 8.89v.03zM194.51 269.58h10.23V274h.12a10.65 10.65 0 0 1 9.23-5.33c4 0 7.62 1.3 9.36 5.21a11.57 11.57 0 0 1 10-5.21c10.23 0 11.34 7.75 11.34 13.88v19.21h-10.5v-18.9c0-3.47-1.67-5.52-4.4-5.52-4.52 0-5 3.47-5 8.68v15.74H214.4v-18.3c0-3.78-1.05-6.14-4-6.14-3.78 0-5.39 2.23-5.39 8.74v15.68h-10.5v-32.16zM262.82 265.55h-10.54v-8.06h10.54v8.06zm-10.54 4h10.54v32.17h-10.54v-32.17zM291.2 281.35a4.92 4.92 0 0 0-5.14-4.65c-5.89 0-6.82 5-6.82 9.48 0 4.15 1.8 8.43 6.26 8.43 3.72 0 5.52-2 6-5.52h10.23c-1 8.68-7.56 13.57-16.18 13.57-9.67 0-16.86-6.57-16.86-16.49 0-10.23 6.51-17.54 16.86-17.54 8.06 0 15.06 4.28 15.87 12.7l-10.22.02zM347.12 256.56c13.88 0 21.82 10.23 21.82 23.05s-7.93 23.05-21.82 23.05-21.82-10.23-21.82-23.05 7.94-23.05 21.82-23.05zm0 36.19c7.44 0 10.29-6.51 10.29-13.14 0-6.63-2.85-13.14-10.29-13.14-7.44 0-10.29 6.51-10.29 13.14 0 6.63 2.85 13.15 10.29 13.15v-.01zM374.15 269.58h10v3.72h.12a10.14 10.14 0 0 1 8.86-4.65c10.1 0 14.38 8.61 14.38 17.72 0 8.37-4.46 16.3-13.57 16.3a10.84 10.84 0 0 1-9.17-4.4h-.12v14.25h-10.5v-42.94zm10.16 15.74c0 5.64 1.61 9.3 6.38 9.3s6.32-4.9 6.32-9.3c0-4.09-1.55-8.61-6.26-8.61-2.75 0-6.43 1.92-6.43 8.61h-.01zM412.58 269.58h10v3.72h.12a10.14 10.14 0 0 1 8.86-4.65c10.1 0 14.38 8.61 14.38 17.72 0 8.37-4.46 16.3-13.57 16.3a10.84 10.84 0 0 1-9.17-4.4h-.12v14.25h-10.5v-42.94zm10.16 15.74c0 5.64 1.61 9.3 6.38 9.3s6.32-4.9 6.32-9.3c0-4.09-1.55-8.61-6.26-8.61-2.78 0-6.43 1.92-6.43 8.61h-.01zM466.39 268.65c10 0 17 7.37 17 17 0 9.63-7 17-17 17s-16.92-7.31-16.92-17c0-9.69 6.94-17 16.92-17zm0 26c5 0 6.45-4.77 6.45-8.92s-1.49-9-6.45-9-6.38 4.9-6.38 9 1.48 8.89 6.38 8.89v.03zM487.1 269.58h10.23v5.64h.12c1.55-4.15 5.14-6.26 9.67-6.26a11.22 11.22 0 0 1 2.48.25v9.61a13 13 0 0 0-4-.62c-5.21 0-7.93 3.59-7.93 7.62v15.93H487.1v-32.17zM535 276.4h-6.5V291c0 2.54 1.49 3.1 3.78 3.1.93 0 1.8-.12 2.73-.12v7.75c-1.92.06-3.84.31-5.76.31-9 0-11.28-2.66-11.28-11.34v-14.3h-5.33v-6.82H518v-9.73h10.5v9.73h6.5v6.82zM572.32 301.74H562.1v-4.4h-.1a11.85 11.85 0 0 1-9.79 5.33c-9.23 0-11.9-5.33-11.9-13.76v-19.33h10.54v18.65c0 4.28 1.8 5.76 5.21 5.76 2.23 0 5.76-1.49 5.76-7.19v-17.22h10.54l-.04 32.16zM579.4 269.58h10.23V274h.12c2-3.28 6.26-5.33 10.1-5.33 10.72 0 11.59 7.81 11.59 12.46v20.64H600.9V283c0-3.1-1.05-5.64-5.27-5.64-4 0-5.7 3.41-5.7 6.88v17.54H579.4v-32.2zM628.74 265.55H618.2v-8.06h10.54v8.06zm-10.54 4h10.54v32.17H618.2v-32.17zM655.58 276.4h-6.51V291c0 2.54 1.49 3.1 3.78 3.1.93 0 1.8-.12 2.73-.12v7.75c-1.92.06-3.84.31-5.76.31-9 0-11.28-2.66-11.28-11.34v-14.3h-5.33v-6.82h5.33v-9.73h10.54v9.73h6.51l-.01 6.82zM679.38 304.6c-2.48 7.07-6.38 7.93-13.45 7.93h-5V304h3.66c2.42 0 4.21-1.36 4.21-3.59 0-1.74-2-6.69-2.66-8.43l-8.3-22.37H669l6.07 20.95h.12l6.07-20.95h10.78l-12.66 34.99z"/></g></symbol><symbol id="icon-logo-secondary" viewBox="0 0 692 121"><g fill="currentColor" fill-rule="nonzero"><path d="M367.84 53.03l7.82-7.38V23.23L352.2.81h-78.18l-23.45 22.42V8.29L242.75.81h-31.28l-7.81 7.48v14.94l-15.63 14.95-15.64-14.95V8.29L164.57.81H133.3l-7.82 7.48-7.82-7.48H86.39l-7.82 7.48v29.89L39.48.81H8.21L.38 8.29v104.62l7.83 7.47h31.27l7.81-7.47V83.02l39.1 37.36h31.27l7.82-7.47V53.12l39.09 37.37v22.42l7.82 7.47h31.27l7.81-7.47V90.49l39.1-37.37v44.84l23.45 22.42h78.18l23.46-22.42V75.54l-7.82-7.48h-39.09v7.48h-31.27V45.65h31.27v7.38zM391 3.33h11.49l5.16 20h.08l5.16-20h11.49v30h-7.34V10.54H417l-6.3 22.74h-6l-6.29-22.74h-.08v22.74H391zM429.23 18.22a6.62 6.62 0 0 1 3.4-5.83 13.9 13.9 0 0 1 6.92-1.51c5.16 0 10.15 1.13 10.15 7.3v9.52a12.69 12.69 0 0 0 .84 5.58h-7.17a8.32 8.32 0 0 1-.42-2.06 9.6 9.6 0 0 1-7.18 2.68c-4.2 0-7.42-2.1-7.42-6.59 0-7 7.72-6.54 12.67-7.55 1.22-.29 1.88-.67 1.88-2 0-1.64-2-2.26-3.44-2.26-2.06 0-3.23.92-3.57 2.73l-6.66-.01zm9.23 11.28c3.4 0 4.53-1.89 4.36-6.42-1 .63-2.85.71-4.4 1.17-1.55.46-2.94 1-2.94 2.77s1.35 2.48 2.98 2.48zM466.26 35.21c-1.68 4.78-4.32 5.37-9.1 5.37h-3.36v-5.79h2.48c1.64 0 2.85-.92 2.85-2.43 0-1.18-1.38-4.53-1.8-5.7l-5.62-15.14h7.55l4.11 14.18h.09l4.11-14.18h7.3l-8.61 23.69zM487.32 10.88a11.16 11.16 0 0 1 11.49 11.54c0 6.335-5.135 11.47-11.47 11.47-6.335 0-11.47-5.135-11.47-11.47a11.13 11.13 0 0 1 11.45-11.54zm0 17.58c3.35 0 4.36-3.23 4.36-6s-1-6.08-4.36-6.08c-3.36 0-4.32 3.27-4.32 6.03 0 2.76 1 6.04 4.32 6.04v.01zM502.79 11.51h6.92v3.82h.09a6.51 6.51 0 0 1 6.54-4.24 7.61 7.61 0 0 1 1.68.17v6.5a8.79 8.79 0 0 0-2.73-.42 5 5 0 0 0-5.37 5.16v10.78h-7.13V11.51zM520.91 3.33h6.67v7c0 4.19-2.1 7.34-6.67 8.14v-3.4a3.69 3.69 0 0 0 3-3.94h-3v-7.8zM538.35 26.11a2.87 2.87 0 0 0 1.17 2.43 4.46 4.46 0 0 0 2.64.76c1.34 0 3.36-.63 3.36-2.31 0-1.68-2.27-2-3.48-2.31-4.49-1.13-10.11-1.26-10.11-7.13 0-5.2 5.66-6.67 9.94-6.67 4.74 0 9.82 1.38 10 7h-6.58a2 2 0 0 0-.92-1.89 3.94 3.94 0 0 0-2.27-.55c-1.17 0-3.06.13-3.06 1.64 0 2 4.78 2.48 8.05 3.15 4.36.88 5.54 4.07 5.54 5.87 0 5.83-5.54 7.76-10.44 7.76-5.2 0-10.45-1.72-10.66-7.8l6.82.05zM583.27 2.7c9.4 0 14.77 6.92 14.77 15.6s-5.37 15.6-14.77 15.6c-9.4 0-14.77-6.9-14.77-15.6s5.37-15.6 14.77-15.6zm0 24.5c5 0 7-4.4 7-8.89s-1.93-8.89-7-8.89-7 4.4-7 8.89 1.97 8.89 7 8.89zM603.52 16.12h-3.44v-4.61h3.44c0-6.25 2.18-8.18 8.27-8.18 1.13 0 2.31.08 3.44.13v5a15.3 15.3 0 0 0-1.93-.13c-1.63 0-2.64.21-2.64 2.18v1h4.28v4.61h-4.28v17.16h-7.13l-.01-17.16zM619 16.12h-3.4v-4.61h3.4c0-6.25 2.18-8.18 8.26-8.18 1.13 0 2.31.08 3.44.13v5a15.34 15.34 0 0 0-1.93-.13c-1.63 0-2.64.21-2.64 2.18v1h4.28v4.61h-4.28v17.16H619V16.12zm20.6-7.34h-7.1V3.33h7.13l-.03 5.45zm-7.13 2.73h7.13v21.77h-7.1l-.03-21.77zM658.84 19.48a3.33 3.33 0 0 0-3.48-3.15c-4 0-4.61 3.4-4.61 6.42 0 2.81 1.22 5.7 4.24 5.7 2.52 0 3.73-1.38 4.07-3.73H666c-.67 5.87-5.12 9.19-10.95 9.19-6.54 0-11.41-4.45-11.41-11.16 0-6.92 4.4-11.87 11.41-11.87 5.45 0 10.19 2.89 10.74 8.6h-6.95zM675.61 24.13c.13 3 1.85 5 4.87 5a4.18 4.18 0 0 0 4.07-2.39h6.67c-1.34 5-6 7.22-10.82 7.22-7.09 0-11.91-4.28-11.91-11.58a11.43 11.43 0 0 1 11.74-11.45c7.8 0 11.71 5.87 11.37 13.26l-15.99-.06zm8.85-4a4.38 4.38 0 0 0-4.24-4.45c-2.52 0-4.15 1.76-4.61 4.45h8.85zM392.24 56h-3.44v-4.65h3.44c0-6.25 2.18-8.18 8.26-8.18 1.13 0 2.31.08 3.44.13v5a15.34 15.34 0 0 0-1.94-.1c-1.63 0-2.64.21-2.64 2.18v1h4.28V56h-4.28v17.12h-7.13l.01-17.12zM416.61 50.72a11.16 11.16 0 0 1 11.49 11.54c0 6.337-5.138 11.475-11.475 11.475S405.15 68.597 405.15 62.26a11.13 11.13 0 0 1 11.46-11.54zm0 17.58c3.36 0 4.36-3.23 4.36-6s-1-6.08-4.36-6.08c-3.36 0-4.32 3.31-4.32 6.08s1.01 6 4.32 6zM432.08 51.35H439v3.82h.08a6.52 6.52 0 0 1 6.55-4.24 7.6 7.6 0 0 1 1.68.17v6.5a8.78 8.78 0 0 0-2.73-.42 5 5 0 0 0-5.37 5.16v10.78h-7.13V51.35zM463.2 43.17h23.87v6.25H471v5.24h14.68v6H471v5.7h16.49v6.71H463.2zM505.81 59.32a3.33 3.33 0 0 0-3.48-3.15c-4 0-4.61 3.4-4.61 6.42 0 2.81 1.22 5.7 4.24 5.7 2.52 0 3.73-1.38 4.07-3.73h6.92c-.67 5.87-5.12 9.19-10.95 9.19-6.54 0-11.41-4.45-11.41-11.16 0-6.92 4.4-11.87 11.41-11.87 5.45 0 10.19 2.89 10.74 8.6h-6.93zM526.91 50.72a11.16 11.16 0 0 1 11.49 11.54c0 6.337-5.138 11.475-11.475 11.475S515.45 68.597 515.45 62.26a11.13 11.13 0 0 1 11.46-11.54zm0 17.58c3.36 0 4.36-3.23 4.36-6s-1-6.08-4.36-6.08c-3.36 0-4.32 3.31-4.32 6.08s1 6 4.32 6zM542.13 51.35H549v3h.08a8.28 8.28 0 0 1 6.92-3.63c7.26 0 7.84 5.29 7.84 8.43v14h-7.13V60.41c0-2.1-.71-3.82-3.56-3.82-2.68 0-3.86 2.31-3.86 4.66v11.87h-7.13l-.03-21.77zM578.95 50.72a11.16 11.16 0 0 1 11.49 11.54c0 6.337-5.138 11.475-11.475 11.475S567.49 68.597 567.49 62.26a11.13 11.13 0 0 1 11.46-11.54zm0 17.58c3.35 0 4.36-3.23 4.36-6s-1-6.08-4.36-6.08c-3.36 0-4.32 3.31-4.32 6.08s1 6 4.32 6zM594.17 51.35h6.92v3h.09a7.2 7.2 0 0 1 6.25-3.61c2.73 0 5.16.88 6.33 3.52a7.83 7.83 0 0 1 6.8-3.52c6.92 0 7.68 5.24 7.68 9.4v13h-7.14V60.33c0-2.35-1.13-3.73-3-3.73-3.06 0-3.35 2.35-3.35 5.87v10.65h-7.13V60.75c0-2.56-.71-4.15-2.68-4.15-2.56 0-3.65 1.51-3.65 5.91v10.61h-7.13l.01-21.77zM640.38 48.62h-7.13v-5.45h7.13v5.45zm-7.13 2.73h7.13v21.77h-7.13V51.35zM659.6 59.32a3.33 3.33 0 0 0-3.48-3.15c-4 0-4.61 3.4-4.61 6.42 0 2.81 1.22 5.7 4.24 5.7 2.52 0 3.74-1.38 4.07-3.73h6.92c-.67 5.87-5.12 9.19-10.95 9.19-6.54 0-11.41-4.45-11.41-11.16 0-6.92 4.4-11.87 11.41-11.87 5.45 0 10.19 2.89 10.74 8.6h-6.93zM404.62 82.4c9.4 0 14.77 6.92 14.77 15.6s-5.37 15.6-14.77 15.6c-9.4 0-14.77-6.92-14.77-15.6s5.37-15.6 14.77-15.6zm0 24.5c5 0 7-4.4 7-8.89s-1.93-8.89-7-8.89-7 4.4-7 8.89 1.96 8.89 7 8.89zM422.89 91.21h6.8v2.52h.08a6.87 6.87 0 0 1 6-3.15c6.84 0 9.73 5.83 9.73 12 0 5.66-3 11-9.19 11a7.34 7.34 0 0 1-6.21-3h-.1v9.65h-7.13l.02-29.02zm6.88 10.65c0 3.82 1.09 6.29 4.32 6.29 3.23 0 4.28-3.31 4.28-6.29 0-2.77-1-5.83-4.24-5.83-1.88-.03-4.36 1.3-4.36 5.83zM448.88 91.21h6.8v2.52h.08a6.86 6.86 0 0 1 6-3.15c6.84 0 9.73 5.83 9.73 12 0 5.66-3 11-9.19 11a7.33 7.33 0 0 1-6.21-3H456v9.65h-7.13l.01-29.02zm6.88 10.65c0 3.82 1.09 6.29 4.32 6.29 3.23 0 4.28-3.31 4.28-6.29 0-2.77-1.05-5.83-4.24-5.83-1.88-.03-4.36 1.3-4.36 5.83zM485.28 90.58a11.52 11.52 0 1 1-11.45 11.54 11.16 11.16 0 0 1 11.45-11.54zm0 17.58c3.36 0 4.36-3.23 4.36-6s-1-6.08-4.36-6.08c-3.36 0-4.32 3.31-4.32 6.08s1.04 6 4.32 6zM499.28 91.21h6.92V95h.08a6.51 6.51 0 0 1 6.54-4.24 7.61 7.61 0 0 1 1.68.17v6.5a8.78 8.78 0 0 0-2.73-.42 5 5 0 0 0-5.37 5.16V113h-7.13l.01-21.79zM531.69 95.82h-4.4v9.9c0 1.72 1 2.1 2.56 2.1.63 0 1.22-.08 1.85-.08V113c-1.3 0-2.6.21-3.9.21-6.08 0-7.64-1.8-7.64-7.68v-9.71h-3.61v-4.61h3.61v-6.59h7.13v6.59h4.4v4.61zM556.94 113H550v-3h-.08a8 8 0 0 1-6.63 3.61c-6.25 0-8.05-3.61-8.05-9.31V91.21h7.13v12.63c0 2.89 1.22 3.9 3.53 3.9 1.51 0 3.9-1 3.9-4.87V91.21h7.13l.01 21.79zM561.71 91.21h6.92v3h.09a8.28 8.28 0 0 1 6.84-3.61c7.25 0 7.84 5.29 7.84 8.43v14h-7.13v-12.76c0-2.1-.71-3.82-3.56-3.82-2.68 0-3.86 2.31-3.86 4.66V113h-7.13l-.01-21.79zM595.08 88.48h-7.13V83h7.13v5.48zm-7.13 2.73h7.13V113h-7.13V91.21zM613.24 95.82h-4.4v9.9c0 1.72 1 2.1 2.56 2.1.63 0 1.22-.08 1.84-.08V113c-1.3 0-2.6.21-3.9.21-6.08 0-7.64-1.8-7.64-7.68v-9.71h-3.6v-4.61h3.6v-6.59h7.13v6.59h4.4l.01 4.61zM629.34 114.91c-1.68 4.78-4.32 5.37-9.1 5.37h-3.35v-5.79h2.48c1.63 0 2.85-.92 2.85-2.43 0-1.17-1.38-4.53-1.81-5.7l-5.62-15.14h7.55l4.11 14.18h.08l4.11-14.18h7.3l-8.6 23.69z"/></g></symbol><symbol id="icon-logo" viewBox="0 0 700 368.57"><g fill="currentColor"><path class="cls-1" d="M46.43 258.17c26.12 0 41 19.24 41 43.37s-14.92 43.37-41 43.37-41-19.24-41-43.37 14.88-43.37 41-43.37zm0 68.09c14 0 19.36-12.24 19.36-24.72s-5.36-24.72-19.36-24.72-19.36 12.24-19.36 24.72 5.37 24.73 19.36 24.73zM97.28 282.66h18.89v7h.23a19.08 19.08 0 0 1 16.67-8.74c19 0 27.05 16.21 27.05 33.35 0 15.74-8.39 30.67-25.54 30.67-7.35 0-13.18-2.8-17.26-8.28h-.23v26.82H97.28zm19.12 29.62c0 10.61 3 17.49 12 17.49 8.75 0 11.89-9.21 11.89-17.49 0-7.7-2.92-16.21-11.78-16.21-5.23 0-12.11 3.61-12.11 16.21zM169.58 282.66h18.89v7h.23a19.08 19.08 0 0 1 16.67-8.74c19 0 27.05 16.21 27.05 33.35 0 15.74-8.39 30.67-25.54 30.67-7.35 0-13.18-2.8-17.26-8.28h-.23v26.82h-19.81zm19.12 29.62c0 10.61 3 17.49 12 17.49 8.75 0 11.89-9.21 11.89-17.49 0-7.7-2.91-16.21-11.78-16.21-5.23 0-12.11 3.61-12.11 16.21zM270.8 280.91c18.77 0 31.95 13.88 31.95 32.06s-13.18 31.95-31.95 31.95S239 331.17 239 313s13-32.09 31.8-32.09zm0 48.85c9.33 0 12.13-9 12.13-16.79s-2.8-16.91-12.13-16.91-12 9.21-12 16.91 2.79 16.8 12 16.8zM309.75 282.66H329v10.61h.23c2.92-7.81 9.68-11.78 18.19-11.78a21.09 21.09 0 0 1 4.66.47V300a24.44 24.44 0 0 0-7.58-1.17c-9.79 0-14.92 6.76-14.92 14.34v30h-19.83zM399.89 295.49h-12.24V323c0 4.78 2.8 5.83 7.11 5.83 1.75 0 3.38-.23 5.13-.23v14.57c-3.61.12-7.23.58-10.84.58-16.91 0-21.22-5-21.22-21.34v-26.92h-10v-12.83h10v-18.31h19.82v18.31h12.24zM470.09 343.17h-19.24v-8.27h-.23c-3.73 6.18-11.43 10-18.42 10-17.37 0-22.39-10-22.39-25.88v-36.36h19.82v35.1c0 8 3.38 10.84 9.79 10.84 4.2 0 10.84-2.8 10.84-13.53v-32.41h19.82zM483.39 282.66h19.24v8.28h.23c3.73-6.18 11.78-10 19-10 20.17 0 21.8 14.69 21.8 23.44v38.83h-19.81v-35.36c0-5.83-2-10.61-9.91-10.61-7.46 0-10.73 6.41-10.73 12.94v33h-19.82zM576.21 275.08h-19.82v-15.16h19.82zm-19.82 7.58h19.82v60.51h-19.82zM626.7 295.49h-12.24V323c0 4.78 2.8 5.83 7.11 5.83 1.75 0 3.38-.23 5.13-.23v14.57c-3.61.12-7.23.58-10.84.58-16.91 0-21.22-5-21.22-21.34v-26.92h-10v-12.83h10v-18.31h19.82v18.31h12.24zM671.48 348.54c-4.66 13.29-12 14.92-25.3 14.92h-9.33v-16.09h6.88c4.55 0 7.93-2.57 7.93-6.76 0-3.26-3.85-12.59-5-15.86L631 282.66h21l11.43 39.41h.23l11.43-39.41h20.29zM681.15 102.59l14.4-13.6V47.7L652.36 6.42H508.37L465.19 47.7V20.18l-14.4-13.76h-57.6L378.8 20.18V47.7l-28.79 27.53-28.8-27.53V20.18l-14.4-13.76h-57.59l-14.4 13.76-14.41-13.76h-57.59l-14.39 13.76v55.05L76.44 6.42H18.85L4.45 20.18v192.67l14.4 13.76h57.59l14.39-13.76V157.8l71.99 68.81h57.59l14.41-13.76v-110.1l71.99 68.81v41.29l14.4 13.76h57.59l14.39-13.76v-41.29l72-68.81v82.57l43.18 41.29h143.99l43.19-41.29v-41.28l-14.4-13.78h-71.98v13.78h-57.59V88.99h57.59v13.6h71.98z"/></g></symbol></svg>