<?xml version="1.0" encoding="UTF-8"?>
<svg viewBox="0 0 694 76" version="1.1" xmlns="http://www.w3.org/2000/svg" xmlns:xlink="http://www.w3.org/1999/xlink">
    <!-- Generator: Sketch 51.2 (57519) - http://www.bohemiancoding.com/sketch -->
    <title>icon-logo-nyco-secondary</title>
    <desc>Created with Sketch.</desc>
    <defs></defs>
    <g stroke="none" stroke-width="1" fill="none" fill-rule="evenodd">
        <g fill="currentColor" fill-rule="nonzero">
            <path d="M233.11,1.21 C251.65,1.21 262.25,14.87 262.25,32 C262.25,49.13 251.65,62.8 233.11,62.8 C214.57,62.8 204,49.14 204,32 C204,14.86 214.57,1.21 233.11,1.21 Z M233.11,49.55 C243.04,49.55 246.85,40.86 246.85,32 C246.85,23.14 243,14.45 233.11,14.45 C223.22,14.45 219.37,23.15 219.37,32 C219.37,40.85 223.18,49.55 233.11,49.55 Z"></path>
            <path d="M269.19,18.59 L282.6,18.59 L282.6,23.59 L282.77,23.59 C285.348203,19.5799532 289.845296,17.2212582 294.61,17.38 C308.1,17.38 313.81,28.89 313.81,41.05 C313.81,52.23 307.81,62.82 295.68,62.82 C290.873811,63.0147635 286.284251,60.8117748 283.43,56.94 L283.26,56.94 L283.26,76 L269.19,76 L269.19,18.59 Z M282.76,39.59 C282.76,47.12 284.91,52.01 291.29,52.01 C297.5,52.01 299.73,45.47 299.73,39.59 C299.73,34.13 297.66,28.08 291.37,28.08 C287.65,28.11 282.77,30.68 282.77,39.62 L282.76,39.59 Z"></path>
            <path d="M320.5,18.59 L333.91,18.59 L333.91,23.59 L334.08,23.59 C336.658203,19.5799532 341.155296,17.2212582 345.92,17.38 C359.41,17.38 365.12,28.89 365.12,41.05 C365.12,52.23 359.12,62.82 346.99,62.82 C342.183444,63.0165436 337.593092,60.8131747 334.74,56.94 L334.57,56.94 L334.57,76 L320.5,76 L320.5,18.59 Z M334.07,39.59 C334.07,47.12 336.22,52.01 342.6,52.01 C348.81,52.01 351.04,45.47 351.04,39.59 C351.04,34.13 348.97,28.08 342.68,28.08 C339,28.11 334.08,30.68 334.08,39.62 L334.07,39.59 Z"></path>
            <path d="M392.34,17.35 C405.67,17.35 415.02,27.2 415.02,40.11 C415.02,53.02 405.67,62.8 392.34,62.8 C379.01,62.8 369.74,53.03 369.74,40.12 C369.74,27.21 379,17.35 392.34,17.35 Z M392.34,52.03 C399,52 401,45.66 401,40.12 C401,34.58 399,28.12 392.39,28.12 C385.78,28.12 383.86,34.66 383.86,40.12 C383.86,45.58 385.8,52 392.34,52 L392.34,52.03 Z"></path>
            <path d="M420,18.59 L433.66,18.59 L433.66,26.12 L433.83,26.12 C435.9,20.57 440.7,17.76 446.74,17.76 C447.852156,17.7469435 448.962313,17.8576239 450.05,18.09 L450.05,30.93 C448.311511,30.3719707 446.495835,30.091857 444.67,30.1 C437.67,30.1 434.07,34.9 434.07,40.28 L434.07,61.55 L420,61.55 L420,18.59 Z"></path>
            <path d="M484,27.7 L475.31,27.7 L475.31,47.23 C475.31,50.62 477.31,51.37 480.31,51.37 C481.55,51.37 482.71,51.2 483.95,51.2 L483.95,61.55 C481.38,61.63 478.82,61.96 476.25,61.96 C464.25,61.96 461.18,58.4 461.18,46.81 L461.18,27.7 L454.06,27.7 L454.06,18.59 L461.18,18.59 L461.18,5.59 L475.25,5.59 L475.25,18.59 L484,18.59 L484,27.7 Z"></path>
            <path d="M533.79,61.55 L520.13,61.55 L520.13,55.68 L520,55.68 C517.098308,60.0840664 512.193849,62.7537724 506.92,62.8 C494.55,62.8 491,55.68 491,44.42 L491,18.59 L505.07,18.59 L505.07,43.51 C505.07,49.22 507.47,51.21 512.07,51.21 C515.07,51.21 519.77,49.21 519.77,41.61 L519.77,18.61 L533.84,18.61 L533.79,61.55 Z"></path>
            <path d="M543.21,18.59 L556.87,18.59 L556.87,24.47 L557,24.47 C559.65,20.08 565.36,17.35 570.49,17.35 C584.85,17.35 586,27.78 586,34 L586,61.55 L571.94,61.55 L571.94,36.47 C571.94,32.33 570.53,28.94 564.94,28.94 C559.64,28.94 557.33,33.49 557.33,38.13 L557.33,61.55 L543.21,61.55 L543.21,18.59 Z"></path>
            <path d="M609.09,13.21 L595,13.21 L595,2.45 L609.07,2.45 L609.09,13.21 Z M595,18.59 L609.07,18.59 L609.07,61.59 L595,61.59 L595,18.59 Z"></path>
            <path d="M644.93,27.7 L636.24,27.7 L636.24,47.23 C636.24,50.62 638.24,51.37 641.24,51.37 C642.48,51.37 643.64,51.2 644.88,51.2 L644.88,61.55 C642.31,61.63 639.75,61.96 637.18,61.96 C625.18,61.96 622.11,58.4 622.11,46.81 L622.11,27.7 L615,27.7 L615,18.59 L622.12,18.59 L622.12,5.59 L636.19,5.59 L636.19,18.59 L644.88,18.59 L644.93,27.7 Z"></path>
            <path d="M676.71,65.36 C673.4,74.8 668.18,75.96 658.71,75.96 L652.09,75.96 L652.09,64.53 L657,64.53 C660.23,64.53 662.63,62.71 662.63,59.73 C662.63,57.41 659.9,50.79 659.07,48.47 L648,18.59 L662.9,18.59 L671.01,46.59 L671.18,46.59 L679.29,18.59 L693.69,18.59 L676.71,65.36 Z"></path>
            <polygon points="187.9 27.18 191.9 23.41 191.9 11.96 179.92 0.52 140.01 0.52 128.04 11.96 128.04 4.33 124.05 0.52 108.08 0.52 104.09 4.33 104.09 11.96 96.11 19.59 88.13 11.96 88.13 4.33 84.13 0.52 68.17 0.52 64.18 4.33 60.19 0.52 44.22 0.52 40.23 4.33 40.23 19.59 20.28 0.52 4.31 0.52 0.32 4.33 0.32 57.74 4.31 61.56 20.28 61.56 24.27 57.74 24.27 42.48 44.22 61.56 60.19 61.56 64.18 57.74 64.18 27.22 84.13 46.3 84.13 57.74 88.13 61.56 104.09 61.56 108.08 57.74 108.08 46.3 128.04 27.22 128.04 50.11 140.01 61.56 179.92 61.56 191.9 50.11 191.9 38.66 187.9 34.85 167.95 34.85 167.95 38.66 151.99 38.66 151.99 23.41 167.95 23.41 167.95 27.18"></polygon>
        </g>
    </g>
</svg>