<?xml version="1.0" encoding="UTF-8"?>
<svg viewBox="0 0 692 358" version="1.1" xmlns="http://www.w3.org/2000/svg" xmlns:xlink="http://www.w3.org/1999/xlink">
    <!-- Generator: Sketch 51.2 (57519) - http://www.bohemiancoding.com/sketch -->
    <title>icon-logo-nyco</title>
    <desc>Created with Sketch.</desc>
    <defs></defs>
    <g stroke="none" stroke-width="1" fill="none" fill-rule="evenodd">
        <g fill="currentColor" fill-rule="nonzero">
            <path d="M42.43,252.17 C68.55,252.17 83.43,271.41 83.43,295.54 C83.43,319.67 68.51,338.91 42.43,338.91 C16.35,338.91 1.43,319.67 1.43,295.54 C1.43,271.41 16.31,252.17 42.43,252.17 Z M42.43,320.26 C56.43,320.26 61.79,308.02 61.79,295.54 C61.79,283.06 56.43,270.82 42.43,270.82 C28.43,270.82 23.07,283.06 23.07,295.54 C23.07,308.02 28.44,320.27 42.43,320.27 L42.43,320.26 Z M93.28,276.66 L112.17,276.66 L112.17,283.66 L112.4,283.66 C116.033051,278.017873 122.362999,274.699112 129.07,274.92 C148.07,274.92 156.12,291.13 156.12,308.27 C156.12,324.01 147.73,338.94 130.58,338.94 C123.23,338.94 117.4,336.14 113.32,330.66 L113.09,330.66 L113.09,357.48 L93.28,357.48 L93.28,276.66 Z M112.4,306.28 C112.4,316.89 115.4,323.77 124.4,323.77 C133.15,323.77 136.29,314.56 136.29,306.28 C136.29,298.58 133.37,290.07 124.51,290.07 C119.28,290.07 112.4,293.68 112.4,306.28 Z M165.58,276.66 L184.47,276.66 L184.47,283.66 L184.7,283.66 C188.333051,278.017873 194.662999,274.699112 201.37,274.92 C220.37,274.92 228.42,291.13 228.42,308.27 C228.42,324.01 220.03,338.94 202.88,338.94 C195.53,338.94 189.7,336.14 185.62,330.66 L185.39,330.66 L185.39,357.48 L165.58,357.48 L165.58,276.66 Z M184.7,306.28 C184.7,316.89 187.7,323.77 196.7,323.77 C205.45,323.77 208.59,314.56 208.59,306.28 C208.59,298.58 205.68,290.07 196.81,290.07 C191.58,290.07 184.7,293.68 184.7,306.28 Z M266.8,274.91 C285.57,274.91 298.75,288.79 298.75,306.97 C298.75,325.15 285.57,338.92 266.8,338.92 C248.03,338.92 235,325.17 235,307 C235,288.83 248,274.91 266.8,274.91 Z M266.8,323.76 C276.13,323.76 278.93,314.76 278.93,306.97 C278.93,299.18 276.13,290.06 266.8,290.06 C257.47,290.06 254.8,299.27 254.8,306.97 C254.8,314.67 257.59,323.77 266.8,323.77 L266.8,323.76 Z M305.75,276.66 L325,276.66 L325,287.27 L325.23,287.27 C328.15,279.46 334.91,275.49 343.42,275.49 C344.985966,275.473165 346.548935,275.630803 348.08,275.96 L348.08,294 C345.630656,293.2135 343.072496,292.818639 340.5,292.83 C330.71,292.83 325.58,299.59 325.58,307.17 L325.58,337.17 L305.75,337.17 L305.75,276.66 Z M395.89,289.49 L383.65,289.49 L383.65,317 C383.65,321.78 386.45,322.83 390.76,322.83 C392.51,322.83 394.14,322.6 395.89,322.6 L395.89,337.17 C392.28,337.29 388.66,337.75 385.05,337.75 C368.14,337.75 363.83,332.75 363.83,316.41 L363.83,289.49 L353.83,289.49 L353.83,276.66 L363.83,276.66 L363.83,258.35 L383.65,258.35 L383.65,276.66 L395.89,276.66 L395.89,289.49 Z M466.09,337.17 L446.85,337.17 L446.85,328.9 L446.62,328.9 C442.89,335.08 435.19,338.9 428.2,338.9 C410.83,338.9 405.81,328.9 405.81,313.02 L405.81,276.66 L425.63,276.66 L425.63,311.76 C425.63,319.76 429.01,322.6 435.42,322.6 C439.62,322.6 446.26,319.8 446.26,309.07 L446.26,276.66 L466.08,276.66 L466.09,337.17 Z M479.39,276.66 L498.63,276.66 L498.63,284.94 L498.86,284.94 C502.59,278.76 510.64,274.94 517.86,274.94 C538.03,274.94 539.66,289.63 539.66,298.38 L539.66,337.21 L519.85,337.21 L519.85,301.85 C519.85,296.02 517.85,291.24 509.94,291.24 C502.48,291.24 499.21,297.65 499.21,304.18 L499.21,337.18 L479.39,337.18 L479.39,276.66 Z M572.21,269.08 L552.39,269.08 L552.39,253.92 L572.21,253.92 L572.21,269.08 Z M552.39,276.66 L572.21,276.66 L572.21,337.17 L552.39,337.17 L552.39,276.66 Z M622.7,289.49 L610.46,289.49 L610.46,317 C610.46,321.78 613.26,322.83 617.57,322.83 C619.32,322.83 620.95,322.6 622.7,322.6 L622.7,337.17 C619.09,337.29 615.47,337.75 611.86,337.75 C594.95,337.75 590.64,332.75 590.64,316.41 L590.64,289.49 L580.64,289.49 L580.64,276.66 L590.64,276.66 L590.64,258.35 L610.46,258.35 L610.46,276.66 L622.7,276.66 L622.7,289.49 Z M667.48,342.54 C662.82,355.83 655.48,357.46 642.18,357.46 L632.85,357.46 L632.85,341.37 L639.73,341.37 C644.28,341.37 647.66,338.8 647.66,334.61 C647.66,331.35 643.81,322.02 642.66,318.75 L627,276.66 L648,276.66 L659.43,316.07 L659.66,316.07 L671.09,276.66 L691.38,276.66 L667.48,342.54 Z M677.15,96.59 L691.55,82.99 L691.55,41.7 L648.36,0.42 L504.37,0.42 L461.19,41.7 L461.19,14.18 L446.79,0.42 L389.19,0.42 L374.8,14.18 L374.8,41.7 L346.01,69.23 L317.21,41.7 L317.21,14.18 L302.81,0.42 L245.22,0.42 L230.82,14.18 L216.41,0.42 L158.82,0.42 L144.43,14.18 L144.43,69.23 L72.44,0.42 L14.85,0.42 L0.45,14.18 L0.45,206.85 L14.85,220.61 L72.44,220.61 L86.83,206.85 L86.83,151.8 L158.82,220.61 L216.41,220.61 L230.82,206.85 L230.82,96.75 L302.81,165.56 L302.81,206.85 L317.21,220.61 L374.8,220.61 L389.19,206.85 L389.19,165.56 L461.19,96.75 L461.19,179.32 L504.37,220.61 L648.36,220.61 L691.55,179.32 L691.55,138.04 L677.15,124.26 L605.17,124.26 L605.17,138.04 L547.58,138.04 L547.58,82.99 L605.17,82.99 L605.17,96.59 L677.15,96.59 Z"></path>
        </g>
    </g>
</svg>