<svg id="Layer_1" data-name="Layer 1" xmlns="http://www.w3.org/2000/svg" viewBox="0 0 700 368.57">
  <g fill="currentColor">
    <path class="cls-1" d="M46.43,258.17c26.12,0,41,19.24,41,43.37s-14.92,43.37-41,43.37-41-19.24-41-43.37S20.31,258.17,46.43,258.17Zm0,68.09c14,0,19.36-12.24,19.36-24.72s-5.36-24.72-19.36-24.72-19.36,12.24-19.36,24.72S32.44,326.27,46.43,326.27Z" />
    <path class="cls-1" d="M97.28,282.66h18.89v7h.23a19.08,19.08,0,0,1,16.67-8.74c19,0,27.05,16.21,27.05,33.35,0,15.74-8.39,30.67-25.54,30.67-7.35,0-13.18-2.8-17.26-8.28h-.23v26.82H97.28Zm19.12,29.62c0,10.61,3,17.49,12,17.49,8.75,0,11.89-9.21,11.89-17.49,0-7.7-2.92-16.21-11.78-16.21C123.28,296.07,116.4,299.68,116.4,312.28Z" />
    <path class="cls-1" d="M169.58,282.66h18.89v7h.23a19.08,19.08,0,0,1,16.67-8.74c19,0,27.05,16.21,27.05,33.35,0,15.74-8.39,30.67-25.54,30.67-7.35,0-13.18-2.8-17.26-8.28h-.23v26.82H169.58Zm19.12,29.62c0,10.61,3,17.49,12,17.49,8.75,0,11.89-9.21,11.89-17.49,0-7.7-2.91-16.21-11.78-16.21C195.58,296.07,188.7,299.68,188.7,312.28Z" />
    <path class="cls-1" d="M270.8,280.91c18.77,0,31.95,13.88,31.95,32.06s-13.18,31.95-31.95,31.95S239,331.17,239,313,252,280.91,270.8,280.91Zm0,48.85c9.33,0,12.13-9,12.13-16.79s-2.8-16.91-12.13-16.91-12,9.21-12,16.91S261.59,329.77,270.8,329.77Z" />
    <path class="cls-1" d="M309.75,282.66H329v10.61h.23c2.92-7.81,9.68-11.78,18.19-11.78a21.09,21.09,0,0,1,4.66.47V300a24.44,24.44,0,0,0-7.58-1.17c-9.79,0-14.92,6.76-14.92,14.34v30H309.75Z" />
    <path class="cls-1" d="M399.89,295.49H387.65V323c0,4.78,2.8,5.83,7.11,5.83,1.75,0,3.38-.23,5.13-.23v14.57c-3.61.12-7.23.58-10.84.58-16.91,0-21.22-5-21.22-21.34V295.49h-10V282.66h10V264.35h19.82v18.31h12.24Z" />
    <path class="cls-1" d="M470.09,343.17H450.85V334.9h-.23c-3.73,6.18-11.43,10-18.42,10-17.37,0-22.39-10-22.39-25.88V282.66h19.82v35.1c0,8,3.38,10.84,9.79,10.84,4.2,0,10.84-2.8,10.84-13.53V282.66h19.82Z" />
    <path class="cls-1" d="M483.39,282.66h19.24v8.28h.23c3.73-6.18,11.78-10,19-10,20.17,0,21.8,14.69,21.8,23.44v38.83H523.85V307.85c0-5.83-2-10.61-9.91-10.61-7.46,0-10.73,6.41-10.73,12.94v33H483.39Z" />
    <path class="cls-1" d="M576.21,275.08H556.39V259.92h19.82Zm-19.82,7.58h19.82v60.51H556.39Z" />
    <path class="cls-1" d="M626.7,295.49H614.46V323c0,4.78,2.8,5.83,7.11,5.83,1.75,0,3.38-.23,5.13-.23v14.57c-3.61.12-7.23.58-10.84.58-16.91,0-21.22-5-21.22-21.34V295.49h-10V282.66h10V264.35h19.82v18.31H626.7Z" />
    <path class="cls-1" d="M671.48,348.54c-4.66,13.29-12,14.92-25.3,14.92h-9.33V347.37h6.88c4.55,0,7.93-2.57,7.93-6.76,0-3.26-3.85-12.59-5-15.86L631,282.66h21l11.43,39.41h.23l11.43-39.41h20.29Z" />
    <polygon class="cls-1" points="681.15 102.59 695.55 88.99 695.55 47.7 652.36 6.42 508.37 6.42 465.19 47.7 465.19 20.18 450.79 6.42 393.19 6.42 378.8 20.18 378.8 47.7 350.01 75.23 321.21 47.7 321.21 20.18 306.81 6.42 249.22 6.42 234.82 20.18 220.41 6.42 162.82 6.42 148.43 20.18 148.43 75.23 76.44 6.42 18.85 6.42 4.45 20.18 4.45 212.85 18.85 226.61 76.44 226.61 90.83 212.85 90.83 157.8 162.82 226.61 220.41 226.61 234.82 212.85 234.82 102.75 306.81 171.56 306.81 212.85 321.21 226.61 378.8 226.61 393.19 212.85 393.19 171.56 465.19 102.75 465.19 185.32 508.37 226.61 652.36 226.61 695.55 185.32 695.55 144.04 681.15 130.26 609.17 130.26 609.17 144.04 551.58 144.04 551.58 88.99 609.17 88.99 609.17 102.59 681.15 102.59" />
  </g>
</svg>