<?xml version="1.0" encoding="UTF-8"?>
<svg viewBox="0 0 692 313" version="1.1" xmlns="http://www.w3.org/2000/svg" xmlns:xlink="http://www.w3.org/1999/xlink">
    <!-- Generator: Sketch 51.2 (57519) - http://www.bohemiancoding.com/sketch -->
    <title>icon-logo-primary</title>
    <desc>Created with Sketch.</desc>
    <defs></defs>
    <g stroke="none" stroke-width="1" fill="none" fill-rule="evenodd">
        <g fill="currentColor" fill-rule="nonzero">
            <polygon points="544.34 77.32 555.9 66.41 555.9 33.27 521.23 0.13 405.66 0.13 370.99 33.27 370.99 11.18 359.44 0.13 313.21 0.13 301.65 11.18 301.65 33.27 278.54 55.36 255.43 33.27 255.43 11.18 243.87 0.13 197.64 0.13 186.09 11.18 174.53 0.13 128.3 0.13 116.75 11.18 116.75 55.36 58.96 0.13 12.74 0.13 1.18 11.18 1.18 165.83 12.74 176.87 58.96 176.87 70.51 165.83 70.51 121.64 128.3 176.87 174.53 176.87 186.09 165.83 186.09 77.45 243.87 132.68 243.87 165.83 255.43 176.87 301.65 176.87 313.21 165.83 313.21 132.68 370.99 77.45 370.99 143.73 405.66 176.87 521.23 176.87 555.9 143.73 555.9 110.59 544.34 99.53 486.56 99.53 486.56 110.59 440.33 110.59 440.33 66.41 486.56 66.41 486.56 77.32"></polygon>
            <polygon points="1 198.59 18 198.59 25.62 228.09 25.74 228.09 33.36 198.59 50.36 198.59 50.36 242.84 39.46 242.84 39.46 209.25 39.34 209.25 30 242.84 21.2 242.84 11.9 209.25 11.78 209.25 11.78 242.84 1 242.84"></polygon>
            <path d="M57.45,220.6 C57.4195546,217.03234 59.3362619,213.73177 62.45,211.99 C65.6099533,210.375001 69.1345775,209.606681 72.68,209.76 C80.3,209.76 87.68,211.43 87.68,220.54 L87.68,234.6 C87.68,237.33 87.68,240.3 88.92,242.84 L78.33,242.84 C78.0016031,241.86907 77.7933857,240.861566 77.71,239.84 C74.98,242.75 71.02,243.84 67.11,243.84 C60.91,243.84 56.11,240.74 56.11,234.11 C56.11,223.7 67.51,224.44 74.83,222.95 C76.63,222.52 77.62,221.95 77.62,219.95 C77.62,217.53 74.71,216.6 72.54,216.6 C69.54,216.6 67.77,217.96 67.27,220.6 L57.45,220.6 Z M71.08,237.27 C76.08,237.27 77.77,234.48 77.53,227.79 C76.04,228.72 73.32,228.84 71.02,229.53 C68.72,230.22 66.68,231.08 66.68,233.62 C66.68,236.16 68.66,237.27 71.08,237.27 Z"></path>
            <path d="M112.18,245.69 C109.7,252.76 105.8,253.62 98.73,253.62 L93.73,253.62 L93.73,245.07 L97.39,245.07 C99.81,245.07 101.61,243.71 101.61,241.48 C101.61,239.74 99.61,234.79 98.94,233.05 L90.64,210.68 L101.8,210.68 L107.87,231.63 L108,231.63 L114.07,210.68 L124.85,210.68 L112.18,245.69 Z"></path>
            <path d="M143.3,209.75 C153.3,209.75 160.3,217.12 160.3,226.75 C160.3,236.38 153.3,243.75 143.3,243.75 C133.3,243.75 126.38,236.44 126.38,226.75 C126.38,217.06 133.32,209.75 143.3,209.75 Z M143.3,235.75 C148.3,235.75 149.75,230.98 149.75,226.83 C149.75,222.68 148.26,217.83 143.3,217.83 C138.34,217.83 136.92,222.73 136.92,226.83 C136.92,230.93 138.4,235.72 143.3,235.72 L143.3,235.75 Z"></path>
            <path d="M166.18,210.68 L176.4,210.68 L176.4,216.32 L176.52,216.32 C178.07,212.17 181.66,210.06 186.19,210.06 C187.02339,210.050883 187.855197,210.134734 188.67,210.31 L188.67,219.92 C187.377217,219.50575 186.027527,219.296548 184.67,219.3 C179.46,219.3 176.74,222.89 176.74,226.92 L176.74,242.85 L166.18,242.85 L166.18,210.68 Z"></path>
            <path d="M193,198.59 L202.85,198.59 L202.85,208.88 C202.79,215.08 199.75,219.73 193,220.88 L193,215.88 C195.768674,215.379256 197.701095,212.853244 197.46,210.05 L193,210.05 L193,198.59 Z"></path>
            <path d="M218.74,232.25 C218.685634,233.66183 219.338087,235.007983 220.48,235.84 C221.630139,236.613601 222.994644,237.005459 224.38,236.96 C226.38,236.96 229.38,236.03 229.38,233.55 C229.38,231.07 226.03,230.64 224.23,230.14 C217.6,228.47 209.29,228.28 209.29,219.6 C209.29,211.92 217.66,209.75 223.98,209.75 C230.98,209.75 238.48,211.75 238.79,220.16 L229,220.16 C229.100365,219.049529 228.576582,217.975005 227.64,217.37 C226.630723,216.767971 225.462835,216.485586 224.29,216.56 C222.56,216.56 219.77,216.75 219.77,218.98 C219.77,221.98 226.83,222.64 231.67,223.63 C238.11,224.93 239.85,229.63 239.85,232.31 C239.85,240.92 231.67,243.78 224.42,243.78 C216.73,243.78 208.99,241.24 208.68,232.25 L218.74,232.25 Z"></path>
            <path d="M285.13,197.66 C299.01,197.66 306.95,207.89 306.95,220.71 C306.95,233.53 299.02,243.76 285.13,243.76 C271.24,243.76 263.31,233.53 263.31,220.71 C263.31,207.89 271.25,197.66 285.13,197.66 Z M285.13,233.85 C292.57,233.85 295.42,227.34 295.42,220.71 C295.42,214.08 292.57,207.57 285.13,207.57 C277.69,207.57 274.84,214.08 274.84,220.71 C274.84,227.34 277.69,233.86 285.13,233.86 L285.13,233.85 Z"></path>
            <path d="M315.08,217.5 L310,217.5 L310,210.68 L315.08,210.68 C315.08,201.45 318.3,198.59 327.29,198.59 C328.96,198.59 330.7,198.71 332.37,198.78 L332.37,206.22 C331.424907,206.097137 330.473038,206.03368 329.52,206.03 C327.1,206.03 325.62,206.34 325.62,209.25 L325.62,210.68 L331.94,210.68 L331.94,217.5 L325.62,217.5 L325.62,242.85 L315.08,242.85 L315.08,217.5 Z"></path>
            <path d="M338,217.5 L332.92,217.5 L332.92,210.68 L338,210.68 C338,201.45 341.22,198.59 350.21,198.59 C351.88,198.59 353.62,198.71 355.29,198.78 L355.29,206.22 C354.344907,206.097137 353.393038,206.03368 352.44,206.03 C350.02,206.03 348.54,206.34 348.54,209.25 L348.54,210.68 L354.86,210.68 L354.86,217.5 L348.54,217.5 L348.54,242.85 L338,242.85 L338,217.5 Z M368.43,206.65 L357.91,206.65 L357.91,198.59 L368.45,198.59 L368.43,206.65 Z M357.89,210.65 L368.43,210.65 L368.43,242.82 L357.91,242.82 L357.89,210.65 Z"></path>
            <path d="M396.84,222.45 C396.694571,219.751375 394.399659,217.675239 391.7,217.8 C385.81,217.8 384.88,222.8 384.88,227.28 C384.88,231.43 386.68,235.71 391.14,235.71 C394.86,235.71 396.66,233.71 397.14,230.19 L407.37,230.19 C406.37,238.87 399.81,243.76 391.19,243.76 C381.52,243.76 374.33,237.19 374.33,227.27 C374.33,217.04 380.84,209.73 391.19,209.73 C399.25,209.73 406.25,214.01 407.06,222.43 L396.84,222.45 Z"></path>
            <path d="M421.63,229.33 C421.82,233.79 424.36,236.64 428.82,236.64 C431.36,236.64 433.82,235.52 434.82,233.11 L444.67,233.11 C442.67,240.55 435.87,243.77 428.67,243.77 C418.2,243.77 411.07,237.45 411.07,226.66 C411.07,216.81 418.94,209.74 428.42,209.74 C439.95,209.74 445.71,218.42 445.22,229.32 L421.63,229.33 Z M434.71,223.44 C434.52,219.78 431.98,216.87 428.45,216.87 C424.73,216.87 422.32,219.47 421.63,223.44 L434.71,223.44 Z"></path>
            <path d="M472.34,217.5 L467.26,217.5 L467.26,210.68 L472.34,210.68 C472.34,201.45 475.56,198.59 484.55,198.59 C486.22,198.59 487.96,198.71 489.63,198.78 L489.63,206.22 C488.684902,206.09719 487.733036,206.033732 486.78,206.03 C484.36,206.03 482.88,206.34 482.88,209.25 L482.88,210.68 L489.2,210.68 L489.2,217.5 L482.88,217.5 L482.88,242.85 L472.34,242.85 L472.34,217.5 Z"></path>
            <path d="M508.36,209.75 C518.36,209.75 525.36,217.12 525.36,226.75 C525.36,236.38 518.36,243.75 508.36,243.75 C498.36,243.75 491.44,236.44 491.44,226.75 C491.44,217.06 498.38,209.75 508.36,209.75 Z M508.36,235.75 C513.36,235.75 514.8,230.98 514.8,226.83 C514.8,222.68 513.31,217.83 508.36,217.83 C503.41,217.83 501.98,222.73 501.98,226.83 C501.98,230.93 503.46,235.72 508.36,235.72 L508.36,235.75 Z"></path>
            <path d="M531.23,210.68 L541.46,210.68 L541.46,216.32 L541.58,216.32 C543.13,212.17 546.72,210.06 551.25,210.06 C552.083386,210.050966 552.915184,210.134817 553.73,210.31 L553.73,219.92 C552.437217,219.50575 551.087527,219.296548 549.73,219.3 C544.52,219.3 541.8,222.89 541.8,226.92 L541.8,242.85 L531.23,242.85 L531.23,210.68 Z"></path>
            <polygon points="0.91 257.49 36.17 257.49 36.17 266.72 12.44 266.72 12.44 274.47 34.13 274.47 34.13 283.39 12.44 283.39 12.44 291.82 36.79 291.82 36.79 301.74 0.91 301.74"></polygon>
            <path d="M63.89,281.35 C63.7445712,278.651375 61.449659,276.575239 58.75,276.7 C52.86,276.7 51.93,281.7 51.93,286.18 C51.93,290.33 53.73,294.61 58.19,294.61 C61.91,294.61 63.71,292.61 64.19,289.09 L74.42,289.09 C73.42,297.77 66.86,302.66 58.24,302.66 C48.57,302.66 41.38,296.09 41.38,286.17 C41.38,275.94 47.89,268.63 58.24,268.63 C66.3,268.63 73.3,272.91 74.11,281.33 L63.89,281.35 Z"></path>
            <path d="M95.07,268.65 C105.07,268.65 112.07,276.02 112.07,285.65 C112.07,295.28 105.07,302.65 95.07,302.65 C85.07,302.65 78.15,295.34 78.15,285.65 C78.15,275.96 85.09,268.65 95.07,268.65 Z M95.07,294.65 C100.07,294.65 101.52,289.88 101.52,285.73 C101.52,281.58 100.03,276.73 95.07,276.73 C90.11,276.73 88.69,281.63 88.69,285.73 C88.69,289.83 90.17,294.62 95.07,294.62 L95.07,294.65 Z"></path>
            <path d="M117.58,269.58 L127.8,269.58 L127.8,274 L127.92,274 C129.92,270.72 134.18,268.67 138.02,268.67 C148.74,268.67 149.61,276.48 149.61,281.13 L149.61,301.77 L139.08,301.77 L139.08,283 C139.08,279.9 138.03,277.36 133.81,277.36 C129.81,277.36 128.11,280.77 128.11,284.24 L128.11,301.78 L117.58,301.78 L117.58,269.58 Z"></path>
            <path d="M172,268.65 C182,268.65 189,276.02 189,285.65 C189,295.28 182,302.65 172,302.65 C162,302.65 155.08,295.34 155.08,285.65 C155.08,275.96 162,268.65 172,268.65 Z M172,294.65 C177,294.65 178.45,289.88 178.45,285.73 C178.45,281.58 176.96,276.73 172,276.73 C167.04,276.73 165.62,281.63 165.62,285.73 C165.62,289.83 167.1,294.62 172,294.62 L172,294.65 Z"></path>
            <path d="M194.51,269.58 L204.74,269.58 L204.74,274 L204.86,274 C206.762387,270.70084 210.28165,268.66859 214.09,268.67 C218.09,268.67 221.71,269.97 223.45,273.88 C225.654255,270.526648 229.438707,268.554949 233.45,268.67 C243.68,268.67 244.79,276.42 244.79,282.55 L244.79,301.76 L234.29,301.76 L234.29,282.86 C234.29,279.39 232.62,277.34 229.89,277.34 C225.37,277.34 224.89,280.81 224.89,286.02 L224.89,301.76 L214.4,301.76 L214.4,283.46 C214.4,279.68 213.35,277.32 210.4,277.32 C206.62,277.32 205.01,279.55 205.01,286.06 L205.01,301.74 L194.51,301.74 L194.51,269.58 Z"></path>
            <path d="M262.82,265.55 L252.28,265.55 L252.28,257.49 L262.82,257.49 L262.82,265.55 Z M252.28,269.55 L262.82,269.55 L262.82,301.72 L252.28,301.72 L252.28,269.55 Z"></path>
            <path d="M291.2,281.35 C291.054571,278.651375 288.759659,276.575239 286.06,276.7 C280.17,276.7 279.24,281.7 279.24,286.18 C279.24,290.33 281.04,294.61 285.5,294.61 C289.22,294.61 291.02,292.61 291.5,289.09 L301.73,289.09 C300.73,297.77 294.17,302.66 285.55,302.66 C275.88,302.66 268.69,296.09 268.69,286.17 C268.69,275.94 275.2,268.63 285.55,268.63 C293.61,268.63 300.61,272.91 301.42,281.33 L291.2,281.35 Z"></path>
            <path d="M347.12,256.56 C361,256.56 368.94,266.79 368.94,279.61 C368.94,292.43 361.01,302.66 347.12,302.66 C333.23,302.66 325.3,292.43 325.3,279.61 C325.3,266.79 333.24,256.56 347.12,256.56 Z M347.12,292.75 C354.56,292.75 357.41,286.24 357.41,279.61 C357.41,272.98 354.56,266.47 347.12,266.47 C339.68,266.47 336.83,272.98 336.83,279.61 C336.83,286.24 339.68,292.76 347.12,292.76 L347.12,292.75 Z"></path>
            <path d="M374.15,269.58 L384.15,269.58 L384.15,273.3 L384.27,273.3 C386.199672,270.299296 389.564292,268.533441 393.13,268.65 C403.23,268.65 407.51,277.26 407.51,286.37 C407.51,294.74 403.05,302.67 393.94,302.67 C390.342267,302.817374 386.906174,301.168648 384.77,298.27 L384.65,298.27 L384.65,312.52 L374.15,312.52 L374.15,269.58 Z M384.31,285.32 C384.31,290.96 385.92,294.62 390.69,294.62 C395.46,294.62 397.01,289.72 397.01,285.32 C397.01,281.23 395.46,276.71 390.75,276.71 C388,276.71 384.32,278.63 384.32,285.32 L384.31,285.32 Z"></path>
            <path d="M412.58,269.58 L422.58,269.58 L422.58,273.3 L422.7,273.3 C424.629672,270.299296 427.994292,268.533441 431.56,268.65 C441.66,268.65 445.94,277.26 445.94,286.37 C445.94,294.74 441.48,302.67 432.37,302.67 C428.772267,302.817374 425.336174,301.168648 423.2,298.27 L423.08,298.27 L423.08,312.52 L412.58,312.52 L412.58,269.58 Z M422.74,285.32 C422.74,290.96 424.35,294.62 429.12,294.62 C433.89,294.62 435.44,289.72 435.44,285.32 C435.44,281.23 433.89,276.71 429.18,276.71 C426.4,276.71 422.75,278.63 422.75,285.32 L422.74,285.32 Z"></path>
            <path d="M466.39,268.65 C476.39,268.65 483.39,276.02 483.39,285.65 C483.39,295.28 476.39,302.65 466.39,302.65 C456.39,302.65 449.47,295.34 449.47,285.65 C449.47,275.96 456.41,268.65 466.39,268.65 Z M466.39,294.65 C471.39,294.65 472.84,289.88 472.84,285.73 C472.84,281.58 471.35,276.73 466.39,276.73 C461.43,276.73 460.01,281.63 460.01,285.73 C460.01,289.83 461.49,294.62 466.39,294.62 L466.39,294.65 Z"></path>
            <path d="M487.1,269.58 L497.33,269.58 L497.33,275.22 L497.45,275.22 C499,271.07 502.59,268.96 507.12,268.96 C507.953386,268.950966 508.785184,269.034817 509.6,269.21 L509.6,278.82 C508.307217,278.40575 506.957527,278.196548 505.6,278.2 C500.39,278.2 497.67,281.79 497.67,285.82 L497.67,301.75 L487.1,301.75 L487.1,269.58 Z"></path>
            <path d="M535,276.4 L528.5,276.4 L528.5,291 C528.5,293.54 529.99,294.1 532.28,294.1 C533.21,294.1 534.08,293.98 535.01,293.98 L535.01,301.73 C533.09,301.79 531.17,302.04 529.25,302.04 C520.25,302.04 517.97,299.38 517.97,290.7 L517.97,276.4 L512.64,276.4 L512.64,269.58 L518,269.58 L518,259.85 L528.5,259.85 L528.5,269.58 L535,269.58 L535,276.4 Z"></path>
            <path d="M572.32,301.74 L562.1,301.74 L562.1,297.34 L562,297.34 C559.828161,300.636424 556.157413,302.634901 552.21,302.67 C542.98,302.67 540.31,297.34 540.31,288.91 L540.31,269.58 L550.85,269.58 L550.85,288.23 C550.85,292.51 552.65,293.99 556.06,293.99 C558.29,293.99 561.82,292.5 561.82,286.8 L561.82,269.58 L572.36,269.58 L572.32,301.74 Z"></path>
            <path d="M579.4,269.58 L589.63,269.58 L589.63,274 L589.75,274 C591.75,270.72 596.01,268.67 599.85,268.67 C610.57,268.67 611.44,276.48 611.44,281.13 L611.44,301.77 L600.9,301.77 L600.9,283 C600.9,279.9 599.85,277.36 595.63,277.36 C591.63,277.36 589.93,280.77 589.93,284.24 L589.93,301.78 L579.4,301.78 L579.4,269.58 Z"></path>
            <path d="M628.74,265.55 L618.2,265.55 L618.2,257.49 L628.74,257.49 L628.74,265.55 Z M618.2,269.55 L628.74,269.55 L628.74,301.72 L618.2,301.72 L618.2,269.55 Z"></path>
            <path d="M655.58,276.4 L649.07,276.4 L649.07,291 C649.07,293.54 650.56,294.1 652.85,294.1 C653.78,294.1 654.65,293.98 655.58,293.98 L655.58,301.73 C653.66,301.79 651.74,302.04 649.82,302.04 C640.82,302.04 638.54,299.38 638.54,290.7 L638.54,276.4 L633.21,276.4 L633.21,269.58 L638.54,269.58 L638.54,259.85 L649.08,259.85 L649.08,269.58 L655.59,269.58 L655.58,276.4 Z"></path>
            <path d="M679.38,304.6 C676.9,311.67 673,312.53 665.93,312.53 L660.93,312.53 L660.93,304 L664.59,304 C667.01,304 668.8,302.64 668.8,300.41 C668.8,298.67 666.8,293.72 666.14,291.98 L657.84,269.61 L669,269.61 L675.07,290.56 L675.19,290.56 L681.26,269.61 L692.04,269.61 L679.38,304.6 Z"></path>
        </g>
    </g>
</svg>